<svg width="40" height="60" viewBox="0 0 40 60" fill="none" xmlns="http://www.w3.org/2000/svg">
<g id="check-circle">
<circle id="Ellipse 13" cx="20" cy="31" r="14" fill="#F6FFBC" fill-opacity="0.54"/>
<path id="Vector" d="M24.5335 25.6507L17.3835 32.8173L14.6335 30.0673C14.4841 29.8928 14.3002 29.7511 14.0935 29.6511C13.8867 29.5511 13.6615 29.4949 13.4319 29.486C13.2024 29.4771 12.9735 29.5158 12.7596 29.5996C12.5458 29.6834 12.3515 29.8105 12.1891 29.9729C12.0267 30.1353 11.8996 30.3296 11.8158 30.5434C11.732 30.7573 11.6933 30.9862 11.7022 31.2157C11.711 31.4453 11.7673 31.6705 11.8673 31.8773C11.9673 32.084 12.109 32.2679 12.2835 32.4173L16.2002 36.3507C16.3559 36.5051 16.5406 36.6273 16.7437 36.7103C16.9467 36.7932 17.1642 36.8353 17.3835 36.834C17.8207 36.8321 18.2397 36.6586 18.5502 36.3507L26.8835 28.0173C27.0397 27.8624 27.1637 27.678 27.2483 27.4749C27.3329 27.2718 27.3765 27.054 27.3765 26.834C27.3765 26.614 27.3329 26.3961 27.2483 26.193C27.1637 25.9899 27.0397 25.8056 26.8835 25.6507C26.5712 25.3402 26.1488 25.166 25.7085 25.166C25.2682 25.166 24.8458 25.3402 24.5335 25.6507ZM20.0002 14.334C16.7038 14.334 13.4815 15.3115 10.7407 17.1428C7.99985 18.9742 5.86364 21.5772 4.60218 24.6226C3.34072 27.668 3.01066 31.0191 3.65375 34.2522C4.29684 37.4852 5.88418 40.4549 8.21506 42.7858C10.5459 45.1166 13.5156 46.704 16.7487 47.3471C19.9817 47.9902 23.3328 47.6601 26.3782 46.3986C29.4237 45.1372 32.0266 43.001 33.858 40.2602C35.6894 37.5193 36.6668 34.297 36.6668 31.0007C36.6668 28.812 36.2357 26.6447 35.3982 24.6226C34.5606 22.6005 33.3329 20.7632 31.7853 19.2155C30.2376 17.6679 28.4003 16.4402 26.3782 15.6027C24.3561 14.7651 22.1889 14.334 20.0002 14.334ZM20.0002 44.334C17.3631 44.334 14.7852 43.552 12.5926 42.0869C10.3999 40.6218 8.69095 38.5394 7.68178 36.1031C6.67261 33.6667 6.40856 30.9859 6.92303 28.3994C7.4375 25.813 8.70738 23.4373 10.5721 21.5726C12.4368 19.7079 14.8126 18.438 17.399 17.9235C19.9854 17.409 22.6663 17.6731 25.1026 18.6823C27.539 19.6914 29.6213 21.4004 31.0864 23.593C32.5515 25.7857 33.3335 28.3636 33.3335 31.0007C33.3335 34.5369 31.9287 37.9283 29.4283 40.4287C26.9278 42.9292 23.5364 44.334 20.0002 44.334Z" fill="#5277F6"/>
</g>
</svg>
