<svg width="50" height="50" viewBox="0 0 50 50" fill="none" xmlns="http://www.w3.org/2000/svg">
<g id="clock-eight">
<path id="Vector" d="M24.9998 12.5003C24.7262 12.5003 24.4553 12.5541 24.2025 12.6588C23.9497 12.7634 23.72 12.9169 23.5266 13.1104C23.3331 13.3038 23.1796 13.5335 23.075 13.7863C22.9703 14.0391 22.9164 14.3101 22.9165 14.5837V23.7166L17.8526 26.2648C17.6083 26.3877 17.3906 26.5575 17.2119 26.7645C17.0332 26.9716 16.897 27.2118 16.8111 27.4715C16.7253 27.7311 16.6914 28.0052 16.7114 28.2779C16.7315 28.5507 16.805 28.8169 16.9279 29.0612C17.0508 29.3055 17.2207 29.5233 17.4277 29.702C17.6348 29.8807 17.875 30.0168 18.1346 30.1027C18.3943 30.1886 18.6684 30.2224 18.9411 30.2024C19.2139 30.1824 19.48 30.1088 19.7244 29.9859L25.9357 26.8609C26.2808 26.6877 26.5708 26.422 26.7735 26.0934C26.9761 25.7648 27.0833 25.3864 27.0832 25.0003V14.5837C27.0833 14.3101 27.0294 14.0391 26.9247 13.7863C26.8201 13.5335 26.6666 13.3038 26.4731 13.1104C26.2797 12.9169 26.05 12.7634 25.7972 12.6588C25.5444 12.5541 25.2735 12.5003 24.9998 12.5003ZM24.9998 4.16699C20.8794 4.16699 16.8515 5.38885 13.4255 7.67804C9.99944 9.96724 7.32918 13.221 5.75236 17.0278C4.17553 20.8345 3.76296 25.0234 4.56682 29.0647C5.37068 33.106 7.35486 36.8181 10.2685 39.7317C13.182 42.6453 16.8942 44.6295 20.9355 45.4334C24.9767 46.2372 29.1656 45.8246 32.9724 44.2478C36.7792 42.671 40.0329 40.0007 42.3221 36.5747C44.6113 33.1487 45.8332 29.1208 45.8332 25.0003C45.8269 19.4769 43.6299 14.1816 39.7243 10.2759C35.8186 6.37027 30.5233 4.17331 24.9998 4.16699ZM24.9998 41.667C21.7035 41.667 18.4812 40.6895 15.7403 38.8582C12.9995 37.0268 10.8633 34.4238 9.60186 31.3784C8.34039 28.3329 8.01034 24.9818 8.65343 21.7488C9.29651 18.5158 10.8839 15.5461 13.2147 13.2152C15.5456 10.8843 18.5153 9.29699 21.7483 8.6539C24.9814 8.01082 28.3325 8.34087 31.3779 9.60233C34.4233 10.8638 37.0263 13 38.8577 15.7408C40.689 18.4816 41.6665 21.704 41.6665 25.0003C41.6615 29.419 39.9039 33.6553 36.7794 36.7799C33.6549 39.9044 29.4186 41.6619 24.9998 41.667Z" fill="white"/>
</g>
</svg>
