<svg width="50" height="50" viewBox="0 0 50 50" fill="none" xmlns="http://www.w3.org/2000/svg">
<g id="edit">
<path id="Vector" d="M43.7498 24.9997C43.1973 24.9997 42.6674 25.2192 42.2767 25.6099C41.886 26.0006 41.6665 26.5305 41.6665 27.083V39.583C41.6665 40.1356 41.447 40.6655 41.0563 41.0562C40.6656 41.4469 40.1357 41.6664 39.5832 41.6664H10.4165C9.86397 41.6664 9.33407 41.4469 8.94337 41.0562C8.55266 40.6655 8.33317 40.1356 8.33317 39.583V10.4164C8.33317 9.86384 8.55266 9.33394 8.94337 8.94324C9.33407 8.55254 9.86397 8.33304 10.4165 8.33304H22.9165C23.469 8.33304 23.9989 8.11355 24.3896 7.72285C24.7803 7.33215 24.9998 6.80224 24.9998 6.24971C24.9998 5.69718 24.7803 5.16727 24.3896 4.77657C23.9989 4.38587 23.469 4.16638 22.9165 4.16638H10.4165C8.7589 4.16638 7.16919 4.82486 5.99709 5.99696C4.82498 7.16906 4.1665 8.75877 4.1665 10.4164V39.583C4.1665 41.2406 4.82498 42.8304 5.99709 44.0025C7.16919 45.1746 8.7589 45.833 10.4165 45.833H39.5832C41.2408 45.833 42.8305 45.1746 44.0026 44.0025C45.1747 42.8304 45.8332 41.2406 45.8332 39.583V27.083C45.8332 26.5305 45.6137 26.0006 45.223 25.6099C44.8323 25.2192 44.3024 24.9997 43.7498 24.9997ZM12.4998 26.583V35.4164C12.4998 35.9689 12.7193 36.4988 13.11 36.8895C13.5007 37.2802 14.0306 37.4997 14.5832 37.4997H23.4165C23.6907 37.5013 23.9625 37.4487 24.2163 37.3451C24.4701 37.2414 24.701 37.0886 24.8957 36.8955L39.3123 22.458L45.229 16.6664C45.4243 16.4727 45.5793 16.2423 45.685 15.9884C45.7908 15.7345 45.8452 15.4622 45.8452 15.1872C45.8452 14.9122 45.7908 14.6399 45.685 14.386C45.5793 14.1321 45.4243 13.9017 45.229 13.708L36.3957 4.77054C36.202 4.57528 35.9716 4.42029 35.7177 4.31452C35.4638 4.20875 35.1915 4.1543 34.9165 4.1543C34.6415 4.1543 34.3692 4.20875 34.1153 4.31452C33.8614 4.42029 33.631 4.57528 33.4373 4.77054L27.5623 10.6664L13.104 25.1039C12.9109 25.2985 12.7582 25.5294 12.6545 25.7832C12.5508 26.0371 12.4983 26.3089 12.4998 26.583ZM34.9165 9.18721L40.8123 15.083L37.854 18.0414L31.9582 12.1455L34.9165 9.18721ZM16.6665 27.4372L29.0207 15.083L34.9165 20.9789L22.5623 33.333H16.6665V27.4372Z" fill="white"/>
</g>
</svg>
