<svg width="50" height="50" viewBox="0 0 50 50" fill="none" xmlns="http://www.w3.org/2000/svg">
<g id="gift">
<path id="Vector" d="M37.5 14.5837H36.7708C37.2463 13.6103 37.4956 12.542 37.5 11.4587C37.5063 10.0073 37.0781 8.5872 36.2704 7.38124C35.4628 6.17528 34.3127 5.23864 32.9682 4.69188C31.6237 4.14512 30.1464 4.01326 28.7263 4.31328C27.3062 4.61331 26.0084 5.33147 25 6.37534C23.9916 5.33147 22.6938 4.61331 21.2737 4.31328C19.8536 4.01326 18.3763 4.14512 17.0318 4.69188C15.6873 5.23864 14.5372 6.17528 13.7296 7.38124C12.9219 8.5872 12.4937 10.0073 12.5 11.4587C12.5044 12.542 12.7537 13.6103 13.2292 14.5837H12.5C10.8424 14.5837 9.25269 15.2422 8.08058 16.4143C6.90848 17.5864 6.25 19.1761 6.25 20.8337V25.0003C6.25 25.5529 6.46949 26.0828 6.86019 26.4735C7.25089 26.8642 7.7808 27.0837 8.33333 27.0837H10.4167V39.5837C10.4167 41.2413 11.0751 42.831 12.2472 44.0031C13.4194 45.1752 15.0091 45.8337 16.6667 45.8337H33.3333C34.9909 45.8337 36.5806 45.1752 37.7528 44.0031C38.9249 42.831 39.5833 41.2413 39.5833 39.5837V27.0837H41.6667C42.2192 27.0837 42.7491 26.8642 43.1398 26.4735C43.5305 26.0828 43.75 25.5529 43.75 25.0003V20.8337C43.75 19.1761 43.0915 17.5864 41.9194 16.4143C40.7473 15.2422 39.1576 14.5837 37.5 14.5837ZM22.9167 41.667H16.6667C16.1141 41.667 15.5842 41.4475 15.1935 41.0568C14.8028 40.6661 14.5833 40.1362 14.5833 39.5837V27.0837H22.9167V41.667ZM22.9167 22.917H10.4167V20.8337C10.4167 20.2811 10.6362 19.7512 11.0269 19.3605C11.4176 18.9698 11.9475 18.7503 12.5 18.7503H22.9167V22.917ZM22.9167 14.5837H19.7917C19.1736 14.5837 18.5694 14.4004 18.0555 14.057C17.5416 13.7136 17.1411 13.2256 16.9045 12.6546C16.668 12.0835 16.6061 11.4552 16.7267 10.849C16.8473 10.2428 17.1449 9.68601 17.582 9.24897C18.019 8.81193 18.5758 8.5143 19.182 8.39372C19.7882 8.27314 20.4165 8.33503 20.9876 8.57155C21.5586 8.80808 22.0466 9.20862 22.39 9.72252C22.7334 10.2364 22.9167 10.8406 22.9167 11.4587V14.5837ZM27.0833 11.4587C27.0833 10.8406 27.2666 10.2364 27.61 9.72252C27.9534 9.20862 28.4414 8.80808 29.0124 8.57155C29.5835 8.33503 30.2118 8.27314 30.818 8.39372C31.4242 8.5143 31.981 8.81193 32.418 9.24897C32.8551 9.68601 33.1527 10.2428 33.2733 10.849C33.3939 11.4552 33.332 12.0835 33.0955 12.6546C32.8589 13.2256 32.4584 13.7136 31.9445 14.057C31.4306 14.4004 30.8264 14.5837 30.2083 14.5837H27.0833V11.4587ZM35.4167 39.5837C35.4167 40.1362 35.1972 40.6661 34.8065 41.0568C34.4158 41.4475 33.8859 41.667 33.3333 41.667H27.0833V27.0837H35.4167V39.5837ZM39.5833 22.917H27.0833V18.7503H37.5C38.0525 18.7503 38.5824 18.9698 38.9731 19.3605C39.3638 19.7512 39.5833 20.2811 39.5833 20.8337V22.917Z" fill="white"/>
</g>
</svg>
