<svg width="220" height="195" viewBox="0 0 220 195" fill="none" xmlns="http://www.w3.org/2000/svg">
<g opacity="0.7">
<mask id="mask0_1107_26464" style="mask-type:luminance" maskUnits="userSpaceOnUse" x="0" y="73" width="220" height="122">
<path d="M218.638 159.821L179.224 136.649L195.888 126.667C199.867 124.321 199.867 118.432 195.888 116.086L127.709 76.0381C122.982 73.2373 117.13 73.2373 112.403 76.0381L2.98414 141.604C-0.994713 143.95 -0.994713 149.839 2.98414 152.185L71.1629 192.233C75.8908 195.034 81.742 195.034 86.4698 192.233L127.429 167.673L166.679 190.749C167.334 191.132 168.481 191.084 169.23 190.629L218.451 161.329C219.223 160.874 219.293 160.204 218.638 159.821Z" fill="white"/>
</mask>
<g mask="url(#mask0_1107_26464)">
<path d="M241.272 109.394L51.437 221.553L51.7297 222.071L241.565 109.912L241.272 109.394Z" fill="#5277F6"/>
<path d="M243.702 110.713L53.8667 222.871L54.1594 223.389L243.995 111.231L243.702 110.713Z" fill="#5277F6"/>
<path d="M245.955 112.182L56.0757 224.273L56.3682 224.792L246.247 112.7L245.955 112.182Z" fill="#5277F6"/>
<path d="M248.445 113.495L58.5654 225.586L58.8579 226.104L248.737 114.013L248.445 113.495Z" fill="#5277F6"/>
<path d="M250.42 114.884L60.5845 227.043L60.8772 227.561L250.713 115.403L250.42 114.884Z" fill="#5277F6"/>
<path d="M252.861 116.22L63.0254 228.379L63.3181 228.897L253.153 116.739L252.861 116.22Z" fill="#5277F6"/>
<path d="M255.115 117.69L65.2354 229.781L65.5279 230.3L255.407 118.208L255.115 117.69Z" fill="#5277F6"/>
<path d="M257.592 118.983L67.7129 231.074L68.0054 231.593L257.885 119.501L257.592 118.983Z" fill="#5277F6"/>
<path d="M259.76 120.332L69.9248 232.49L70.2175 233.008L260.053 120.85L259.76 120.332Z" fill="#5277F6"/>
<path d="M262.274 121.76L72.3945 233.852L72.687 234.37L262.566 122.279L262.274 121.76Z" fill="#5277F6"/>
<path d="M264.417 123.072L74.582 235.23L74.8747 235.749L264.71 123.59L264.417 123.072Z" fill="#5277F6"/>
<path d="M266.899 124.414L77.0635 236.572L77.3562 237.09L267.191 124.932L266.899 124.414Z" fill="#5277F6"/>
<path d="M269.008 125.872L79.1289 237.963L79.4214 238.481L269.301 126.39L269.008 125.872Z" fill="#5277F6"/>
<path d="M271.389 127.289L81.5103 239.357L81.8027 239.876L271.682 127.807L271.389 127.289Z" fill="#5277F6"/>
<path d="M273.65 128.624L83.771 240.715L84.0635 241.233L273.943 129.142L273.65 128.624Z" fill="#5277F6"/>
<path d="M276.075 129.861L86.2393 242.02L86.5319 242.538L276.367 130.379L276.075 129.861Z" fill="#5277F6"/>
<path d="M278.329 131.333L88.4497 243.424L88.7422 243.942L278.621 131.851L278.329 131.333Z" fill="#5277F6"/>
<path d="M208.759 90.3239L18.9233 202.482L19.216 203.001L209.051 90.8421L208.759 90.3239Z" fill="#5277F6"/>
<path d="M211.248 91.6364L21.4131 203.795L21.7058 204.313L211.541 92.1546L211.248 91.6364Z" fill="#5277F6"/>
<path d="M213.279 93.1246L23.4438 205.283L23.7365 205.801L213.572 93.6428L213.279 93.1246Z" fill="#5277F6"/>
<path d="M215.772 94.5161L25.8931 206.607L26.1856 207.126L216.065 95.0345L215.772 94.5161Z" fill="#5277F6"/>
<path d="M217.938 95.8219L28.1025 207.98L28.3952 208.499L218.231 96.3401L217.938 95.8219Z" fill="#5277F6"/>
<path d="M220.416 97.1129L30.5806 209.271L30.8732 209.79L220.709 97.6311L220.416 97.1129Z" fill="#5277F6"/>
<path d="M222.616 98.529L32.7808 210.688L33.0734 211.206L222.909 99.0472L222.616 98.529Z" fill="#5277F6"/>
<path d="M225.073 99.8532L35.2378 212.012L35.5305 212.53L225.366 100.371L225.073 99.8532Z" fill="#5277F6"/>
<path d="M227.294 101.257L37.459 213.416L37.7517 213.934L227.587 101.776L227.294 101.257Z" fill="#5277F6"/>
<path d="M229.836 102.624L39.957 214.715L40.2495 215.233L230.129 103.142L229.836 102.624Z" fill="#5277F6"/>
<path d="M231.811 104.013L41.9761 216.172L42.2688 216.69L232.104 104.532L231.811 104.013Z" fill="#5277F6"/>
<path d="M234.252 105.351L44.417 217.51L44.7097 218.028L234.545 105.869L234.252 105.351Z" fill="#5277F6"/>
<path d="M236.506 106.821L46.6265 218.912L46.919 219.43L236.798 107.339L236.506 106.821Z" fill="#5277F6"/>
<path d="M238.984 108.112L49.1045 220.203L49.397 220.721L239.276 108.63L238.984 108.112Z" fill="#5277F6"/>
<path d="M241.132 109.474L51.2964 221.633L51.5891 222.151L241.424 109.992L241.132 109.474Z" fill="#5277F6"/>
<path d="M171.784 68.4946L-18.0957 180.586L-17.8032 181.104L172.076 69.0129L171.784 68.4946Z" fill="#5277F6"/>
<path d="M174.174 69.779L-15.6611 181.938L-15.3685 182.456L174.467 70.2972L174.174 69.779Z" fill="#5277F6"/>
<path d="M176.374 71.195L-13.4609 183.354L-13.1683 183.872L176.667 71.7132L176.374 71.195Z" fill="#5277F6"/>
<path d="M178.853 72.4879L-10.9824 184.646L-10.6897 185.165L179.146 73.0061L178.853 72.4879Z" fill="#5277F6"/>
<path d="M180.944 74.1L-8.95752 186.146L-8.66513 186.665L181.236 74.6184L180.944 74.1Z" fill="#5277F6"/>
<path d="M183.375 75.3618L-6.50391 187.453L-6.2114 187.971L183.668 75.8802L183.375 75.3618Z" fill="#5277F6"/>
<path d="M185.522 76.6833L-4.31348 188.842L-4.0208 189.36L185.815 77.2015L185.522 76.6833Z" fill="#5277F6"/>
<path d="M188 77.9743L-1.83545 190.133L-1.54277 190.651L188.293 78.4925L188 77.9743Z" fill="#5277F6"/>
<path d="M190.272 79.4321L0.392578 191.523L0.685082 192.042L190.564 79.9504L190.272 79.4321Z" fill="#5277F6"/>
<path d="M192.689 80.7243L2.854 192.883L3.14668 193.401L192.982 81.2425L192.689 80.7243Z" fill="#5277F6"/>
<path d="M194.961 82.1802L5.08203 194.271L5.37454 194.79L195.254 82.6985L194.961 82.1802Z" fill="#5277F6"/>
<path d="M197.368 83.4313L7.53223 195.59L7.82491 196.108L197.66 83.9495L197.368 83.4313Z" fill="#5277F6"/>
<path d="M199.427 84.8844L9.5918 197.043L9.88448 197.561L199.72 85.4026L199.427 84.8844Z" fill="#5277F6"/>
<path d="M201.857 86.2008L12.0215 198.359L12.3142 198.878L202.15 86.719L201.857 86.2008Z" fill="#5277F6"/>
<path d="M204.109 87.6704L14.23 199.762L14.5225 200.28L204.402 88.1887L204.109 87.6704Z" fill="#5277F6"/>
<path d="M206.536 88.9078L16.7002 201.066L16.9929 201.585L206.828 89.426L206.536 88.9078Z" fill="#5277F6"/>
<path d="M139.281 49.4439L-50.5981 161.535L-50.3056 162.053L139.574 49.9622L139.281 49.4439Z" fill="#5277F6"/>
<path d="M141.759 50.7368L-48.1201 162.828L-47.8276 163.346L142.052 51.2552L141.759 50.7368Z" fill="#5277F6"/>
<path d="M143.766 52.189L-46.0908 164.303L-45.7983 164.821L144.059 52.7073L143.766 52.189Z" fill="#5277F6"/>
<path d="M146.176 53.5172L-43.6812 165.631L-43.3886 166.149L146.469 54.0354L146.176 53.5172Z" fill="#5277F6"/>
<path d="M148.449 54.9204L-41.4307 167.012L-41.1382 167.53L148.741 55.4387L148.449 54.9204Z" fill="#5277F6"/>
<path d="M150.876 56.1598L-38.959 168.318L-38.6663 168.837L151.169 56.678L150.876 56.1598Z" fill="#5277F6"/>
<path d="M153.077 57.5758L-36.7583 169.734L-36.4656 170.253L153.37 58.094L153.077 57.5758Z" fill="#5277F6"/>
<path d="M155.617 58.9614L-34.2627 171.053L-33.9702 171.571L155.909 59.4797L155.617 58.9614Z" fill="#5277F6"/>
<path d="M157.767 60.3239L-32.0688 172.482L-31.7762 173.001L158.059 60.8421L157.767 60.3239Z" fill="#5277F6"/>
<path d="M160.245 61.6168L-29.5908 173.775L-29.2981 174.294L160.537 62.135L160.245 61.6168Z" fill="#5277F6"/>
<path d="M162.284 63.0797L-27.5518 175.238L-27.2591 175.756L162.576 63.5979L162.284 63.0797Z" fill="#5277F6"/>
<path d="M164.761 64.4106L-25.1182 176.502L-24.8257 177.02L165.054 64.929L164.761 64.4106Z" fill="#5277F6"/>
<path d="M166.917 65.8532L-22.9185 178.012L-22.6258 178.53L167.21 66.3714L166.917 65.8532Z" fill="#5277F6"/>
<path d="M169.392 67.1051L-20.4438 179.264L-20.1512 179.782L169.684 67.6233L169.392 67.1051Z" fill="#5277F6"/>
<path d="M171.643 68.5727L-18.2363 180.664L-17.9438 181.182L171.935 69.0911L171.643 68.5727Z" fill="#5277F6"/>
</g>
</g>
<path d="M191.979 106.987C191.979 106.94 191.979 106.916 191.979 106.868V96.4068L180.487 96.6701L127.217 65.1916C122.583 62.4387 116.849 62.4387 112.215 65.1916L21.3329 119.794L2.00045 123.481V134.157C1.81321 136.335 2.7728 138.61 4.90265 139.854L66.7386 176.384C71.3728 179.137 77.1071 179.137 81.7413 176.384L189.053 112.086C190.972 110.961 191.932 108.998 191.979 107.035V106.987Z" fill="#EEFF87"/>
<path d="M74.2285 179.161C71.5136 179.161 68.7986 178.443 66.3879 177.006L4.55186 140.477C2.35178 139.184 1.11131 136.743 1.32195 134.133V122.93L21.0991 119.148L111.864 64.5935C116.709 61.7449 122.724 61.7449 127.545 64.5935L180.651 95.9762L192.634 95.689V107.682H192.588C192.354 109.788 191.183 111.608 189.381 112.685L82.0692 176.983C79.6585 178.467 76.9435 179.161 74.2285 179.161ZM2.65606 124.079V134.181C2.49222 136.312 3.47517 138.251 5.23055 139.28L67.0666 175.81C71.4902 178.419 76.9904 178.419 81.4139 175.81L188.726 111.512C190.317 110.578 191.277 108.903 191.324 107.036V106.796V97.0774L180.324 97.3407L126.89 65.7665C122.466 63.1572 116.966 63.1572 112.543 65.7665L21.5673 120.441L2.65606 124.079Z" fill="#191D71"/>
<path d="M4.87974 129.226L66.7158 165.755C71.35 168.508 77.0842 168.508 81.7184 165.755L189.03 101.458C192.939 99.1597 192.939 93.3907 189.03 91.0687L127.194 54.5393C122.56 51.7864 116.826 51.7864 112.192 54.5393L4.87974 118.837C0.994512 121.159 0.994512 126.928 4.87974 129.226Z" fill="#809CE4"/>
<path d="M74.2288 168.508C71.5138 168.508 68.7988 167.79 66.3881 166.378L4.55208 129.848C2.51584 128.651 1.27539 126.473 1.27539 124.055C1.27539 121.637 2.49244 119.483 4.55208 118.262L111.864 53.9646C116.709 51.116 122.724 51.116 127.545 53.9646L189.381 90.494C191.418 91.6909 192.658 93.8693 192.658 96.287C192.658 98.7047 191.441 100.859 189.381 102.08L82.0695 166.378C79.6587 167.79 76.9437 168.508 74.2288 168.508ZM119.705 53.1746C117.224 53.1746 114.743 53.8209 112.543 55.1375L5.23077 119.435C3.59242 120.393 2.63285 122.116 2.63285 124.031C2.63285 125.946 3.59242 127.67 5.23077 128.627L67.0668 165.157C71.4904 167.766 76.9906 167.766 81.4141 165.157L188.726 100.859C190.364 99.9016 191.324 98.1781 191.324 96.2631C191.324 94.348 190.364 92.6245 188.726 91.667L126.89 55.1375C124.667 53.8449 122.186 53.1746 119.705 53.1746Z" fill="#191D71"/>
<path d="M8.48401 130.828H7.1499V141.911H8.48401V130.828Z" fill="#191D71"/>
<path d="M74.6031 167.551H73.269V178.634H74.6031V167.551Z" fill="#191D71"/>
<path d="M81.2266 165.994H79.8926V177.077H81.2266V165.994Z" fill="#191D71"/>
<path d="M187.368 102.486H186.034V113.57H187.368V102.486Z" fill="#191D71"/>
<path d="M83.0059 165.013V175.665L184.584 114.815V104.139L83.0059 165.013Z" fill="#191D71"/>
<path d="M62.386 139.852L47.8281 131.259L65.3117 120.941L79.8696 129.535L62.386 139.852Z" fill="#809CE4"/>
<path d="M62.3861 140.452L46.7983 131.259L65.2883 120.344L80.876 129.536L62.3861 140.452ZM48.858 131.259L62.3861 139.255L78.8398 129.536L65.3117 121.541L48.858 131.259Z" fill="#191D71"/>
<path d="M62.386 136.886L47.8281 128.268L65.3117 117.975L79.8696 126.568L62.386 136.886Z" fill="#809CE4"/>
<path d="M62.3861 137.485L46.7983 128.293L65.2883 117.377L80.876 126.569L62.3861 137.485ZM48.858 128.269L62.3861 136.264L78.8398 126.545L65.3117 118.55L48.858 128.269Z" fill="#191D71"/>
<path d="M62.386 133.917L47.8281 125.3L65.3117 114.982L79.8696 123.6L62.386 133.917Z" fill="#809CE4"/>
<path d="M62.3861 134.516L46.7983 125.324L65.2883 114.408L80.876 123.6L62.3861 134.516ZM48.858 125.3L62.3861 133.295L78.8398 123.576L65.3117 115.581L48.858 125.3Z" fill="#191D71"/>
<path d="M62.386 130.925L47.8281 122.331L65.3117 112.014L79.8696 120.631L62.386 130.925Z" fill="#809CE4"/>
<path d="M62.3861 131.547L46.7983 122.355L65.2883 111.439L80.876 120.632L62.3861 131.547ZM48.858 122.331L62.3861 130.327L78.8398 120.608L65.3117 112.612L48.858 122.331Z" fill="#191D71"/>
<path d="M62.386 127.956L47.8281 119.362L65.3117 109.045L79.8696 117.639L62.386 127.956Z" fill="#809CE4"/>
<path d="M62.3861 128.579L46.7983 119.386L65.2883 108.471L80.876 117.663L62.3861 128.579ZM48.858 119.363L62.3861 127.358L78.8398 117.639L65.3117 109.644L48.858 119.363Z" fill="#191D71"/>
<path d="M62.386 127.956L47.8281 119.362L65.3117 109.045L79.8696 117.639L62.386 127.956Z" fill="#809CE4"/>
<path d="M62.3861 128.579L46.7983 119.386L65.2883 108.471L80.876 117.663L62.3861 128.579ZM48.858 119.363L62.3861 127.358L78.8398 117.639L65.3117 109.644L48.858 119.363Z" fill="#191D71"/>
<path d="M62.386 124.989L47.8281 116.395L65.3117 106.078L79.8696 114.672L62.386 124.989Z" fill="#809CE4"/>
<path d="M62.3861 125.612L46.7983 116.42L65.2883 105.504L80.876 114.696L62.3861 125.612ZM48.858 116.396L62.3861 124.391L78.8398 114.672L65.3117 106.677L48.858 116.396Z" fill="#191D71"/>
<path d="M62.386 122.02L47.8281 113.427L65.3117 103.109L79.8696 111.703L62.386 122.02Z" fill="#809CE4"/>
<path d="M62.3861 122.643L46.7983 113.451L65.2883 102.535L80.876 111.727L62.3861 122.643ZM48.858 113.427L62.3861 121.422L78.8398 111.703L65.3117 103.708L48.858 113.427Z" fill="#191D71"/>
<path d="M62.386 119.052L47.8281 110.458L65.3117 100.141L79.8696 108.734L62.386 119.052Z" fill="#809CE4"/>
<path d="M62.3861 119.674L46.7983 110.482L65.2883 99.5664L80.876 108.759L62.3861 119.674ZM48.858 110.458L62.3861 118.454L78.8398 108.735L65.3117 100.739L48.858 110.458Z" fill="#191D71"/>
<path d="M62.386 116.083L47.8281 107.489L65.3117 97.1719L79.8696 105.766L62.386 116.083Z" fill="#EEFF87"/>
<path d="M62.3861 116.682L46.7983 107.49L65.2883 96.5742L80.876 105.766L62.3861 116.682ZM48.858 107.49L62.3861 115.485L78.8398 105.766L65.3117 97.7711L48.858 107.49Z" fill="#191D71"/>
<path d="M67.2776 154.12L52.7197 145.526L70.1798 135.209L84.7378 143.803L67.2776 154.12Z" fill="#809CE4"/>
<path d="M67.2777 154.743L51.6899 145.55L70.1799 134.635L85.7676 143.827L67.2777 154.743ZM53.7496 145.527L67.2777 153.522L83.7314 143.803L70.2033 135.808L53.7496 145.527Z" fill="#191D71"/>
<path d="M67.2776 154.12L52.7197 145.526L70.1798 135.209L84.7378 143.803L67.2776 154.12Z" fill="#809CE4"/>
<path d="M67.2777 154.743L51.6899 145.55L70.1799 134.635L85.7676 143.827L67.2777 154.743ZM53.7496 145.527L67.2777 153.522L83.7314 143.803L70.2033 135.808L53.7496 145.527Z" fill="#191D71"/>
<path d="M67.2776 151.153L52.7197 142.559L70.1798 132.242L84.7378 140.836L67.2776 151.153Z" fill="#809CE4"/>
<path d="M67.2777 151.776L51.6899 142.584L70.1799 131.668L85.7676 140.86L67.2777 151.776ZM53.7496 142.56L67.2777 150.555L83.7314 140.836L70.2033 132.841L53.7496 142.56Z" fill="#191D71"/>
<path d="M67.2776 148.184L52.7197 139.591L70.1798 129.273L84.7378 137.867L67.2776 148.184Z" fill="#809CE4"/>
<path d="M67.2777 148.784L51.6899 139.592L70.1799 128.676L85.7676 137.868L67.2777 148.784ZM53.7496 139.592L67.2777 147.587L83.7314 137.868L70.2033 129.873L53.7496 139.592Z" fill="#191D71"/>
<path d="M67.2776 145.216L52.7197 136.622L70.1798 126.305L84.7378 134.898L67.2776 145.216Z" fill="#809CE4"/>
<path d="M67.2777 145.815L51.6899 136.623L70.1799 125.707L85.7676 134.899L67.2777 145.815ZM53.7496 136.623L67.2777 144.618L83.7314 134.899L70.2033 126.904L53.7496 136.623Z" fill="#191D71"/>
<path d="M67.2776 142.247L52.7197 133.653L70.1798 123.336L84.7378 131.93L67.2776 142.247Z" fill="#EEFF87"/>
<path d="M67.2777 142.846L51.6899 133.654L70.1799 122.738L85.7676 131.93L67.2777 142.846ZM53.7496 133.654L67.2777 141.649L83.7314 131.93L70.2033 123.935L53.7496 133.654Z" fill="#191D71"/>
<path d="M59.1797 125.994L68.9395 131.739L78.6527 126.161L68.9864 120.32L59.1797 125.994Z" fill="#809CE4"/>
<path d="M68.9396 132.361L58.1499 126.018L68.9864 119.746L79.6591 126.185L68.9396 132.361ZM60.2329 126.018L68.963 131.165L77.6229 126.161L68.9864 120.967L60.2329 126.018Z" fill="#191D71"/>
<path d="M60.8413 132.745L66.5521 136.097L72.2162 132.817L66.5756 129.418L60.8413 132.745Z" fill="#809CE4"/>
<path d="M66.5522 136.694L59.8115 132.721L66.5756 128.795L73.246 132.816L66.5522 136.694ZM61.8712 132.745L66.5522 135.498L71.2098 132.816L66.5756 130.016L61.8712 132.745Z" fill="#191D71"/>
<path d="M56.0665 95.7832C55.8793 95.7832 55.7389 95.9508 55.7623 96.1183L56.6751 105.502C56.6751 106.053 57.2134 106.627 58.29 106.89C58.8752 107.034 59.5071 107.034 60.0922 106.89C61.1688 106.627 61.7071 106.053 61.7071 105.502L62.62 96.1183C62.6434 95.9268 62.5029 95.7832 62.3157 95.7832H56.0665Z" fill="#809CE4"/>
<path d="M59.1796 107.56C58.8285 107.56 58.4774 107.512 58.1498 107.44C56.8859 107.129 56.1603 106.411 56.1603 105.525L55.2476 96.1894C55.2241 95.9501 55.2944 95.7107 55.4582 95.5431C55.622 95.3755 55.8326 95.2559 56.0667 95.2559H62.3158C62.5499 95.2559 62.7606 95.3516 62.9244 95.5431C63.0882 95.7107 63.1584 95.9501 63.135 96.1894L62.2222 105.573C62.2222 106.387 61.4732 107.105 60.2328 107.416C59.8817 107.512 59.5307 107.56 59.1796 107.56ZM56.3007 96.3091L57.1901 105.453C57.1901 105.789 57.5646 106.172 58.4072 106.387C58.9221 106.507 59.4604 106.507 59.9753 106.387C60.8179 106.172 61.1924 105.789 61.1924 105.501L62.0818 96.3091H56.3007Z" fill="#191D71"/>
<path d="M59.1798 97.8175C61.0929 97.8175 62.6437 96.9065 62.6437 95.7828C62.6437 94.659 61.0929 93.748 59.1798 93.748C57.2667 93.748 55.7158 94.659 55.7158 95.7828C55.7158 96.9065 57.2667 97.8175 59.1798 97.8175Z" fill="#EEFF87"/>
<path d="M59.1796 98.3687C58.1966 98.3687 57.2369 98.1533 56.4646 97.6984C55.6454 97.2197 55.2007 96.5494 55.2007 95.8074C55.2007 95.0653 55.6454 94.395 56.4646 93.9162C57.9859 93.0305 60.3498 93.0305 61.8711 93.9162C62.6903 94.395 63.135 95.0653 63.135 95.8074C63.135 96.5494 62.6903 97.2197 61.8711 97.6984C61.1456 98.1293 60.1626 98.3687 59.1796 98.3687ZM59.1796 94.2753C58.3838 94.2753 57.588 94.4429 56.9795 94.802C56.488 95.0892 56.2305 95.4483 56.2305 95.7834C56.2305 96.1186 56.5114 96.4776 56.9795 96.7649C58.1731 97.4591 60.1626 97.4591 61.3562 96.7649C61.8477 96.4776 62.1052 96.1186 62.1052 95.7834C62.1052 95.4483 61.8243 95.0653 61.3562 94.802C60.7945 94.4429 59.9987 94.2753 59.1796 94.2753Z" fill="#191D71"/>
<path d="M188.516 85.4438C188.516 85.4438 188.516 81.7813 188.516 81.4701C188.516 81.4462 188.492 81.4222 188.469 81.3983L180.417 82.1404C180.417 82.1404 180.418 82.1404 180.394 82.1404L179.645 77.5922C179.622 77.5682 179.598 77.5682 179.575 77.5922L172.155 81.9489C172.132 81.9489 172.132 81.9489 172.109 81.9489L170.681 81.5419C170.634 81.518 170.587 81.5659 170.587 81.6137C170.587 81.9728 170.587 85.4678 170.587 85.5157V85.5396C170.611 85.779 170.728 86.0184 170.962 86.162L178.428 90.5905C179.06 90.9735 179.856 90.9735 180.488 90.5905L188.071 86.138C188.375 85.9705 188.516 85.7311 188.516 85.4438Z" fill="#EEFF87"/>
<path d="M179.528 91.3809C179.083 91.3809 178.639 91.2612 178.241 91.0218L170.774 86.5933C170.423 86.3778 170.189 86.0188 170.143 85.564C170.143 85.5161 170.143 85.4921 170.143 82.4041V81.3508L170.377 81.1354C170.517 81.0157 170.704 80.9918 170.891 81.0397L172.132 81.3987L179.645 76.9941L180.183 77.2814L180.885 81.5902L188.562 80.896L188.656 80.92C188.913 80.9918 189.077 81.2312 189.077 81.4945V85.54C189.054 85.9709 188.82 86.3778 188.422 86.5933L180.839 91.0457C180.417 91.2612 179.973 91.3809 179.528 91.3809ZM171.149 82.2126V82.4041C171.149 83.5053 171.149 85.3725 171.149 85.4921C171.149 85.54 171.172 85.6358 171.289 85.6837L178.756 90.1122C179.224 90.3994 179.832 90.3994 180.3 90.1122L187.884 85.6597C188.001 85.5879 188.024 85.4921 188.024 85.4203V81.9493L180.394 82.6435L180.207 82.5717L179.973 82.452L179.317 78.3586L172.296 82.4759L172.038 82.4281L171.149 82.2126Z" fill="#191D71"/>
<path d="M188.469 81.4219L180.418 82.1639C180.418 82.1639 180.418 82.1639 180.394 82.1639L179.458 84.9647V90.8774C179.832 90.8774 180.207 90.8055 180.535 90.5901L188.118 86.1376C188.375 85.994 188.492 85.7307 188.516 85.4674V85.4434C188.516 85.4434 188.516 81.7809 188.516 81.4697C188.539 81.4458 188.516 81.4219 188.469 81.4219Z" fill="#191D71"/>
<path d="M179.528 91.3799C179.505 91.3799 179.481 91.3799 179.458 91.3799L178.966 91.356L178.99 84.773L180.137 81.3738L180.558 81.6132L188.539 80.8711L188.633 80.8951C188.89 80.9669 189.054 81.2062 189.054 81.4695V85.4433C189.03 85.946 188.796 86.3529 188.399 86.5923L180.815 91.0448C180.417 91.2602 179.973 91.3799 179.528 91.3799ZM179.973 85.0363V90.2788C180.09 90.2548 180.183 90.2069 180.3 90.1351L187.884 85.6827C188.001 85.6108 188.024 85.5151 188.024 85.4433V81.9723L180.792 82.6425L179.973 85.0363Z" fill="#191D71"/>
<path d="M171.781 82.5953C171.781 82.5953 171.898 82.2841 172.039 81.9011L170.728 81.5181C170.681 81.4941 170.634 81.542 170.634 81.5899C170.634 81.949 170.634 85.4439 170.634 85.4918V85.5157C170.658 85.7551 170.775 85.9945 171.009 86.1381L171.758 86.5929V84.4864V82.5953H171.781Z" fill="#191D71"/>
<path d="M172.296 87.4781L170.774 86.5684C170.423 86.353 170.189 85.9939 170.143 85.563C170.143 85.5152 170.143 85.4912 170.143 82.4032V81.3499L170.377 81.1345C170.517 81.0148 170.704 80.9909 170.891 81.0387L172.74 81.5654L172.553 82.092C172.46 82.3553 172.366 82.5947 172.343 82.7144L172.296 87.4781ZM171.149 82.1878V82.3793C171.149 83.4804 171.149 85.3476 171.149 85.4673C171.149 85.5151 171.172 85.587 171.266 85.6588L171.289 82.4272C171.289 82.4272 171.313 82.3553 171.36 82.2596L171.149 82.1878Z" fill="#191D71"/>
<path d="M178.545 86.6398L171.032 82.1874C170.494 81.8762 170.494 81.0862 171.032 80.775L178.639 76.2986C179.247 75.9395 180.02 75.9395 180.628 76.2986L188.141 80.7511C188.68 81.0623 188.68 81.8522 188.141 82.1634L180.535 86.6398C179.903 86.9989 179.154 86.9989 178.545 86.6398Z" fill="#809CE4"/>
<path d="M179.528 87.4305C179.083 87.4305 178.662 87.3108 178.264 87.0954L170.751 82.6429C170.353 82.4035 170.096 81.9727 170.096 81.4939C170.096 81.0151 170.33 80.5842 170.751 80.3449L178.358 75.8685C179.13 75.4136 180.09 75.4136 180.862 75.8685L188.375 80.3209C188.773 80.5603 189.03 80.9912 189.03 81.4699C189.03 81.9487 188.796 82.3796 188.375 82.619L180.768 87.0954C180.394 87.3108 179.973 87.4305 179.528 87.4305ZM179.645 76.5626C179.388 76.5626 179.13 76.6345 178.919 76.7542L171.313 81.2306C171.196 81.3024 171.172 81.4221 171.172 81.4699C171.172 81.5178 171.196 81.6375 171.313 81.7093L178.826 86.1618C179.27 86.4251 179.856 86.4251 180.3 86.1618L187.907 81.6854C188.024 81.6136 188.047 81.4939 188.047 81.446C188.047 81.3981 188.024 81.2784 187.907 81.2066L180.417 76.7542C180.136 76.6345 179.902 76.5626 179.645 76.5626Z" fill="#191D71"/>
<path d="M168.621 170.184L130.167 147.586C129.932 147.443 129.839 147.275 129.839 147.084V147.06L129.886 142.488C129.886 142.368 129.979 142.296 130.073 142.296L137.399 142.224C137.422 142.224 137.469 142.224 137.492 142.2L166.514 124.917C167.076 124.582 167.919 124.558 168.41 124.821L199.633 143.182C199.656 143.206 199.703 143.206 199.726 143.206L207.005 143.134C207.122 143.134 207.192 143.23 207.192 143.325L207.169 147.922C207.146 148.137 207.005 148.352 206.724 148.52L170.517 170.088C169.955 170.423 169.112 170.471 168.621 170.184Z" fill="#EEFF87"/>
<path d="M169.44 170.901C169.042 170.901 168.668 170.806 168.364 170.638L129.909 148.04C129.511 147.801 129.301 147.442 129.324 147.035L129.371 142.463C129.371 142.08 129.699 141.745 130.073 141.745L137.305 141.673L166.257 124.438C166.983 124.007 168.012 123.983 168.644 124.342L199.796 142.654L207.005 142.583C207.193 142.583 207.38 142.654 207.497 142.798C207.637 142.942 207.707 143.109 207.707 143.325L207.684 147.921C207.661 148.352 207.403 148.711 206.982 148.974L170.774 170.542C170.376 170.782 169.908 170.901 169.44 170.901ZM168.878 169.728C169.159 169.896 169.815 169.896 170.259 169.633L206.467 148.064C206.607 147.969 206.654 147.897 206.678 147.873L206.701 143.66L199.726 143.708C199.586 143.708 199.469 143.684 199.375 143.612L168.153 125.252C167.872 125.084 167.217 125.084 166.772 125.347L137.75 142.631C137.656 142.702 137.516 142.726 137.399 142.726L130.401 142.774L130.354 147.011C130.354 147.035 130.377 147.059 130.424 147.107L168.878 169.728Z" fill="#191D71"/>
<path d="M159.985 144.281C160.5 144.09 176.93 135.903 183.39 133.629C183.413 133.629 183.413 133.629 183.437 133.629L199.61 143.18C199.656 143.18 199.703 143.204 199.727 143.204L206.935 143.132C207.076 143.132 207.193 143.252 207.193 143.396L207.169 147.92C207.146 148.135 207.006 148.351 206.725 148.518L170.611 170.015C170.564 170.039 170.517 170.015 170.517 169.967L170.564 165.227L159.961 144.305C159.961 144.305 159.961 144.281 159.985 144.281Z" fill="#191D71"/>
<path d="M170.61 170.638L170.283 170.47C170.096 170.375 170.002 170.159 170.002 169.968L170.049 165.348L159.423 144.402L159.47 143.923L159.821 143.755C159.961 143.708 160.921 143.229 162.161 142.63C166.959 140.308 178.17 134.874 183.226 133.103L183.436 133.031L183.694 133.151L199.773 142.654L206.935 142.606C207.146 142.583 207.333 142.678 207.497 142.846C207.637 142.989 207.731 143.205 207.731 143.396L207.707 147.921C207.684 148.352 207.427 148.711 207.005 148.974L170.61 170.638ZM171.079 165.324L171.055 169.178L206.49 148.088C206.631 147.992 206.678 147.921 206.701 147.897L206.724 143.684L199.703 143.755L199.375 143.66L183.366 134.204C178.264 136.047 167.31 141.338 162.583 143.636C161.576 144.115 160.991 144.402 160.64 144.569L171.102 165.204L171.079 165.324Z" fill="#191D71"/>
<path d="M206.888 142.583L168.434 119.985C167.942 119.698 167.1 119.746 166.561 120.081L130.354 141.649C129.792 141.985 129.745 142.487 130.213 142.774L168.668 165.372C169.159 165.659 170.002 165.611 170.563 165.276L206.771 143.708C207.333 143.349 207.379 142.87 206.888 142.583Z" fill="#809CE4"/>
<path d="M169.487 166.041C169.089 166.041 168.714 165.946 168.41 165.778L129.956 143.18C129.581 142.965 129.371 142.63 129.371 142.247C129.371 141.816 129.628 141.433 130.096 141.17L166.304 119.602C167.029 119.171 168.059 119.123 168.691 119.506L207.145 142.103C207.52 142.319 207.731 142.654 207.731 143.037C207.731 143.468 207.473 143.851 207.028 144.114L170.821 165.682C170.423 165.922 169.955 166.041 169.487 166.041ZM130.424 142.247C130.424 142.247 130.447 142.271 130.494 142.271L168.948 164.868C169.229 165.036 169.885 165.036 170.329 164.773L206.537 143.204C206.654 143.133 206.701 143.061 206.724 143.037C206.724 143.037 206.701 143.013 206.654 143.013L168.2 120.415C167.919 120.248 167.263 120.248 166.819 120.511L130.611 142.079C130.494 142.151 130.447 142.223 130.424 142.247Z" fill="#191D71"/>
<path d="M132.437 144.458L132.298 149.172L133.327 149.204L133.466 144.49L132.437 144.458Z" fill="#191D71"/>
<path d="M148.376 169.56L133.865 160.943C133.631 160.799 133.537 160.632 133.537 160.44V160.416L133.584 155.844C133.584 155.724 133.678 155.652 133.771 155.652L141.097 155.581C141.12 155.581 141.167 155.581 141.191 155.557L138.733 156.993C139.295 156.658 140.137 156.634 140.629 156.897L147.908 161.278C147.931 161.302 147.978 161.302 148.001 161.302L155.28 161.23C155.397 161.23 155.468 161.326 155.468 161.421L155.444 166.018C155.421 166.233 155.28 166.448 155 166.616L150.272 169.465C149.687 169.824 148.844 169.848 148.376 169.56Z" fill="#EEFF87"/>
<path d="M149.172 170.279C148.774 170.279 148.399 170.184 148.095 170.016L133.584 161.398C133.186 161.183 132.975 160.8 132.999 160.417L133.046 155.845C133.046 155.462 133.373 155.126 133.748 155.126L141.074 155.055C141.027 155.055 140.956 155.079 140.933 155.103L141.448 156.012L140.793 156.395C140.816 156.419 140.839 156.419 140.863 156.443L148.072 160.8L155.28 160.728C155.468 160.728 155.655 160.8 155.772 160.943C155.912 161.087 155.982 161.255 155.982 161.47L155.959 166.066C155.936 166.497 155.678 166.856 155.257 167.119L150.529 169.968C150.131 170.16 149.64 170.279 149.172 170.279ZM148.633 169.106C148.938 169.274 149.57 169.274 150.014 169.011L154.742 166.162C154.882 166.066 154.953 165.994 154.953 165.97L154.976 161.757L148.001 161.805C147.884 161.805 147.767 161.781 147.65 161.709L140.348 157.329C140.067 157.161 139.435 157.161 139.014 157.401L138.991 157.425L138.476 156.515C138.499 156.515 138.499 156.491 138.522 156.491L139.178 156.108L134.099 156.156L134.052 160.393C134.052 160.417 134.075 160.441 134.122 160.465L148.633 169.106Z" fill="#191D71"/>
<path d="M148.821 161.23C148.844 161.23 155.21 161.23 155.21 161.23C155.351 161.23 155.468 161.35 155.468 161.494L155.444 166.018C155.421 166.234 155.281 166.449 155 166.617L150.366 169.417C150.319 169.441 150.272 169.417 150.272 169.369L150.319 164.63C149.734 163.122 148.821 161.23 148.821 161.23Z" fill="#191D71"/>
<path d="M150.342 170.04L150.014 169.896C149.827 169.801 149.734 169.609 149.734 169.394L149.78 164.726C149.242 163.289 148.376 161.518 148.353 161.494L148.095 160.967L148.634 160.776C148.727 160.728 148.727 160.728 155.21 160.752C155.444 160.752 155.608 160.824 155.749 160.991C155.889 161.159 155.983 161.35 155.983 161.542L155.959 166.066C155.936 166.497 155.678 166.856 155.257 167.12L150.342 170.04ZM150.81 164.75L150.787 168.556L154.742 166.162C154.883 166.066 154.953 165.994 154.953 165.971L154.976 161.757C153.595 161.757 150.974 161.757 149.663 161.757C149.991 162.452 150.459 163.505 150.81 164.438L150.88 164.63L150.81 164.75Z" fill="#191D71"/>
<path d="M155.163 160.656L140.652 152.038C140.161 151.751 139.318 151.799 138.756 152.134L134.028 154.983C133.467 155.318 133.42 155.82 133.888 156.108L148.399 164.725C148.891 165.013 149.733 164.965 150.295 164.63L155.023 161.781C155.584 161.446 155.631 160.943 155.163 160.656Z" fill="#809CE4"/>
<path d="M149.218 165.444C148.82 165.444 148.446 165.348 148.142 165.18L133.631 156.563C133.256 156.347 133.045 156.012 133.045 155.629C133.045 155.198 133.303 154.815 133.771 154.552L138.499 151.703C139.224 151.272 140.254 151.224 140.909 151.607L155.421 160.225C155.795 160.441 156.006 160.776 156.006 161.159C156.006 161.59 155.748 161.973 155.304 162.236L150.576 165.084C150.154 165.324 149.686 165.444 149.218 165.444ZM134.075 155.605C134.075 155.605 134.099 155.629 134.145 155.629L148.657 164.247C148.937 164.414 149.593 164.414 150.014 164.151L154.742 161.302C154.859 161.23 154.929 161.159 154.929 161.135C154.929 161.135 154.906 161.111 154.859 161.111L140.348 152.493C140.067 152.325 139.412 152.326 138.99 152.589L134.262 155.437C134.169 155.509 134.099 155.581 134.075 155.605Z" fill="#191D71"/>
<path d="M136.093 157.831L135.955 162.545L136.984 162.577L137.123 157.863L136.093 157.831Z" fill="#191D71"/>
<path d="M150.994 164.326L150.934 168.443L151.73 168.455L151.789 164.338L150.994 164.326Z" fill="#EEFF87"/>
<path d="M159.072 140.908L136.486 127.479C136.252 127.335 136.158 127.168 136.158 126.976V126.952L136.205 122.38C136.205 122.261 136.299 122.189 136.392 122.189L151.629 117.473C151.652 117.473 151.699 117.473 151.723 117.449L158.885 113.308C159.446 112.973 160.289 112.949 160.757 113.212L176.111 122.404C176.134 122.428 176.181 122.428 176.204 122.428L183.483 122.356C183.6 122.356 183.67 122.452 183.67 122.548L183.647 127.144C183.624 127.359 183.483 127.575 183.202 127.742L160.944 140.813C160.406 141.148 159.563 141.172 159.072 140.908Z" fill="#EEFF87"/>
<path d="M159.891 141.602C159.493 141.602 159.119 141.506 158.814 141.338L136.228 127.909C135.831 127.694 135.62 127.311 135.643 126.928L135.69 122.356C135.69 121.996 135.948 121.685 136.299 121.637L151.535 116.922L158.627 112.828C159.353 112.397 160.383 112.373 161.014 112.732L176.298 121.877L183.507 121.805C183.694 121.805 183.881 121.877 183.998 122.02C184.139 122.164 184.209 122.332 184.209 122.547L184.185 127.143C184.162 127.574 183.904 127.933 183.483 128.196L161.225 141.267C160.827 141.506 160.359 141.602 159.891 141.602ZM159.329 140.453C159.634 140.62 160.265 140.62 160.71 140.357L182.968 127.287C183.109 127.191 183.156 127.119 183.179 127.095L183.202 122.882L176.228 122.93C176.064 122.93 175.97 122.906 175.877 122.834L160.523 113.642C160.242 113.475 159.587 113.475 159.165 113.738L152.004 117.879C151.933 117.927 151.84 117.951 151.746 117.975L136.72 122.619L136.673 126.928C136.673 126.952 136.697 126.976 136.743 127.023L159.329 140.453Z" fill="#191D71"/>
<path d="M177.047 122.354C177.07 122.354 183.436 122.354 183.436 122.354C183.577 122.354 183.694 122.473 183.694 122.617L183.67 127.141C183.647 127.357 183.506 127.572 183.225 127.74L161.061 140.762C161.014 140.786 160.967 140.762 160.967 140.714L161.014 135.974C160.452 134.442 177.047 122.354 177.047 122.354Z" fill="#191D71"/>
<path d="M161.038 141.361L160.71 141.217C160.546 141.122 160.429 140.93 160.429 140.715L160.476 136.047C160.336 135.496 160.64 134.371 168.504 128.195C172.553 125.011 176.719 121.971 176.766 121.947L176.883 121.875C176.977 121.852 176.977 121.852 183.436 121.852C183.647 121.852 183.834 121.923 183.975 122.091C184.115 122.235 184.209 122.45 184.209 122.641L184.185 127.166C184.162 127.597 183.904 127.956 183.483 128.219L161.038 141.361ZM161.506 136.119L161.482 139.901L182.968 127.285C183.109 127.19 183.155 127.118 183.179 127.094L183.202 122.881C181.517 122.881 178.006 122.881 177.234 122.881C169.791 128.315 161.974 134.563 161.529 135.855L161.599 136.023L161.506 136.119Z" fill="#191D71"/>
<path d="M183.39 121.78L160.804 108.351C160.312 108.063 159.47 108.111 158.908 108.446L136.65 121.517C136.088 121.852 136.041 122.354 136.51 122.642L159.095 136.071C159.587 136.358 160.429 136.31 160.991 135.975L183.249 122.905C183.811 122.57 183.881 122.067 183.39 121.78Z" fill="#809CE4"/>
<path d="M159.937 136.766C159.54 136.766 159.165 136.67 158.861 136.502L136.275 123.073C135.901 122.858 135.69 122.523 135.69 122.14C135.69 121.709 135.947 121.326 136.415 121.062L158.674 107.992C159.399 107.561 160.429 107.537 161.061 107.897L183.647 121.326C184.021 121.541 184.232 121.876 184.232 122.259C184.232 122.69 183.974 123.073 183.506 123.337L161.248 136.407C160.874 136.646 160.382 136.766 159.937 136.766ZM136.72 122.14C136.72 122.14 136.743 122.164 136.79 122.164L159.376 135.593C159.657 135.76 160.312 135.76 160.733 135.497L182.991 122.427C183.108 122.355 183.155 122.283 183.179 122.259C183.179 122.259 183.155 122.235 183.108 122.235L160.523 108.806C160.242 108.639 159.586 108.639 159.165 108.902L136.907 121.972C136.813 122.02 136.743 122.092 136.72 122.14Z" fill="#191D71"/>
<path d="M138.757 124.359L138.618 129.072L139.647 129.104L139.786 124.391L138.757 124.359Z" fill="#191D71"/>
<path d="M179.213 125.436L179.155 129.553L179.95 129.565L180.009 125.448L179.213 125.436Z" fill="#EEFF87"/>
<path d="M201.88 158.861L187.369 150.243C187.135 150.1 187.041 149.932 187.041 149.741V149.717L187.088 145.144C187.088 145.025 187.181 144.953 187.275 144.953L194.601 144.881C194.624 144.881 194.671 144.881 194.694 144.857L201.856 140.716C202.418 140.381 203.261 140.357 203.752 140.62L211.055 145.001C211.078 145.025 211.125 145.025 211.148 145.025L218.427 144.953C218.544 144.953 218.614 145.049 218.614 145.144L218.591 149.741C218.568 149.956 218.427 150.171 218.146 150.339L203.799 158.765C203.214 159.1 202.371 159.148 201.88 158.861Z" fill="#EEFF87"/>
<path d="M202.699 159.578C202.301 159.578 201.927 159.483 201.622 159.315L187.111 150.697C186.713 150.458 186.503 150.099 186.526 149.692L186.573 145.12C186.573 144.737 186.901 144.402 187.275 144.402L194.507 144.33L201.599 140.236C202.325 139.806 203.331 139.782 203.986 140.141L211.195 144.473L218.404 144.402C218.614 144.402 218.778 144.473 218.919 144.617C219.059 144.761 219.129 144.928 219.129 145.144L219.106 149.74C219.083 150.171 218.825 150.53 218.404 150.793L204.057 159.219C203.635 159.459 203.167 159.578 202.699 159.578ZM202.137 158.405C202.442 158.573 203.073 158.573 203.518 158.31L217.865 149.883C218.006 149.788 218.053 149.716 218.076 149.692L218.1 145.479L211.125 145.527C211.008 145.527 210.891 145.503 210.774 145.431L203.471 141.05C203.191 140.883 202.535 140.883 202.114 141.146L194.952 145.287C194.858 145.359 194.741 145.383 194.601 145.383L187.603 145.431L187.556 149.668C187.556 149.692 187.579 149.716 187.626 149.764L202.137 158.405Z" fill="#191D71"/>
<path d="M211.944 144.977C211.968 144.977 218.334 144.977 218.334 144.977C218.474 144.977 218.591 145.096 218.591 145.24L218.568 149.764C218.544 149.98 218.404 150.195 218.123 150.363L203.87 158.717C203.823 158.741 203.776 158.717 203.776 158.669L203.823 153.929C203.261 152.421 211.944 144.977 211.944 144.977Z" fill="#191D71"/>
<path d="M203.846 159.34L203.542 159.196C203.354 159.101 203.261 158.885 203.261 158.694L203.308 153.978C203.097 152.207 208.386 147.395 211.64 144.594L211.804 144.499C211.897 144.475 211.897 144.475 218.357 144.475C218.521 144.475 218.755 144.546 218.895 144.714C219.036 144.858 219.129 145.073 219.129 145.265L219.106 149.789C219.083 150.22 218.825 150.579 218.404 150.842L203.846 159.34ZM204.314 154.074L204.291 157.856L217.865 149.885C218.006 149.789 218.053 149.717 218.076 149.693L218.1 145.48C216.414 145.48 212.974 145.48 212.155 145.48C208.316 148.783 204.267 152.829 204.314 153.739L204.384 153.954L204.314 154.074Z" fill="#191D71"/>
<path d="M218.286 144.402L203.775 135.784C203.284 135.497 202.441 135.545 201.903 135.88L187.556 144.306C186.994 144.641 186.947 145.144 187.415 145.431L201.926 154.049C202.418 154.336 203.26 154.288 203.822 153.953L218.17 145.527C218.708 145.192 218.778 144.689 218.286 144.402Z" fill="#809CE4"/>
<path d="M202.746 154.744C202.348 154.744 201.973 154.648 201.669 154.481L187.158 145.863C186.783 145.647 186.573 145.312 186.573 144.929C186.573 144.498 186.83 144.115 187.298 143.852L201.646 135.426C202.371 134.995 203.401 134.971 204.033 135.33L218.544 143.948C218.918 144.163 219.129 144.498 219.129 144.881C219.129 145.312 218.872 145.695 218.427 145.959L204.08 154.385C203.682 154.624 203.19 154.744 202.746 154.744ZM187.603 144.905C187.603 144.905 187.626 144.929 187.673 144.929L202.184 153.547C202.465 153.715 203.12 153.715 203.541 153.451L217.889 145.025C218.006 144.953 218.053 144.881 218.076 144.857C218.076 144.857 218.052 144.834 218.006 144.834L203.495 136.216C203.214 136.048 202.558 136.048 202.137 136.312L187.79 144.738C187.673 144.81 187.626 144.881 187.603 144.905Z" fill="#191D71"/>
<path d="M189.696 147.026L189.558 151.74L190.588 151.772L190.725 147.058L189.696 147.026Z" fill="#191D71"/>
<path d="M214.112 148.049L214.052 152.166L214.848 152.178L214.908 148.061L214.112 148.049Z" fill="#EEFF87"/>
<path d="M210.54 131.907L206.748 129.537C206.514 129.393 206.303 129.393 206.163 129.513C206.163 129.513 206.14 129.513 206.14 129.537L202.301 131.859C202.208 131.907 202.184 132.026 202.231 132.122L205.859 138.633C205.882 138.657 205.882 138.705 205.882 138.729V139.447C205.882 140.117 206.28 140.859 206.748 141.147L203.331 139.256C203.354 139.279 203.378 139.303 203.401 139.327L207.006 145.791C207.052 145.886 207.169 145.91 207.263 145.862L211.125 143.516C211.289 143.397 211.406 143.157 211.406 142.822V133.582C211.406 132.96 211.008 132.194 210.54 131.907Z" fill="#809CE4"/>
<path d="M207.169 146.437C207.099 146.437 207.052 146.437 206.982 146.413C206.795 146.366 206.631 146.246 206.537 146.078L202.933 139.615C202.956 139.663 203.003 139.711 203.05 139.735L203.541 138.825L205.367 139.83C205.344 139.711 205.344 139.591 205.344 139.471V138.849L201.763 132.434C201.575 132.098 201.693 131.644 202.02 131.452L205.859 129.106C206.186 128.867 206.608 128.891 207.005 129.106L210.797 131.476C211.429 131.859 211.921 132.793 211.921 133.631V142.871C211.921 143.373 211.733 143.78 211.429 143.996L207.544 146.342C207.427 146.389 207.31 146.437 207.169 146.437ZM204.688 140.62L207.286 145.264L210.867 143.11C210.844 143.11 210.891 143.038 210.891 142.871V133.631C210.891 133.128 210.563 132.553 210.282 132.386L206.491 130.016C206.444 129.992 206.42 129.992 206.42 129.992L202.839 132.17L206.303 138.394C206.373 138.514 206.397 138.634 206.397 138.753V139.471C206.397 139.974 206.725 140.549 207.005 140.716L206.514 141.626L204.688 140.62Z" fill="#191D71"/>
<path d="M203.167 137.892C203.167 137.892 204.571 129.466 205.952 136.624L203.307 139.233C203.33 139.257 203.377 139.305 203.401 139.329L206.982 145.744C207.052 145.864 207.216 145.912 207.333 145.84L211.148 143.542C211.311 143.422 211.428 143.183 211.428 142.848V133.727C211.428 133.679 211.382 133.655 211.335 133.679L207.356 136.097L203.167 137.892Z" fill="#191D71"/>
<path d="M207.192 146.414C207.122 146.414 207.052 146.414 207.005 146.39C206.794 146.342 206.631 146.199 206.537 146.031L202.956 139.64L202.581 139.257L203.518 138.347L202.511 138.778L202.675 137.82C203.19 134.78 203.869 133.248 204.758 133.224C205.507 133.224 205.928 133.99 206.35 135.953L207.122 135.618L211.312 133.057L211.639 133.2C211.826 133.296 211.92 133.488 211.92 133.703V142.823C211.92 143.326 211.733 143.733 211.429 143.948L207.59 146.27C207.473 146.366 207.333 146.414 207.192 146.414ZM203.986 139.328L207.309 145.265L210.89 143.111C210.867 143.111 210.914 143.039 210.914 142.871V134.565L207.614 136.576L206.186 137.198L203.986 139.328ZM204.735 134.349C204.477 134.708 204.126 135.786 203.845 137.03L205.367 136.36C205.086 135.044 204.852 134.541 204.735 134.349Z" fill="#191D71"/>
<path d="M206.467 145.983L202.675 143.613C202.184 143.326 201.809 142.56 201.809 141.914V132.674C201.809 132.003 202.207 131.716 202.675 132.003L206.467 134.373C206.958 134.661 207.333 135.427 207.333 136.073V145.313C207.333 145.983 206.935 146.271 206.467 145.983Z" fill="#EEFF87"/>
<path d="M206.818 146.629C206.631 146.629 206.42 146.581 206.21 146.462L202.418 144.092C201.786 143.709 201.294 142.799 201.294 141.937V132.697C201.294 132.147 201.505 131.74 201.856 131.524C202.184 131.333 202.582 131.357 202.933 131.572L206.748 133.942C207.38 134.325 207.871 135.235 207.871 136.097V145.337C207.871 145.887 207.661 146.294 207.31 146.51C207.146 146.581 206.982 146.629 206.818 146.629ZM206.724 145.552C206.771 145.576 206.795 145.576 206.795 145.576C206.771 145.576 206.818 145.48 206.818 145.313V136.073C206.818 135.57 206.49 134.995 206.21 134.828L202.394 132.458C202.348 132.434 202.324 132.434 202.324 132.434C202.348 132.434 202.301 132.53 202.301 132.697V141.937C202.301 142.44 202.629 143.015 202.909 143.182L206.724 145.552Z" fill="#191D71"/>
<path d="M209.074 130.699L205.16 133.191L205.705 134.085L209.618 131.593L209.074 130.699Z" fill="#191D71"/>
<path d="M210.977 138.39L207.527 140.514L207.938 141.211L211.387 139.088L210.977 138.39Z" fill="#EEFF87"/>
<path d="M36.7342 122.57C36.3598 122.57 36.0555 122.905 36.0789 123.312L37.9981 133.199C37.9981 134.396 39.1215 135.569 41.3918 136.143C42.6323 136.454 43.9664 136.454 45.2068 136.143C47.4771 135.569 48.6005 134.396 48.6005 133.199L50.5198 123.312C50.5666 122.929 50.2623 122.57 49.8644 122.57H36.7342Z" fill="#EEFF87"/>
<path d="M43.311 136.91C42.6323 136.91 41.9535 136.814 41.2748 136.647C38.9577 136.072 37.5299 134.756 37.4831 133.247L35.564 123.409C35.5171 123.026 35.6342 122.691 35.8448 122.451C36.0555 122.212 36.3831 122.068 36.7108 122.068H49.8644C50.1921 122.068 50.4963 122.212 50.7304 122.451C50.941 122.691 51.058 123.026 51.0346 123.361L49.1154 133.247C49.092 134.756 47.6409 136.072 45.3238 136.647C44.6919 136.814 43.9898 136.91 43.311 136.91ZM36.7342 123.098C36.6874 123.098 36.6406 123.122 36.6406 123.146C36.6172 123.17 36.5938 123.193 36.5938 123.265L38.5129 133.2C38.5129 134.205 39.6832 135.162 41.5088 135.641C42.679 135.928 43.9195 135.928 45.0897 135.641C46.9153 135.186 48.0857 134.229 48.0857 133.2V133.104L50.0048 123.217C50.0048 123.217 49.9814 123.169 49.958 123.169C49.9346 123.146 49.9112 123.122 49.8644 123.122H36.7342V123.098Z" fill="#191D71"/>
<path d="M49.8878 122.619H46.4472L44.7386 126.856L44.2939 136.36C44.5982 136.312 44.9025 136.264 45.2068 136.192C47.4771 135.617 48.6005 134.445 48.6005 133.248L50.5197 123.361C50.5899 122.954 50.2857 122.619 49.8878 122.619Z" fill="#191D71"/>
<path d="M43.7559 136.933L44.2708 126.64L46.1197 122.092H49.9114C50.2391 122.092 50.5433 122.235 50.7774 122.475C50.988 122.714 51.105 123.049 51.0816 123.384L49.1624 133.271C49.139 134.779 47.6879 136.096 45.3708 136.67C45.0665 136.742 44.7388 136.814 44.3878 136.862L43.7559 136.933ZM45.2537 126.951L44.8325 135.713C44.9261 135.689 44.9963 135.665 45.0899 135.665C46.9155 135.21 48.0858 134.252 48.0858 133.223V133.127L50.005 123.241C50.005 123.241 49.9816 123.193 49.9582 123.193C49.9348 123.169 49.9113 123.145 49.8645 123.145H46.7517L45.2537 126.951Z" fill="#191D71"/>
<path d="M48.4832 119.53C51.3386 121.206 51.3386 123.935 48.4832 125.634C45.6278 127.31 41.017 127.31 38.1616 125.634C35.3062 123.959 35.3062 121.23 38.1616 119.53C40.9936 117.855 45.6278 117.855 48.4832 119.53Z" fill="#EEFF87"/>
<path d="M43.3109 127.407C41.3449 127.407 39.3789 126.976 37.8809 126.09C36.3362 125.18 35.4937 123.936 35.4937 122.595C35.4937 121.254 36.3362 120.01 37.8809 119.1C40.8768 117.329 45.7216 117.329 48.7175 119.1C50.2622 120.01 51.1048 121.254 51.1048 122.595C51.1048 123.936 50.2622 125.18 48.7175 126.09C47.243 126.952 45.2769 127.407 43.3109 127.407ZM43.3109 118.789C41.5321 118.789 39.7533 119.196 38.3959 119.986C37.1788 120.704 36.5235 121.614 36.5235 122.571C36.5235 123.529 37.2022 124.438 38.3959 125.156C41.0874 126.76 45.511 126.76 48.2026 125.156C49.4196 124.438 50.0749 123.529 50.0749 122.571C50.0749 121.614 49.3962 120.704 48.2026 119.986C46.8685 119.196 45.0897 118.789 43.3109 118.789Z" fill="#191D71"/>
<path d="M41.1813 118.406C40.0812 118.598 39.028 118.933 38.1386 119.46C35.2832 121.135 35.2832 123.864 38.1386 125.564C39.2387 126.21 40.5727 126.593 41.977 126.761L41.1813 118.406Z" fill="#191D71"/>
<path d="M42.5619 127.334L41.93 127.262C40.3853 127.095 38.981 126.664 37.8809 126.017C36.3362 125.108 35.4937 123.863 35.4937 122.522C35.4937 121.182 36.3362 119.937 37.8809 119.027C38.7469 118.501 39.8469 118.142 41.0874 117.902L41.6258 117.807L42.5619 127.334ZM40.7364 119.027C39.8236 119.243 39.0512 119.53 38.3959 119.913C37.1788 120.631 36.5235 121.541 36.5235 122.498C36.5235 123.456 37.2022 124.366 38.3959 125.084C39.2384 125.586 40.2683 125.922 41.4151 126.113L40.7364 119.027Z" fill="#191D71"/>
<path d="M39.1448 123.217L41.5321 122.14C41.8598 121.996 42.047 121.661 42.047 121.326C42.047 120.751 42.5619 120.32 43.1237 120.44L45.1365 120.895C45.4876 120.967 45.7451 121.254 45.8153 121.613L46.0493 122.906C46.1195 123.265 46.4004 123.576 46.7515 123.624L47.3132 123.72C47.7345 123.791 48.0387 124.174 48.0387 124.605V124.797C48.0387 125.18 47.8281 125.491 47.477 125.635C46.1429 126.161 42.6556 127.167 39.0044 124.821C38.4427 124.414 38.5129 123.504 39.1448 123.217Z" fill="#809CE4"/>
<path d="M44.0129 126.807C42.4681 126.807 40.6426 126.448 38.7936 125.251C38.3489 124.964 38.0915 124.461 38.1383 123.935C38.1851 123.408 38.4893 122.953 38.9574 122.738L41.3447 121.661C41.4852 121.589 41.5554 121.469 41.5554 121.325C41.5554 120.895 41.7426 120.488 42.0703 120.224C42.398 119.961 42.8427 119.841 43.2405 119.937L45.2533 120.392C45.7917 120.512 46.213 120.966 46.33 121.517L46.564 122.81C46.5874 122.953 46.7045 123.073 46.8683 123.121L47.43 123.217C48.0853 123.336 48.5769 123.935 48.5769 124.629V124.82C48.5769 125.419 48.2258 125.945 47.6875 126.137C46.9853 126.4 45.6512 126.807 44.0129 126.807ZM42.9597 120.919C42.8427 120.919 42.7724 120.966 42.7256 120.99C42.6788 121.038 42.5852 121.134 42.5852 121.278C42.5852 121.852 42.2575 122.355 41.766 122.57L39.3787 123.647C39.1915 123.719 39.168 123.887 39.168 123.959C39.168 124.03 39.1681 124.198 39.3553 124.318C42.7958 126.52 46.0959 125.586 47.3598 125.084C47.5002 125.036 47.5938 124.892 47.5938 124.725V124.533C47.5938 124.342 47.4768 124.198 47.2896 124.174L46.7279 124.078C46.1661 123.983 45.698 123.504 45.6044 122.929L45.3704 121.637C45.347 121.493 45.2299 121.373 45.0895 121.349L43.0767 120.895C43.0065 120.918 42.9831 120.919 42.9597 120.919Z" fill="#191D71"/>
<path d="M43.1232 121.972C43.1232 122.834 42.4445 123.528 41.6019 123.528C40.7593 123.528 40.0806 122.834 40.0806 121.972C40.0806 121.11 40.7593 120.416 41.6019 120.416C42.4445 120.416 43.1232 121.11 43.1232 121.972Z" fill="#809CE4"/>
<path d="M41.6021 124.03C40.4787 124.03 39.5659 123.097 39.5659 121.948C39.5659 120.799 40.4787 119.865 41.6021 119.865C42.7256 119.865 43.6384 120.799 43.6384 121.948C43.615 123.121 42.7256 124.03 41.6021 124.03ZM41.6021 120.942C41.0404 120.942 40.5957 121.397 40.5957 121.972C40.5957 122.546 41.0404 123.001 41.6021 123.001C42.1639 123.001 42.6085 122.546 42.6085 121.972C42.6085 121.397 42.1405 120.942 41.6021 120.942Z" fill="#191D71"/>
<path d="M49.2091 123.527C49.2091 124.389 48.5304 125.107 47.6644 125.107C46.8218 125.107 46.1196 124.413 46.1196 123.527C46.1196 122.665 46.7984 121.947 47.6644 121.947C48.5304 121.971 49.2091 122.665 49.2091 123.527Z" fill="#809CE4"/>
<path d="M47.6876 125.634C46.5641 125.634 45.6279 124.701 45.6279 123.552C45.6279 122.403 46.5407 121.445 47.6876 121.445C48.811 121.445 49.7472 122.379 49.7472 123.552C49.7238 124.701 48.811 125.634 47.6876 125.634ZM47.6876 122.499C47.1259 122.499 46.6578 122.977 46.6578 123.552C46.6578 124.126 47.1259 124.605 47.6876 124.605C48.2493 124.605 48.7174 124.126 48.7174 123.552C48.694 122.953 48.2493 122.499 47.6876 122.499Z" fill="#191D71"/>
<path d="M114.527 47.4082C115.604 51.2861 117.991 58.3478 121.853 62.8482C122.344 63.3988 122.227 64.2606 121.595 64.6675C119.232 66.1995 113.755 69.0721 109.027 66.008C104.299 62.944 109.565 52.1 112.327 47.1209C112.865 46.1874 114.246 46.3549 114.527 47.4082Z" fill="#809CE4"/>
<path d="M113.685 67.8755C112.07 67.8755 110.385 67.4925 108.77 66.4632C103.808 63.2555 108.606 52.8185 111.883 46.8818C112.234 46.2594 112.866 45.9243 113.568 46.0201C114.27 46.1158 114.808 46.5946 114.995 47.2649C116.049 51.0471 118.413 58.0848 122.228 62.5134C122.555 62.8964 122.719 63.3991 122.649 63.9018C122.579 64.4045 122.298 64.8354 121.876 65.1226C120.355 66.128 117.149 67.8755 113.685 67.8755ZM113.38 47.0494C113.24 47.0494 112.959 47.0973 112.795 47.4085C110.291 51.9328 104.931 62.7528 109.331 65.6014C113.849 68.5218 119.232 65.6253 121.338 64.2609C121.502 64.1412 121.619 63.9736 121.642 63.7821C121.666 63.5906 121.619 63.3751 121.479 63.2315C117.523 58.6593 115.112 51.454 114.036 47.5761C113.919 47.1691 113.568 47.0973 113.474 47.0733C113.451 47.0494 113.427 47.0494 113.38 47.0494Z" fill="#191D71"/>
<path d="M144.837 5.10936L138.143 0.609001C137.699 0.345682 135.99 0.776578 135.85 1.51866L138.026 15.0436C137.886 15.7618 138.097 16.5278 138.518 16.7911L141.818 18.8498C142.239 19.1131 142.731 18.754 142.895 18.0119L145.329 6.85683C145.469 6.18656 145.258 5.37268 144.837 5.10936Z" fill="#191D71"/>
<path d="M142.122 19.4723C141.935 19.4723 141.747 19.4244 141.56 19.3047L138.26 17.246C137.675 16.887 137.347 15.9294 137.511 15.0198L135.334 1.49482L135.358 1.39905C135.452 0.944224 135.826 0.561236 136.435 0.297918C136.879 0.106414 137.862 -0.180873 138.424 0.154259L145.118 4.65462C145.726 5.03763 146.054 6.04303 145.843 6.97661L143.409 18.1317C143.269 18.7302 142.965 19.185 142.543 19.3765C142.403 19.4483 142.262 19.4723 142.122 19.4723ZM136.364 1.59056L138.541 15.0677L138.518 15.1634C138.401 15.714 138.588 16.2406 138.775 16.3603L142.075 18.419C142.099 18.4429 142.286 18.2993 142.379 17.9163L144.814 6.76118C144.931 6.18666 144.743 5.66 144.556 5.54031H144.533L137.839 1.03999C137.722 1.01605 137.113 1.08784 136.645 1.35116C136.505 1.47085 136.411 1.54268 136.364 1.59056Z" fill="#191D71"/>
<path d="M143.48 5.56413L136.786 1.06377C136.341 0.800453 135.873 1.18348 135.709 1.90162L133.369 13.0807C133.228 13.7988 133.439 14.5648 133.86 14.8281L140.46 19.2806C140.882 19.5439 141.373 19.1849 141.537 18.4667L143.971 7.3116C144.135 6.61739 143.901 5.82745 143.48 5.56413Z" fill="#809CE4"/>
<path d="M140.764 19.9264C140.577 19.9264 140.39 19.8786 140.203 19.7589L133.579 15.3064C132.994 14.9473 132.666 13.9419 132.854 13.0084L135.194 1.82931C135.311 1.23086 135.639 0.752087 136.06 0.584521C136.388 0.440893 136.715 0.464828 137.02 0.656332L143.713 5.15669C144.322 5.5397 144.65 6.5451 144.439 7.47868L142.005 18.6338C141.864 19.2322 141.56 19.6871 141.139 19.8786C141.045 19.9025 140.905 19.9264 140.764 19.9264ZM136.505 1.5181C136.458 1.5181 136.294 1.66175 136.224 2.02082L133.883 13.1999C133.766 13.7504 133.954 14.2771 134.141 14.3968L140.764 18.8492C140.811 18.8492 140.975 18.7056 141.045 18.3465L143.479 7.1914C143.596 6.61689 143.409 6.09027 143.222 5.97058H143.199L136.505 1.5181Z" fill="#191D71"/>
<path d="M137.581 15.3306L135.967 14.3012C135.381 13.9182 135.077 13.2001 135.218 12.4819L137.067 3.91211L138.073 4.12754L136.224 12.6974C136.177 12.9607 136.271 13.248 136.505 13.3916L138.12 14.4209L137.581 15.3306Z" fill="#191D71"/>
<path d="M89.999 107.374C89.999 107.374 88.8053 106.608 88.5713 111.802C88.5713 111.802 91.1692 114.316 93.5331 113.095C96.7864 111.395 100.297 106.033 100.297 106.033C100.297 106.033 101.116 104.956 99.4077 104.142C97.7226 103.328 92.3862 105.746 92.3862 105.746L89.999 107.374Z" fill="#EEFF87"/>
<path d="M92.1286 113.956C90.069 113.956 88.3136 112.28 88.2199 112.185L88.0562 112.017V111.778C88.22 107.995 88.8987 107.205 89.3902 106.918C89.554 106.822 89.7413 106.798 89.8817 106.798L92.1754 105.243C92.7371 104.979 97.7692 102.753 99.6182 103.639C100.367 103.998 100.812 104.477 100.952 105.027C101.116 105.721 100.742 106.272 100.695 106.32C100.578 106.511 97.0905 111.778 93.7436 113.525C93.2286 113.836 92.6669 113.956 92.1286 113.956ZM89.1093 111.562C89.6945 112.041 91.6137 113.477 93.2989 112.615C96.4117 110.988 99.8522 105.793 99.8757 105.745C99.8991 105.721 100.016 105.53 99.9693 105.314C99.8991 105.075 99.6416 104.836 99.1969 104.62C98.1203 104.117 94.6329 105.314 92.6435 106.224L90.0222 108.019L89.8583 107.9C89.7179 108.043 89.2498 108.714 89.1093 111.562Z" fill="#191D71"/>
<path d="M106.57 118.551C106.57 118.551 105.399 120.418 105.446 123.434C105.446 123.434 107.085 126.594 112.046 123.769C112.444 123.554 112.866 123.386 113.287 123.218C114.598 122.764 117.43 121.447 118.179 118.551C119.138 114.72 111.485 118.239 111.485 118.239L106.57 118.551Z" fill="#EEFF87"/>
<path d="M108.348 125.469C107.903 125.469 107.482 125.397 107.061 125.277C105.586 124.823 105.001 123.721 104.978 123.674L104.931 123.554V123.434C104.884 120.298 106.078 118.335 106.125 118.264L106.265 118.048L111.344 117.713C112.397 117.234 116.727 115.415 118.225 116.708C118.576 116.995 118.927 117.593 118.646 118.694C117.851 121.878 114.738 123.267 113.427 123.721C112.936 123.889 112.584 124.057 112.257 124.224C110.829 125.062 109.518 125.469 108.348 125.469ZM105.937 123.291C106.242 123.745 107.81 125.589 111.789 123.315C112.163 123.099 112.561 122.932 113.123 122.74C114.27 122.333 116.985 121.112 117.663 118.431C117.78 117.976 117.757 117.665 117.57 117.522C116.797 116.851 113.661 117.833 111.672 118.718L111.484 118.766L106.85 119.077C106.593 119.604 105.937 121.136 105.937 123.291Z" fill="#191D71"/>
<path d="M103.386 77.4501C103.386 77.4501 102.52 86.5465 99.1964 92.7704C99.1964 92.7704 97.2539 100.766 96.6921 106.87C96.6687 107.229 96.5283 107.564 96.2942 107.827C95.5687 108.689 93.6729 110.245 90.1621 108.689C89.46 108.378 88.9451 107.756 88.711 107.037C88.5706 106.535 88.5472 106.008 88.6876 105.505L91.3792 96.6005C91.3792 96.6005 92.1516 90.0654 93.158 85.7805C94.1644 81.4956 91.2387 72.6624 93.4154 64.0448C95.6155 55.4271 97.6049 53.8711 97.6049 53.8711L104.884 68.4733L103.386 77.4501Z" fill="#191D71"/>
<path d="M92.9475 109.887C92.1049 109.887 91.0985 109.695 89.9517 109.169C89.1325 108.81 88.5005 108.068 88.2196 107.182C88.0324 106.584 88.0325 105.961 88.1963 105.363L90.8879 96.4817C90.9581 95.8832 91.7304 89.7072 92.69 85.6617C93.0879 84.01 92.8305 81.5443 92.573 78.6718C92.1517 74.4108 91.6368 69.1205 92.9709 63.926C95.1943 55.2365 97.254 53.5369 97.3477 53.465L97.8391 53.082L105.469 68.4024L103.948 77.5228C103.901 78.1212 102.988 86.7868 99.7115 92.9628C99.5243 93.7288 97.7689 101.221 97.2306 106.919C97.1838 107.397 96.9965 107.828 96.7157 108.187C96.154 108.786 94.9369 109.887 92.9475 109.887ZM97.4881 54.8295C96.8093 55.7871 95.405 58.3245 93.9071 64.2132C92.6198 69.2163 93.1347 74.4108 93.5326 78.6C93.8135 81.5683 94.0709 84.1057 93.6262 85.949C92.6432 90.1381 91.8475 96.6492 91.8475 96.6971L91.824 96.7929L89.1325 105.698C89.0389 106.081 89.0389 106.512 89.1559 106.919C89.3431 107.517 89.7644 108.02 90.3027 108.259C93.4156 109.648 95.1007 108.403 95.8497 107.541C96.0135 107.35 96.1071 107.134 96.1306 106.871C96.7157 100.814 98.6349 92.7713 98.6583 92.6995L98.7051 92.5798C101.958 86.5234 102.824 77.5467 102.848 77.4749V77.427L104.322 68.6178L97.4881 54.8295Z" fill="#191D71"/>
<path d="M113.006 62.4405C113.38 62.5602 113.638 62.8953 113.684 63.2784C114.012 66.6297 115.37 82.2612 113.989 92.5067C112.584 102.896 113.287 115.008 113.427 117.498C113.45 117.785 113.333 118.072 113.123 118.264C112.304 119.054 109.893 120.682 105.937 118.36C105.633 118.192 105.469 117.857 105.469 117.498V115.679V115.583C106.054 109.957 105.376 104.284 105.118 98.6348C105.001 95.9298 105.142 93.8951 105.984 91.3576C106.055 91.1661 106.055 90.9507 105.984 90.7592C105.376 88.916 102.286 79.0535 101.584 71.6806C101.046 65.9115 101.256 61.8181 101.444 59.9031C101.514 59.2807 102.122 58.8737 102.684 59.0652L113.006 62.4405Z" fill="#191D71"/>
<path d="M109.799 120.108C108.653 120.108 107.295 119.772 105.68 118.839C105.236 118.576 104.955 118.073 104.955 117.522V115.559C105.376 111.442 105.118 107.181 104.861 103.088C104.767 101.627 104.674 100.143 104.604 98.6831C104.487 96.0499 104.604 93.8955 105.493 91.2144C105.516 91.1186 105.516 91.0229 105.493 90.9511C104.884 89.036 101.772 79.1736 101.069 71.7528C100.508 65.9598 100.742 61.8185 100.929 59.8795C100.976 59.4247 101.21 59.0178 101.584 58.7784C101.959 58.5151 102.427 58.4672 102.848 58.6108L113.17 61.9621C113.732 62.1536 114.129 62.6563 114.2 63.2548C114.504 66.3428 115.908 82.2616 114.504 92.6028C113.217 102.082 113.685 113.166 113.942 117.498C113.966 117.953 113.802 118.384 113.474 118.695C112.889 119.198 111.648 120.108 109.799 120.108ZM102.38 59.5683C102.286 59.5683 102.216 59.5923 102.123 59.6401C102.052 59.688 101.935 59.7838 101.935 59.9753C101.748 61.8903 101.538 65.9359 102.076 71.657C102.778 78.9581 105.844 88.7248 106.453 90.616C106.546 90.9271 106.546 91.2383 106.453 91.5495C105.61 94.063 105.516 96.1217 105.633 98.6352C105.704 100.095 105.797 101.556 105.891 103.016C106.148 107.157 106.429 111.442 105.984 115.655V115.751V117.522C105.984 117.69 106.078 117.833 106.195 117.929C109.846 120.084 112.023 118.623 112.772 117.905C112.866 117.81 112.912 117.69 112.912 117.546C112.655 113.19 112.187 102.034 113.474 92.4352C114.855 82.2137 113.451 66.3907 113.17 63.3266C113.146 63.1351 113.029 62.9915 112.866 62.9436L102.544 59.5923C102.474 59.5683 102.427 59.5683 102.38 59.5683Z" fill="#191D71"/>
<path d="M140.507 21.221L144.884 18.0373C145.305 17.7261 145.586 17.2473 145.656 16.7207L145.843 15.1408C145.937 14.279 145.469 13.4412 144.673 13.13L144.065 12.8906C143.573 12.6991 143.011 12.8188 142.637 13.2018L141.443 14.3987C141.396 14.4466 141.303 14.4226 141.279 14.3748L140.718 13.0821L140.273 12.9863C139.805 13.8481 139.547 14.7817 139.501 15.7632C139.454 16.8404 139.126 18.3245 137.956 19.1384C135.99 20.479 138.798 21.245 138.798 21.245H140.46C140.46 21.245 140.484 21.245 140.507 21.221Z" fill="white"/>
<path d="M140.46 21.7711L138.658 21.7471C138.377 21.6753 136.903 21.2205 136.739 20.2391C136.645 19.6885 136.949 19.1618 137.652 18.707C138.658 18.0367 138.915 16.7202 138.962 15.7387C139.009 14.7094 139.313 13.6561 139.805 12.7465L139.992 12.4113L141.045 12.6268L141.49 13.6082L142.262 12.8422C142.777 12.3156 143.55 12.1719 144.228 12.4353L144.837 12.6746C145.867 13.0816 146.475 14.1348 146.335 15.236L146.147 16.8159C146.077 17.4862 145.703 18.1086 145.165 18.4916L140.647 21.7711H140.46ZM138.845 20.7178H140.32L144.603 17.6059C144.907 17.3904 145.118 17.0314 145.165 16.6484L145.352 15.0684C145.422 14.4461 145.071 13.8476 144.509 13.6322L143.901 13.3928C143.596 13.2731 143.245 13.3449 143.011 13.5843L141.818 14.7812C141.677 14.9248 141.467 14.9966 141.279 14.9488C141.092 14.9009 140.928 14.7812 140.835 14.5897L140.484 13.7997C140.226 14.4461 140.062 15.0924 140.039 15.7866C139.969 17.0074 139.617 18.6352 138.26 19.5688C137.839 19.856 137.792 20.0236 137.792 20.0715C137.769 20.2391 138.33 20.5742 138.845 20.7178Z" fill="#191D71"/>
<path d="M137.3 24.02L139.921 21.9614C140.39 21.5784 140.624 20.9799 140.53 20.3815L140.226 18.5622C140.109 17.8201 139.477 17.2695 138.728 17.2695C138.33 17.2695 137.955 17.4131 137.674 17.7004L133.977 21.2911C133.93 21.339 133.93 21.4108 133.977 21.4587L137.16 24.044C137.23 24.044 137.277 24.044 137.3 24.02Z" fill="#EEFF87"/>
<path d="M137.254 24.5465C137.113 24.5465 136.973 24.4986 136.879 24.4028L133.696 21.8175C133.556 21.6978 133.462 21.5303 133.462 21.3627C133.462 21.1712 133.532 21.0036 133.649 20.8839L137.347 17.2932C137.722 16.9342 138.213 16.7188 138.751 16.7188C139.758 16.7188 140.6 17.4369 140.764 18.4423L141.069 20.2616C141.209 21.0515 140.881 21.8654 140.273 22.3442L137.651 24.4028C137.511 24.5225 137.371 24.5465 137.254 24.5465ZM134.702 21.3148L137.254 23.3974L139.617 21.5303C139.945 21.267 140.109 20.86 140.039 20.4531L139.734 18.6338C139.664 18.1311 139.243 17.772 138.751 17.772C138.494 17.772 138.26 17.8678 138.073 18.0593L134.702 21.3148Z" fill="#191D71"/>
<path d="M112.889 75.2237L112.725 74.1944C113.146 74.1226 113.427 74.0508 113.427 74.0508L113.732 75.0562C113.708 75.0562 113.38 75.1519 112.889 75.2237Z" fill="#EEFF87"/>
<path d="M111.625 75.342C111.11 75.342 110.619 75.2941 110.174 75.1744L110.384 74.1451C110.853 74.2648 111.414 74.2887 111.929 74.2648L111.976 75.3181C111.882 75.342 111.765 75.342 111.625 75.342ZM109.284 74.8872C108.699 74.6478 108.161 74.2887 107.716 73.8578L108.418 73.0918C108.77 73.4509 109.191 73.7142 109.659 73.9057L109.284 74.8872ZM107.108 73.1397C106.78 72.6609 106.499 72.1104 106.289 71.464L107.248 71.1289C107.435 71.6555 107.669 72.1343 107.927 72.5173L107.108 73.1397Z" fill="#EEFF87"/>
<path d="M106.031 70.5791C105.984 70.3158 105.914 70.0285 105.891 69.7413L106.897 69.5977C106.944 69.861 106.967 70.1243 107.037 70.3397L106.031 70.5791Z" fill="#EEFF87"/>
<path d="M95.8264 77.2821L95.7797 76.2289H95.8499C96.4584 76.2289 96.9733 76.1092 97.2308 76.0613L97.4883 77.0667C97.184 77.1624 96.552 77.2821 95.8264 77.2821ZM94.9137 77.2103C94.3052 77.1146 93.7435 76.8991 93.252 76.564L93.8137 75.6783C94.1881 75.9177 94.6094 76.0852 95.0775 76.157L94.9137 77.2103ZM98.1436 75.9895L97.1371 75.8219L97.3946 74.2181L98.401 74.3856L98.1436 75.9895ZM98.5181 73.5957L97.5116 73.4281L97.7691 71.8243L98.7755 71.9918L98.5181 73.5957ZM98.8691 71.178L97.8627 71.0104L97.9797 70.2683C97.9563 70.2683 97.9329 70.2444 97.9095 70.2444L98.05 69.8853H98.0734L98.3542 69.2868C98.6117 69.4065 98.7521 69.4783 98.7521 69.4783L99.1266 69.6459L98.8691 71.178ZM97.184 69.8853C96.7159 69.622 96.2244 69.3587 95.7797 69.0714L96.318 68.1857C96.7627 68.449 97.2073 68.7123 97.652 68.9517L97.184 69.8853ZM95.1009 68.6405C94.7264 68.3772 94.3285 68.0899 93.9306 67.8027L94.5626 66.9648C94.9371 67.2521 95.3116 67.5393 95.6627 67.7787L95.1009 68.6405Z" fill="#EEFF87"/>
<path d="M109.753 115.608H109.565L109.589 114.555H109.753C110.197 114.555 110.619 114.507 111.017 114.387L111.274 115.417C110.782 115.536 110.291 115.608 109.753 115.608ZM108.723 115.512C108.185 115.441 107.646 115.297 107.108 115.081L107.459 114.1C107.95 114.291 108.419 114.411 108.887 114.483L108.723 115.512ZM112.093 115.129L111.695 114.172C112.444 113.861 112.842 113.43 112.866 113.43L113.615 114.172C113.591 114.172 113.053 114.722 112.093 115.129ZM106.336 114.77C106.008 114.627 105.68 114.435 105.353 114.244L105.867 113.334C106.172 113.525 106.476 113.669 106.78 113.813L106.336 114.77Z" fill="#EEFF87"/>
<path d="M93.8604 106.247C93.5561 106.247 93.2519 106.223 92.971 106.176L93.1348 105.146C93.6029 105.218 94.1179 105.218 94.5626 105.146L94.6796 106.176C94.4221 106.223 94.1413 106.247 93.8604 106.247ZM95.5222 106.032L95.2881 105.003C96.0839 104.811 96.6456 104.5 96.6456 104.5L97.1371 105.434C97.0903 105.457 96.4584 105.793 95.5222 106.032ZM92.1285 105.984C91.5667 105.793 91.0518 105.529 90.5837 105.146L91.2156 104.308C91.5901 104.596 92.0114 104.835 92.4561 104.979L92.1285 105.984ZM89.9284 104.548C89.5773 104.189 89.273 103.758 88.9922 103.279L89.8816 102.729C90.1156 103.135 90.3965 103.495 90.6774 103.806L89.9284 104.548Z" fill="#EEFF87"/>
<path d="M116.329 118.862C116.329 118.862 115.44 117.737 113.708 116.779L116.329 118.862Z" fill="#191D71"/>
<path d="M115.932 119.197C115.932 119.197 115.066 118.12 113.474 117.234L113.966 116.301C115.768 117.282 116.704 118.479 116.727 118.527L115.932 119.197Z" fill="#191D71"/>
<path d="M99.1969 105.936C99.1969 105.936 98.6586 105.433 97.2075 105.002L99.1969 105.936Z" fill="#191D71"/>
<path d="M98.8691 106.319C98.8691 106.319 98.3542 105.888 97.0903 105.505L97.3712 104.5C98.8925 104.955 99.5011 105.481 99.5479 105.553L98.8691 106.319Z" fill="#191D71"/>
<path d="M88.5947 63.4719C88.5947 63.4719 90.8885 47.0265 90.9119 35.7277C90.8885 35.0814 90.865 34.4351 90.865 33.8127C90.865 33.7888 90.865 33.7649 90.865 33.7409C90.865 33.5973 90.865 33.4536 90.865 33.31C90.865 33.1185 90.865 32.927 90.865 32.7834C90.9118 30.0784 91.1927 27.5649 91.8714 25.8653C94.2821 19.9526 97.6057 22.3704 97.6057 22.3704L98.7993 23.3518L102.076 27.134L111.391 26.3201C115.159 25.6977 122.602 25.7217 126.651 25.1471C127.073 25.0993 127.494 25.0035 127.868 24.812L136.271 18.9472C136.271 18.9472 138.167 18.1572 138.611 20.4314C138.892 21.9873 138.237 23.5673 136.926 24.429L127.892 31.7541C127.728 31.8498 127.564 31.9456 127.377 32.0174L117.804 35.8714C117.125 35.9672 116.564 36.422 116.306 37.0683C115.955 37.9061 115.44 39.2706 114.972 41.0181C114.972 41.2574 113.24 55.4288 119.162 63.8789C119.162 63.8789 111.438 74.1722 94.2822 65.6982C94.2588 65.7221 91.2863 63.9268 88.5947 63.4719Z" fill="#EEFF87"/>
<path d="M106.827 69.5511C103.316 69.5511 99.0565 68.6654 94.0244 66.1759C93.9542 66.128 91.052 64.4045 88.5008 63.9975L88.0093 63.9257L88.0795 63.423C88.1029 63.2554 90.3732 46.8818 90.3732 35.7746C90.3498 35.1522 90.3264 34.5059 90.3264 33.8595V33.2372C90.3264 33.0696 90.3264 32.926 90.3264 32.7823C90.3732 29.6704 90.7243 27.2766 91.3796 25.6967C92.3392 23.3508 93.5563 21.9624 95.0308 21.5315C96.5989 21.0767 97.8394 21.9624 97.8862 21.9863L99.1735 23.0396L102.286 26.6303L111.344 25.8403C113.31 25.5052 116.376 25.3615 119.325 25.2179C121.947 25.0743 124.685 24.9546 126.557 24.6913C127.002 24.6195 127.33 24.5716 127.611 24.404L136.06 18.5153C136.107 18.4914 137.09 18.1084 137.956 18.5871C138.541 18.8983 138.915 19.5207 139.079 20.4064C139.407 22.1778 138.658 23.9492 137.183 24.9307L128.172 32.2079C127.938 32.3515 127.751 32.4712 127.54 32.543L117.851 36.4209C117.359 36.4927 116.938 36.8279 116.727 37.2827C116.47 37.929 115.932 39.2695 115.417 41.1128C115.417 41.1367 115.417 41.1846 115.417 41.2564C115.089 44.6796 114.457 56.3613 119.512 63.5906L119.723 63.9018L119.489 64.213C119.489 64.2848 115.393 69.5511 106.827 69.5511ZM89.1562 63.064C91.7541 63.6145 94.3988 65.1944 94.5159 65.2663C109.589 72.711 117.078 65.4817 118.506 63.8539C113.474 56.3134 114.129 44.5838 114.434 41.1367L114.457 40.8734C114.972 39.0541 115.487 37.6897 115.814 36.8758C116.142 36.1097 116.844 35.5352 117.663 35.3916L127.189 31.5615C127.33 31.5136 127.47 31.4179 127.611 31.3461L136.622 24.0689C137.792 23.3029 138.353 21.9384 138.119 20.574C138.026 20.0234 137.815 19.6643 137.511 19.4967C137.136 19.2813 136.668 19.401 136.528 19.4489L128.172 25.2658C127.657 25.5531 127.166 25.6249 126.721 25.6967C124.779 25.96 122.04 26.1037 119.395 26.2233C116.47 26.367 113.451 26.5345 111.485 26.8457L101.865 27.6835L98.448 23.7338L97.2777 22.8002C97.2543 22.8002 96.3883 22.1778 95.3116 22.5129C94.1882 22.8481 93.1584 24.0689 92.3392 26.0797C91.7307 27.5638 91.4031 29.8141 91.3562 32.8063C91.3562 32.9499 91.3562 33.0936 91.3562 33.2132V33.8117C91.3562 34.482 91.3796 35.1043 91.403 35.7507C91.403 45.8525 89.5307 60.2153 89.1562 63.064Z" fill="#191D71"/>
<path d="M111.578 41.8303L110.666 41.3516C112.421 37.8087 116.751 35.7261 116.938 35.6543L117.359 36.6118C117.313 36.6118 113.17 38.5987 111.578 41.8303Z" fill="#191D71"/>
<g opacity="0.7">
<path d="M125.457 28.7606L124.498 28.3536C125.738 25.2896 127.447 24.3799 127.517 24.332L127.985 25.2656C127.985 25.2896 126.557 26.0795 125.457 28.7606Z" fill="#191D71"/>
</g>
<path d="M110.806 67.8522C109.004 67.8522 106.921 67.541 104.697 66.6553L105.072 65.6738C111.204 68.1394 116.33 65.7217 116.376 65.6978L116.821 66.6553C116.681 66.7271 114.293 67.8522 110.806 67.8522Z" fill="#191D71"/>
<path d="M112.28 11.8834C112.35 14.4926 111.976 18.2509 109.776 20.6208L107.178 21.674C107.178 21.674 107.365 23.6848 109.237 24.6184L103.831 26.8207L99.1733 25.6478L99.9222 22.6076C99.9222 22.6076 102.076 19.9505 100.765 15.5459C99.4542 11.1653 105.75 5.9707 105.75 5.9707L110.642 7.00002C111.648 8.4363 112.233 10.112 112.28 11.8834Z" fill="white"/>
<path d="M103.854 27.3476L98.5415 26.0071L99.4309 22.3446L99.5011 22.2489C99.5713 22.1531 101.444 19.7114 100.25 15.6898C98.8692 11.0219 105.118 5.77951 105.399 5.56407L105.586 5.39648L110.923 6.52157L111.04 6.68916C112.14 8.22119 112.748 9.99259 112.795 11.8358C112.865 14.6366 112.468 18.4906 110.15 20.9562L110.08 21.052L107.763 21.9856C107.904 22.5361 108.325 23.5654 109.448 24.14L110.478 24.6666L103.854 27.3476ZM99.782 25.265L103.784 26.2704L108.114 24.4991C106.827 23.374 106.663 21.794 106.663 21.7222L106.616 21.3392L109.472 20.1902C111.461 17.9879 111.812 14.469 111.742 11.9076C111.695 10.3517 111.204 8.84356 110.291 7.52697L105.844 6.59339C104.837 7.47909 100.156 11.8598 101.21 15.4505C102.45 19.6157 100.742 22.3446 100.344 22.8952L99.782 25.265Z" fill="#191D71"/>
<path d="M111.11 4.60727C111.11 4.60727 109.752 1.9741 106.593 1.80653C103.433 1.63896 101.374 4.24821 101.374 5.46904C101.374 6.68988 108.91 7.02504 108.91 7.02504L111.11 4.60727Z" fill="#191D71"/>
<path d="M113.708 7.8611C113.708 8.22017 113.638 8.57925 113.497 8.91438C112.865 10.3985 110.759 14.2047 105.727 13.2711L104.112 13.4147C104.112 13.4147 103.855 15.0904 104.51 16.6464C104.744 17.197 104.58 17.8672 104.065 18.1784C103.246 18.6572 101.865 19.0641 100.11 18.1545C100.11 18.1545 94.6095 9.84797 100.882 4.72523C102.123 3.71983 103.808 3.3847 105.329 3.86346C106.686 4.29434 108.676 4.7013 110.806 4.5098C111.297 4.46192 111.789 4.53375 112.234 4.74919C113.123 5.18008 113.685 6.11366 113.685 7.14299V7.8611H113.708Z" fill="#191D71"/>
<path d="M102.169 19.2325C101.491 19.2325 100.718 19.065 99.8758 18.6341L99.7588 18.5623L99.6886 18.4426C99.6418 18.3469 94.0011 9.65736 100.578 4.29524C101.959 3.17016 103.784 2.81106 105.493 3.3377C106.757 3.72071 108.676 4.15162 110.783 3.96011C111.391 3.91224 111.976 4.00798 112.491 4.24736C113.544 4.77399 114.246 5.89909 114.246 7.09599V7.81413C114.246 8.24502 114.153 8.67588 113.989 9.05889C113.427 10.3994 111.157 14.7083 105.727 13.7508L104.604 13.8465C104.58 14.3971 104.58 15.4264 105.001 16.384C105.353 17.1978 105.072 18.1553 104.346 18.5623C103.784 18.9453 103.059 19.2325 102.169 19.2325ZM100.461 17.7484C101.959 18.4665 103.106 18.1314 103.808 17.7245C104.065 17.5569 104.182 17.1978 104.042 16.8627C103.34 15.187 103.597 13.3917 103.621 13.3198L103.691 12.9129L105.774 12.7214L105.844 12.7454C110.431 13.6071 112.421 10.184 113.053 8.6759C113.17 8.41259 113.217 8.12532 113.217 7.83806V7.11991C113.217 6.30602 112.749 5.56393 112.046 5.20486C111.719 5.0373 111.321 4.96551 110.876 5.01339C108.606 5.20489 106.546 4.77398 105.212 4.34309C103.831 3.91221 102.357 4.19948 101.233 5.10913C95.6862 9.63341 99.8056 16.743 100.461 17.7484Z" fill="#191D71"/>
<path d="M106.406 17.3897C105.867 17.0067 105.54 16.5519 105.446 16.0013C105.306 15.1635 105.774 14.5171 105.844 14.4453L106.663 15.0677L106.265 14.7565L106.687 15.0677C106.687 15.0677 106.429 15.4507 106.499 15.8337C106.546 16.0731 106.71 16.3125 107.014 16.504L106.406 17.3897Z" fill="#191D71"/>
<path d="M109.214 5.08692C108.138 5.08692 105.516 4.99115 103.621 4.12938L104.042 3.17188C106.242 4.15333 109.659 4.03365 109.682 4.03365L109.729 5.08692C109.682 5.08692 109.495 5.08692 109.214 5.08692Z" fill="#EEFF87"/>
<path d="M100.602 16.9113C98.893 14.6612 99.5249 10.9508 99.5483 10.7832L100.555 10.9747C100.555 10.9986 99.9696 14.3979 101.397 16.265L100.602 16.9113Z" fill="#EEFF87"/>
<path d="M103.808 13.8471C103.761 13.7992 102.427 12.8178 102.755 11.0703L103.761 11.2857C103.551 12.339 104.37 12.9614 104.393 13.0093L103.808 13.8471Z" fill="#EEFF87"/>
<path d="M111.414 26.3182C111.414 26.3182 111.508 24.6665 108.138 24.7623C104.767 24.858 100.999 25.1213 100.18 21.6743L100.39 21.0758C100.39 21.0758 97.5351 20.7167 97.6287 23.2781C97.6989 25.8395 99.6181 27.8742 103.667 27.946C107.693 28.0178 111.414 26.3182 111.414 26.3182Z" fill="#809CE4"/>
<path d="M103.948 28.4486C103.831 28.4486 103.737 28.4486 103.62 28.4486C99.6181 28.3529 97.184 26.4139 97.0903 23.2541C97.0669 22.3923 97.3244 21.722 97.8393 21.2193C98.8223 20.3097 100.367 20.5012 100.437 20.5012L101.069 20.573L100.718 21.6502C101.491 24.4031 104.486 24.3073 107.669 24.2116L108.137 24.1877C109.706 24.1398 110.806 24.451 111.438 25.1212C111.953 25.6718 111.953 26.2463 111.929 26.3181L111.906 26.6294L111.625 26.749C111.461 26.8687 107.95 28.4486 103.948 28.4486ZM99.6415 21.5545C99.267 21.6023 98.8223 21.6981 98.5181 22.0093C98.2372 22.2726 98.0968 22.6796 98.1202 23.2302C98.1904 25.8155 100.227 27.3235 103.644 27.3953C106.78 27.4672 109.706 26.4139 110.782 26.0069C110.759 25.9591 110.712 25.9112 110.665 25.8633C110.431 25.6239 109.776 25.2409 108.161 25.2888L107.693 25.3128C104.346 25.4085 100.578 25.5043 99.6649 21.7939L99.6181 21.6502L99.6415 21.5545Z" fill="#191D71"/>
<path d="M111.789 26.2479C111.789 26.2479 105.329 26.3676 103.316 32.9027L99.9224 29.7908C99.9224 29.7908 103.574 24.2132 107.903 23.4711C112.233 22.7051 112.819 26.1282 112.819 26.1282L111.789 26.2479Z" fill="#809CE4"/>
<path d="M103.574 33.8604L99.2437 29.8867L99.5011 29.5037C99.6649 29.2643 103.34 23.7346 107.81 22.9447C112.585 22.1068 113.31 25.9848 113.31 26.0327L113.404 26.5833L111.789 26.7748C111.531 26.7748 105.657 26.9662 103.808 33.0704L103.574 33.8604ZM100.601 29.7191L103.082 31.9932C105.329 26.1284 111.25 25.7454 111.742 25.7215L112.14 25.6736C111.789 24.8597 110.759 23.4953 107.997 23.974C104.557 24.5964 101.491 28.4983 100.601 29.7191Z" fill="#191D71"/>
<path d="M115.253 48.2207C115.253 48.2207 115.229 49.0346 114.223 50.6624C112.257 53.894 108.957 57.5805 103.503 58.2986L102.825 60.9797C102.825 60.9797 108.793 62.2245 115.206 52.9844C115.206 52.9844 118.295 49.1543 115.253 48.2207Z" fill="#809CE4"/>
<path d="M103.621 61.579C103.106 61.579 102.801 61.5311 102.731 61.5071L102.193 61.3874L103.082 57.8207L103.433 57.7728C107.646 57.2222 111.134 54.7327 113.802 50.376C114.691 48.9158 114.738 48.1976 114.738 48.1976L114.785 47.5273L115.393 47.7189C116.47 48.054 116.868 48.7003 117.008 49.203C117.5 50.9026 115.791 53.0809 115.604 53.3443C110.478 60.7411 105.563 61.579 103.621 61.579ZM103.48 60.5257C105.072 60.5257 109.776 59.9272 114.785 52.698C115.206 52.1474 116.306 50.4957 116.025 49.5142C115.955 49.2988 115.815 49.1073 115.604 48.9636C115.464 49.4185 115.183 50.0648 114.668 50.9505C111.906 55.4747 108.302 58.1079 103.925 58.7782L103.48 60.5257Z" fill="#191D71"/>
<path d="M97.1605 28.8087C97.1605 28.8087 97.0201 23.3509 99.1266 21.8907C100.203 21.1486 98.1436 19.8081 96.0137 22.0104C93.8605 24.2127 94.0711 28.1385 94.0711 28.1385L97.1605 28.8087Z" fill="#809CE4"/>
<path d="M97.6992 29.4788L93.5798 28.5931L93.5564 28.1861C93.5564 28.0185 93.3692 23.997 95.6629 21.651C96.9736 20.3105 98.3077 20.119 99.1035 20.4063C99.595 20.5738 99.8992 20.909 99.9694 21.3159C100.016 21.6989 99.829 22.0819 99.4545 22.3213C97.9098 23.3746 97.6757 27.3483 97.7225 28.7846L97.6992 29.4788ZM94.5862 27.7313L96.6693 28.1861C96.7161 26.6301 96.997 22.7761 98.8694 21.4835L98.8928 21.4595C98.8225 21.4117 98.7289 21.3638 98.5417 21.3638C98.3076 21.3398 97.4417 21.3398 96.3885 22.417C94.7969 23.997 94.5862 26.702 94.5862 27.7313Z" fill="#191D71"/>
<path d="M103.667 33.8588C103.948 34.936 103.925 36.0611 103.714 37.1383C103.105 40.1306 101.701 48.6286 103.246 55.5706C105.001 63.3984 98.003 67.9945 88.3368 64.2601C85.5048 63.159 83.1643 60.9327 82.2047 57.9883C81.7132 56.4563 81.5025 54.661 82.0408 52.6263C83.3047 47.9105 86.4175 38.0001 87.7282 33.8349C88.3836 31.7523 89.741 29.9091 91.59 28.8319C93.0411 27.994 94.8902 27.5392 96.9732 28.4249C100.999 30.1484 102.965 31.3214 103.667 33.8588Z" fill="#191D71"/>
<path d="M94.8202 66.1038C92.7605 66.1038 90.5137 65.649 88.1732 64.7632C85.0603 63.5663 82.6964 61.1486 81.7368 58.1803C81.1283 56.3131 81.058 54.3981 81.5729 52.507C82.8368 47.7673 85.9731 37.7612 87.2604 33.6917C87.986 31.3937 89.4605 29.5026 91.3563 28.3775C93.2755 27.2524 95.2415 27.1087 97.1841 27.9466C101.397 29.7659 103.41 31.0346 104.135 33.7156C104.416 34.7928 104.44 35.9658 104.182 37.2345C103.55 40.4662 102.216 48.6769 103.714 55.4514C104.486 58.8745 103.691 61.8667 101.467 63.8536C99.8054 65.3377 97.4883 66.1038 94.8202 66.1038ZM94.7032 28.4493C93.7436 28.4493 92.8073 28.7126 91.8711 29.2632C90.186 30.2446 88.8753 31.9203 88.2434 33.979C86.9561 38.0484 83.8198 48.0306 82.556 52.7464C82.1113 54.422 82.1581 56.1216 82.6964 57.7973C83.5858 60.4783 85.6922 62.6328 88.5242 63.7339C93.5329 65.6729 98.1437 65.4096 100.812 63.0158C102.731 61.2922 103.41 58.683 102.731 55.6429C101.163 48.6769 102.52 40.2747 103.199 36.9952C103.41 35.894 103.41 34.8647 103.152 33.955C102.544 31.657 100.765 30.5798 96.7862 28.8562C96.1074 28.6168 95.4053 28.4493 94.7032 28.4493Z" fill="#191D71"/>
<g opacity="0.7">
<path d="M89.7876 64.7633C97.7687 66.1039 96.2708 55.6669 96.2005 50.4963C96.1069 43.6261 99.7582 37.474 98.5879 34.1466C97.3942 30.8192 91.2387 29.0717 91.2153 29.0717C91.4025 28.9281 91.4259 28.9281 91.6132 28.8084C93.0643 27.9706 94.9133 27.5158 96.9963 28.4015C100.999 30.125 102.965 31.298 103.667 33.8354C103.948 34.9126 103.924 36.0377 103.714 37.1149C103.105 40.1072 101.701 48.6052 103.245 55.5472C104.907 62.9919 98.6815 67.5162 89.7876 64.7633Z" fill="#EEFF87"/>
<path d="M94.7732 66.0808C93.1582 66.0808 91.4262 65.8175 89.624 65.243L89.8581 64.2137C91.5901 64.5009 92.9008 64.2376 93.837 63.3758C96.1073 61.3172 95.8966 56.2423 95.7328 52.508C95.7094 51.7659 95.686 51.0956 95.6626 50.4732C95.6157 47.0262 96.4817 43.8185 97.2307 40.9698C97.9796 38.217 98.6116 35.8232 98.0733 34.2912C96.9966 31.251 91.122 29.5754 91.0518 29.5514L89.9985 29.2642L90.9113 28.6179C91.0752 28.4982 91.1219 28.4742 91.239 28.4024L91.356 28.3306C93.2753 27.2055 95.2413 27.0619 97.1839 27.8997C101.397 29.719 103.41 30.9877 104.135 33.6687C104.416 34.7459 104.439 35.9189 104.182 37.1876C103.55 40.4193 102.216 48.63 103.714 55.4045C104.463 58.7318 103.714 61.6523 101.654 63.6152C100.016 65.2669 97.5818 66.0808 94.7732 66.0808ZM93.3221 64.9557C96.4817 65.2909 99.2201 64.5727 100.975 62.8971C102.778 61.1975 103.386 58.6361 102.731 55.6917C101.163 48.7258 102.52 40.3235 103.199 37.044C103.41 35.9429 103.41 34.9136 103.152 34.0039C102.52 31.7059 100.765 30.6286 96.786 28.9051C95.3582 28.2827 93.9071 28.3067 92.4794 28.953C94.4221 29.6711 98.0967 31.3228 99.0329 33.956C99.6882 35.7992 99.0095 38.3367 98.2137 41.281C97.4647 44.0579 96.6221 47.1938 96.669 50.4972C96.669 51.0957 96.7158 51.7659 96.7392 52.508C96.903 56.4338 97.1371 61.8199 94.4923 64.1897C94.1646 64.5009 93.7668 64.7642 93.3221 64.9557Z" fill="#191D71"/>
</g>
<g opacity="0.7">
<path d="M96.9969 28.425C100.999 30.1486 102.965 31.3215 103.667 33.8589C103.808 34.3856 103.878 34.9361 103.878 35.4867C103.878 35.4867 102.427 37.1384 98.565 37.9045C98.8459 36.4442 98.9395 35.1755 98.5885 34.1462C97.3948 30.8188 91.2392 29.0713 91.2158 29.0713C91.4031 28.9277 91.4031 28.9277 91.6137 28.808C93.0648 27.9941 94.9138 27.5154 96.9969 28.425Z" fill="#809CE4"/>
<path d="M97.9095 38.5516L98.0734 37.7856C98.3776 36.2057 98.401 35.1285 98.1202 34.3146C97.0435 31.2744 91.1689 29.5988 91.0987 29.5749L90.0454 29.2876L90.9582 28.6413C91.1221 28.5216 91.1688 28.4977 91.2859 28.4258L91.4029 28.354C93.3222 27.2289 95.2881 27.0853 97.2308 27.9231C101.444 29.7424 103.457 31.0111 104.182 33.6922C104.322 34.2428 104.416 34.8412 104.416 35.4636V35.6791L104.276 35.8227C104.205 35.8945 102.661 37.618 98.6819 38.408L97.9095 38.5516ZM92.503 28.9525C94.4456 29.6706 98.1202 31.3223 99.0564 33.9555C99.3606 34.7933 99.4074 35.8227 99.1968 37.2111C101.678 36.5887 102.965 35.6072 103.363 35.2482C103.339 34.7933 103.293 34.3864 103.176 33.9794C102.567 31.6814 100.788 30.6042 96.8095 28.8806C95.3818 28.3061 93.9307 28.3062 92.503 28.9525Z" fill="#191D71"/>
</g>
<path d="M95.2649 40.7543C94.9606 41.64 94.5862 42.8848 94.3053 44.2493C94.1649 44.9914 93.7202 45.6138 93.0883 45.9968C92.4095 46.4037 91.567 46.4755 90.8414 46.1883L84.7092 43.7705C83.5624 43.3157 82.9305 42.0949 83.1646 40.874C83.4922 39.1026 84.1008 36.7088 84.9901 35.488C86.5115 33.4054 89.6477 34.8895 89.6477 34.8895C89.6477 34.8895 92.3393 35.7992 94.1649 37.0918C95.3117 37.9057 95.733 39.4138 95.2649 40.7543Z" fill="#EEFF87"/>
<path d="M91.8008 46.9059C91.4263 46.9059 91.0519 46.8341 90.6774 46.6904L84.5453 44.2727C83.1878 43.7221 82.392 42.2619 82.6728 40.8017C83.0239 38.9585 83.6325 36.4929 84.5921 35.2002C86.324 32.8064 89.7412 34.3624 89.8816 34.4342C89.9518 34.4581 92.62 35.3678 94.469 36.6843C95.7797 37.6179 96.2946 39.3654 95.7562 40.9453C95.4754 41.7353 95.1009 42.98 94.8201 44.3684C94.6328 45.2541 94.1179 46.0202 93.369 46.475C92.9009 46.7383 92.3391 46.9059 91.8008 46.9059ZM87.3773 34.9129C86.6517 34.9129 85.9028 35.1284 85.4113 35.8226C84.7559 36.7083 84.1473 38.5515 83.6792 41.0171C83.492 41.9986 84.007 42.9561 84.9198 43.3152L91.0519 45.7329C91.6604 45.9723 92.3157 45.9005 92.854 45.5653C93.3455 45.2541 93.6966 44.7514 93.8137 44.153C94.0945 42.7167 94.4924 41.4241 94.7733 40.6102C95.1712 39.4612 94.7966 38.2164 93.8604 37.5461C92.1285 36.3013 89.5071 35.4156 89.4837 35.3917C89.4603 35.3677 88.4539 34.9129 87.3773 34.9129Z" fill="#191D71"/>
<path d="M83.1644 40.8736C83.4921 39.1022 84.1006 36.7084 84.99 35.4875C85.6453 34.6018 86.5815 34.3624 87.4475 34.3864C88.4071 34.7694 89.8816 35.4396 91.005 36.2296C92.1519 37.0435 92.5732 38.5516 92.1051 39.8921C91.8008 40.7778 91.4263 42.0226 91.1454 43.3871C91.005 44.1292 90.5603 44.7515 89.9284 45.1345C89.6475 45.3021 89.3199 45.4218 88.9922 45.4697L84.7091 43.7701C83.5856 43.3152 82.9303 42.0944 83.1644 40.8736Z" fill="#EEFF87"/>
<path d="M88.9688 45.9969L84.5453 44.2494C83.1878 43.6988 82.392 42.2386 82.6728 40.7784C83.0239 38.9351 83.6325 36.4695 84.5921 35.1769C85.224 34.2912 86.2305 33.8363 87.4709 33.8603L87.6581 33.9082C88.6879 34.3151 90.1625 34.9854 91.3327 35.8232C92.6434 36.7568 93.1583 38.5043 92.62 40.0842C92.3391 40.8741 91.9647 42.1189 91.6838 43.5073C91.4966 44.393 90.9817 45.159 90.2327 45.6139C89.905 45.8054 89.5305 45.949 89.1092 46.0208L88.9688 45.9969ZM83.6792 40.9938C83.492 41.9753 84.007 42.9328 84.9198 43.2919L89.0859 44.9436C89.3199 44.8957 89.5305 44.8239 89.7178 44.7042C90.2093 44.393 90.5604 43.8903 90.6774 43.2919C90.9583 41.8556 91.3561 40.5629 91.637 39.749C92.0349 38.6 91.6604 37.3552 90.7242 36.685C89.6944 35.9429 88.3369 35.3205 87.3539 34.9136C86.4879 34.9136 85.856 35.2248 85.4113 35.8232C84.7559 36.685 84.1473 38.5282 83.6792 40.9938Z" fill="#191D71"/>
<path d="M91.5435 58.1341C91.4499 58.1341 91.3562 58.1341 91.2392 58.1101C89.2498 57.7032 85.505 56.6978 82.79 54.4716L83.4219 53.6577C86.0667 55.836 89.9052 56.7696 91.4265 57.0808C91.6839 57.1287 91.9414 56.9611 91.9882 56.6978C92.3159 55.0222 92.1988 53.7774 92.0584 53.0113C91.9648 52.5565 91.6605 52.1735 91.2392 51.982C88.3604 50.8091 84.5688 48.9658 84.522 48.9419L84.9667 47.9844C85.0135 48.0083 88.7583 49.8276 91.6137 51.0006C92.3627 51.3117 92.9244 51.982 93.0648 52.7959C93.2286 53.6577 93.3456 55.0461 92.9712 56.8893C92.8775 57.6314 92.2456 58.1341 91.5435 58.1341Z" fill="#EEFF87"/>
<path d="M92.2922 61.5087C92.1284 61.5087 88.2197 61.413 83.3047 58.7558L83.7727 57.8223C88.4772 60.3597 92.2687 60.4554 92.3156 60.4554L92.2922 61.5087Z" fill="#EEFF87"/>
<path d="M98.6117 62.7526C97.2308 62.7526 95.6392 62.4414 93.9307 61.5078L94.3988 60.5742C98.916 63.0159 102.497 60.6939 102.637 60.5981L103.199 61.4839C103.105 61.5557 101.303 62.7526 98.6117 62.7526Z" fill="#191D71"/>
<path d="M84.1236 35.5588C83.913 36.1572 84.1939 36.8036 84.7556 37.0429C85.3407 37.2584 85.9727 36.9711 86.2067 36.3966C86.4174 35.7982 86.1365 35.1518 85.5748 34.9125C84.9897 34.6731 84.3577 34.9603 84.1236 35.5588Z" fill="#809CE4"/>
<path d="M85.1771 37.6181C84.9898 37.6181 84.7792 37.5703 84.592 37.4984C84.1941 37.3309 83.8664 37.0197 83.6791 36.6127C83.4919 36.2058 83.4919 35.751 83.6558 35.344C83.8196 34.9371 84.1239 34.602 84.5217 34.4105C84.9196 34.219 85.3643 34.2189 85.7622 34.3865C86.6048 34.7216 87.0261 35.6792 86.6984 36.5409C86.5346 36.9479 86.2303 37.283 85.8324 37.4745C85.6218 37.5703 85.3877 37.6181 85.1771 37.6181ZM85.1536 35.344C85.06 35.344 84.9899 35.3679 84.9197 35.3919C84.7792 35.4637 84.6622 35.5834 84.592 35.727C84.5451 35.8706 84.5451 36.0382 84.592 36.2058C84.6622 36.3494 84.7792 36.4691 84.9197 36.5409C85.2239 36.6606 85.575 36.493 85.692 36.1818C85.809 35.8707 85.6452 35.5116 85.3409 35.3919C85.3175 35.3679 85.2473 35.344 85.1536 35.344Z" fill="#191D71"/>
<path d="M82.6024 42.5022L82.7896 42.574C83.3045 42.7894 83.8897 42.5022 84.1003 41.9755L85.4578 38.3848C85.6684 37.8582 85.3876 37.2597 84.8726 37.0443L84.6854 36.9725C84.1705 36.757 83.5854 37.0443 83.3748 37.5709L82.0172 41.1616C81.8066 41.7122 82.064 42.3107 82.6024 42.5022Z" fill="#809CE4"/>
<path d="M83.1408 43.1727C82.9536 43.1727 82.7663 43.1488 82.6025 43.077L82.4153 43.0052C82.0408 42.8615 81.7365 42.5504 81.5727 42.1913C81.4088 41.8083 81.3855 41.3774 81.5493 40.9944L82.9068 37.4037C83.211 36.5898 84.1004 36.2068 84.8728 36.518L85.0601 36.5898C85.4346 36.7334 85.7388 37.0446 85.9026 37.4037C86.0665 37.7867 86.0899 38.2176 85.926 38.6006L84.5685 42.1913C84.3345 42.7897 83.7494 43.1727 83.1408 43.1727ZM84.3111 37.4515C84.1004 37.4515 83.9132 37.5712 83.843 37.7867L82.4855 41.3774C82.4387 41.4971 82.4387 41.6407 82.4855 41.7604C82.5323 41.8801 82.6493 41.9758 82.7664 42.0237L82.9536 42.0955C83.211 42.1913 83.4919 42.0716 83.6089 41.8083L84.9664 38.2176C85.0132 38.0979 85.0132 37.9542 84.9664 37.8345C84.9196 37.7149 84.8026 37.6191 84.6856 37.5712L84.4983 37.4994C84.4281 37.4515 84.3579 37.4515 84.3111 37.4515Z" fill="#191D71"/>
<path d="M101.467 44.2475C101.514 44.8699 102.052 45.3487 102.661 45.2769C103.269 45.229 103.737 44.6784 103.667 44.056C103.62 43.4336 103.082 42.9549 102.474 43.0267C101.888 43.0745 101.42 43.6251 101.467 44.2475Z" fill="#809CE4"/>
<path d="M102.591 45.8284C101.748 45.8284 101.046 45.1821 100.976 44.2964C100.906 43.3867 101.561 42.5728 102.45 42.501C103.34 42.4053 104.136 43.0995 104.206 44.0091C104.276 44.9188 103.621 45.7327 102.731 45.8045C102.684 45.8284 102.638 45.8284 102.591 45.8284ZM101.982 44.2006C102.006 44.5358 102.31 44.7751 102.638 44.7512C102.965 44.7273 103.223 44.4161 103.176 44.0809C103.153 43.7458 102.848 43.4825 102.521 43.5304C102.216 43.5783 101.959 43.8655 101.982 44.2006Z" fill="#191D71"/>
<path d="M103.059 51.1903L103.246 51.1663C103.808 51.1185 104.229 50.6158 104.182 50.0412L103.878 46.2111C103.831 45.6366 103.34 45.2058 102.778 45.2536L102.591 45.2776C102.029 45.3254 101.608 45.8281 101.654 46.4026L101.959 50.2327C102.029 50.8312 102.52 51.2381 103.059 51.1903Z" fill="#809CE4"/>
<path d="M102.989 51.7407C102.638 51.7407 102.287 51.621 102.006 51.3816C101.701 51.1183 101.514 50.7353 101.467 50.3284L101.163 46.4983C101.093 45.6365 101.725 44.8705 102.567 44.7987L102.755 44.7747C103.153 44.7269 103.55 44.8705 103.878 45.1338C104.182 45.3971 104.37 45.7801 104.416 46.1871L104.721 50.0171C104.744 50.4241 104.627 50.8311 104.37 51.1662C104.112 51.4774 103.738 51.6689 103.34 51.7168L103.152 51.7407C103.059 51.7167 103.035 51.7407 102.989 51.7407ZM102.872 45.8041C102.848 45.8041 102.848 45.8041 102.825 45.8041L102.638 45.828C102.357 45.8519 102.146 46.0913 102.17 46.3786L102.474 50.2087C102.474 50.3523 102.544 50.472 102.661 50.5677C102.755 50.6635 102.895 50.7113 103.035 50.6874L103.223 50.6635C103.363 50.6635 103.48 50.5917 103.574 50.472C103.667 50.3762 103.691 50.2326 103.691 50.089L103.387 46.2589C103.387 46.1153 103.316 45.9956 103.199 45.8998C103.106 45.8519 102.989 45.8041 102.872 45.8041Z" fill="#191D71"/>
<path d="M91.6603 40.8033C91.6369 40.8033 90.3965 39.8697 87.5645 38.8882L87.8922 37.8828C90.9114 38.9121 92.2221 39.9175 92.2689 39.9415L91.6603 40.8033Z" fill="#191D71"/>
<path d="M108.653 94.1586C108.582 94.1107 107.061 92.7223 106.055 90.903L106.733 90.4961C107.693 92.2196 109.168 93.5362 109.168 93.5602L108.653 94.1586Z" fill="#EEFF87"/>
<path d="M95.7561 90.1617C95.6625 90.0659 93.72 87.744 93.5327 85.2784L94.3285 85.2305C94.4923 87.4328 96.3413 89.6111 96.3413 89.6351L95.7561 90.1617Z" fill="#EEFF87"/>
<circle cx="161" cy="34" r="18.5" fill="#E8F0EB" stroke="#5277F6" stroke-width="3"/>
<path d="M165.244 36.498C165.244 37.9499 164.85 39.0957 164.062 39.9355C163.275 40.7754 162.188 41.1953 160.801 41.1953C159.251 41.1953 158.066 40.6191 157.246 39.4668C156.426 38.3145 156.016 36.638 156.016 34.4375C156.016 32.0547 156.442 30.2253 157.295 28.9492C158.148 27.6732 159.362 27.0352 160.938 27.0352C163.014 27.0352 164.323 27.9694 164.863 29.8379L163.184 30.1406C162.839 29.0208 162.083 28.4609 160.918 28.4609C159.915 28.4609 159.137 28.9297 158.584 29.8672C158.037 30.7982 157.764 32.1491 157.764 33.9199C158.083 33.3275 158.532 32.8783 159.111 32.5723C159.691 32.2598 160.355 32.1035 161.104 32.1035C162.373 32.1035 163.379 32.5007 164.121 33.2949C164.87 34.0892 165.244 35.1569 165.244 36.498ZM163.457 36.5762C163.457 35.5801 163.213 34.8118 162.725 34.2715C162.236 33.7311 161.556 33.4609 160.684 33.4609C159.863 33.4609 159.199 33.7018 158.691 34.1836C158.19 34.6589 157.939 35.3164 157.939 36.1562C157.939 37.2174 158.2 38.0866 158.721 38.7637C159.248 39.4408 159.922 39.7793 160.742 39.7793C161.589 39.7793 162.253 39.4961 162.734 38.9297C163.216 38.3568 163.457 37.5723 163.457 36.5762Z" fill="#5277F6"/>
</svg>
