<svg width="80" height="12" viewBox="0 0 80 12" fill="none" xmlns="http://www.w3.org/2000/svg">
<g clip-path="url(#clip0_810_1262)">
<path d="M0 0.195496H4.49657C7.12372 0.195496 8.7132 1.83708 8.7132 4.23991C8.7132 6.92485 6.73072 8.31694 4.2597 8.31694H2.42258V11.7986H0V0.195496ZM4.34314 6.04594C5.55443 6.04594 6.26236 5.28469 6.26236 4.25693C6.26236 3.11292 5.50732 2.4991 4.29604 2.4991H2.42258V6.0431L4.34314 6.04594Z" fill="black"/>
<path d="M10.8223 0.195496H15.8573C17.2583 0.195496 18.3431 0.609436 19.0672 1.37211C19.6809 2.01853 20.0093 2.93147 20.0093 4.05704C20.0093 5.9297 19.0497 7.10772 17.6486 7.6535L20.3404 11.7986H17.514L15.1291 8.08445H13.2449V11.7986H10.8223V0.195496ZM15.6998 5.83046C16.8801 5.83046 17.5571 5.16844 17.5571 4.15628C17.5571 3.0633 16.833 2.4991 15.6527 2.4991H13.2449V5.83046H15.6998Z" fill="black"/>
<path d="M21.7148 5.99929C21.7148 2.70195 24.1858 0 27.5841 0C30.9825 0 33.4225 2.66793 33.4225 5.99929C33.4225 9.29805 30.9529 12 27.5532 12C24.1535 12 21.7148 9.32782 21.7148 5.99929ZM30.8896 5.99929C30.8896 4.01465 29.5047 2.35322 27.5532 2.35322C25.6017 2.35322 24.2491 3.97496 24.2491 5.99929C24.2491 7.98393 25.634 9.64678 27.5841 9.64678C29.5343 9.64678 30.8896 8.01937 30.8896 5.99929Z" fill="black"/>
<path d="M34.4287 10.1104L35.8553 8.30154C36.8472 9.16344 37.8863 9.70921 39.1446 9.70921C40.1366 9.70921 40.7341 9.29527 40.7341 8.58222C40.7341 7.93579 40.3559 7.60408 38.5148 7.10792C36.2968 6.51111 34.8648 5.86468 34.8648 3.52705C34.8648 1.42191 36.4691 0.0298277 38.7194 0.0298277C40.2048 0.00425291 41.652 0.52625 42.8108 1.50555L41.5524 3.42782C40.5767 2.71902 39.617 2.28381 38.6884 2.28381C37.7597 2.28381 37.2725 2.73178 37.2725 3.32859C37.2725 4.09126 37.7436 4.33934 39.648 4.85393C41.8822 5.46633 43.1473 6.31122 43.1473 8.36674C43.1473 10.6703 41.4784 11.9632 39.1097 11.9632C37.3861 11.9729 35.7196 11.3133 34.4287 10.1104Z" fill="black"/>
<path d="M44.4531 5.99929C44.4531 2.70195 46.8137 0 50.1973 0C52.2739 0 53.4381 0.82788 54.461 1.88966L53.0142 3.64607C52.1636 2.83379 51.4395 2.35322 50.1878 2.35322C48.3305 2.35322 46.9927 3.97779 46.9927 5.99929C46.9927 7.98393 48.2996 9.64678 50.1878 9.64678C51.4462 9.64678 52.2174 9.11518 53.0828 8.2873L54.6252 10.0267C53.492 11.3025 52.2336 12 50.1084 12C46.8608 11.9972 44.4531 9.36184 44.4531 5.99929Z" fill="black"/>
<path d="M55.4365 5.99929C55.4365 2.70195 57.9062 0 61.3059 0C64.7056 0 67.1443 2.66793 67.1443 5.99929C67.1443 9.29805 64.6733 12 61.2749 12C57.8766 12 55.4365 9.32782 55.4365 5.99929ZM64.61 5.99929C64.61 4.01465 63.2251 2.35322 61.2749 2.35322C59.3248 2.35322 57.9695 3.97496 57.9695 5.99929C57.9695 7.98393 59.3544 9.64678 61.3059 9.64678C63.2574 9.64678 64.61 8.01937 64.61 5.99929Z" fill="black"/>
<path d="M68.9844 0.195496H71.5967L74.4931 6.52792L77.388 0.195496H80.0004V11.7986H77.5926V4.2229L74.4971 9.1845H74.4339L71.3653 4.27819V11.8042H68.9844V0.195496Z" fill="black"/>
<path d="M71.3857 4.32084L74.3681 10.6065H74.4906H74.609L77.5699 4.24146L74.4906 7.83082L71.3857 4.32084Z" fill="black"/>
</g>
<defs>
<clipPath id="clip0_810_1262">
<rect width="80" height="12" fill="white"/>
</clipPath>
</defs>
</svg>
