<svg width="346" height="338" viewBox="0 0 346 338" fill="none" xmlns="http://www.w3.org/2000/svg">
<path d="M296.899 287.282C288.169 296.292 280.359 301.587 274.378 305.585C216.052 344.577 149.38 333.339 128.766 329.498C95.5084 323.301 67.4349 318.928 43.3136 297.11C-11.4955 247.531 -8.82924 144.107 33.0509 80.0411C38.0173 72.445 79.8345 10.3819 146.652 1.63744C148.286 1.42324 149.505 1.30223 150.574 1.18848C161.223 1.6268 212.392 -2.43915 277.192 38.1207C284.669 44.3916 296.7 55.704 307.857 72.9557C348.652 136.039 348.781 233.74 296.899 287.282Z" fill="url(#paint0_linear_860_1946)"/>
<path d="M0.110123 14.4818C-0.593317 12.4234 2.2277 10.728 4.18694 12.0192C24.0827 25.1347 72.764 65.494 69.5066 144.816C65.4201 244.338 92.6234 277.797 124.228 296.711C124.228 296.711 82.7825 290.462 53.742 256.655C-17.5617 173.649 12.6222 51.0776 0.110123 14.4818Z" fill="#91B3FA"/>
<path d="M92.1923 249.466C90.9172 252.721 86.7352 253.614 84.2128 251.197C70.2914 237.855 34.3398 196.57 39.7304 130.183C44.2822 74.1219 41.4298 43.29 39.166 29.3843C38.6873 26.4437 42.236 24.6007 44.3656 26.6821C67.8596 49.6432 138.413 131.513 92.1923 249.466Z" fill="#7D97F4"/>
<path d="M87.4636 249.368C87.3899 249.414 87.3113 249.454 87.2279 249.485C86.5244 249.755 85.7364 249.404 85.4657 248.7C85.1599 247.903 54.8998 168.01 57.7124 89.7762C57.7402 89.0235 58.3711 88.4342 59.1241 88.4608C59.8771 88.4887 60.4645 89.1204 60.4379 89.8743C57.6459 167.54 87.7065 246.928 88.0111 247.721C88.2504 248.342 88.0063 249.029 87.4636 249.368Z" fill="#91B3FA"/>
<path d="M76.2072 1.33212C67.4033 2.09814 60.6541 9.48119 60.6287 18.3285C60.4752 72.435 60.2226 259.064 63.7447 325.12C64.1181 332.118 69.8484 337.616 76.8465 337.691C111.464 338.064 211.041 338.75 267.571 335.129C279.346 334.375 288.507 324.612 288.493 312.799C288.424 256.012 287.517 96.3074 279.748 23.3082C278.817 14.5613 271.795 7.73497 263.036 7.05124C225.282 4.10576 125.021 -2.91909 76.2072 1.33212Z" fill="url(#paint1_linear_860_1946)"/>
<path d="M74.5252 32.5077C73.8459 78.7919 71.9096 232.758 75.289 289.583C75.7834 297.89 82.2268 304.446 90.1834 304.725C122.944 305.868 206.953 308.08 254.824 302.807C263.444 301.857 270.031 294.377 270.261 285.319C271.458 238.087 274.693 94.6846 271.409 38.4943C270.885 29.5308 264.044 22.3777 255.47 21.7992C219.998 19.4056 128.91 13.8873 88.2036 17.2818C80.5612 17.9171 74.6424 24.4942 74.5252 32.5077Z" fill="#91B3FA"/>
<path d="M153.679 9.37882C153.707 10.6579 154.725 11.6902 156.002 11.7289C162.305 11.9201 180.064 12.4647 188 12.7515C189.565 12.8084 190.76 11.3743 190.43 9.84109C190.404 9.79269 190.2 7.82743 188.196 7.68826C182.827 7.31433 166.628 6.30628 155.924 6.92466C153.727 7.05293 153.607 9.5555 153.679 9.37882Z" fill="url(#paint2_linear_860_1946)"/>
<path d="M116.272 170.636C116.272 170.636 161.427 159.295 209.136 166.135C222.56 168.059 234.449 175.879 241.693 187.356C254.745 208.036 273.198 244.888 269.295 283.323L248.809 288.395C248.809 288.395 234.651 242.784 218.717 224.22C218.717 224.22 199.845 267.289 200.8 290.939C200.827 291.607 200.87 292.26 200.929 292.897C203.095 316.036 110.34 297.214 110.34 297.214L116.272 170.636Z" fill="#EEF3FF"/>
<path d="M165.088 132.027L155.474 162.686C154.58 165.538 155.469 168.592 157.703 170.314C162.848 174.282 173.019 180.599 185.445 180.418C187.719 180.385 189.631 178.442 189.789 176.058L193.205 124.814L165.088 132.027Z" fill="url(#paint3_linear_860_1946)"/>
<path d="M202.31 98.4263C202.31 98.4263 206.045 122.571 203.693 134.11C201.341 145.648 201.852 153.671 188.118 152.506C174.384 151.341 165.04 141.881 162.018 128.976C162.018 128.976 157.208 109.051 161.191 102.457C165.174 95.862 202.31 98.4263 202.31 98.4263Z" fill="#FEBDAE"/>
<path d="M168.645 122.012L170.306 122.449C170.306 122.449 167.151 106.601 173.809 105.714C180.468 104.827 205.553 106.229 212.908 99.122C220.001 92.2702 218.349 80.5754 212.514 75.8897C212.146 75.5932 211.601 75.661 211.28 76.0095L210.461 76.9026C209.9 77.5137 208.88 77.1313 208.859 76.3012C208.84 75.5134 207.896 75.0947 207.324 75.6356C205.088 77.7509 199.751 80.7448 187.777 79.8505C170.787 78.5823 158.351 82.3301 155.145 93.473C154.942 94.1786 154.082 94.371 153.572 93.8421C152.567 92.7978 150.742 91.9519 147.619 93.4319C142.187 96.0071 141.457 106.204 149.114 116.762C149.478 117.264 149.285 117.988 148.696 118.183C146.625 118.87 143.27 120.919 149.141 126.372C155.147 131.949 159.388 132.629 161.053 132.64C161.502 132.643 161.884 132.334 161.971 131.894L163.965 121.796C164.068 121.274 164.59 120.947 165.103 121.082L168.645 122.012Z" fill="url(#paint4_linear_860_1946)"/>
<path d="M168.508 124.198C168.508 124.198 168.546 109.413 161.33 111.663C154.113 113.912 160.476 128.016 165.323 129.845L168.508 124.198Z" fill="url(#paint5_linear_860_1946)"/>
<path d="M116.553 262.839C114.553 248.697 129.18 227.911 135.229 220.022C136.96 217.766 137.927 215.007 137.952 212.162C138.129 192.134 129.73 179.272 116.273 170.635C116.273 170.635 67.4294 227.608 79.8665 271.43C81.2081 276.159 83.2882 280.222 85.9243 283.714C87.8847 267.203 106.947 263.601 116.553 262.839Z" fill="#EEF3FF"/>
<path d="M117.464 257.369L115.603 257.156C117.18 243.288 129.335 226.168 134.487 219.45L135.973 220.593C130.916 227.187 118.99 243.968 117.464 257.369Z" fill="#87A7EA"/>
<path d="M116.936 264.797C116.766 264.162 116.648 263.504 116.553 262.839C106.947 263.601 87.885 267.203 85.9258 283.715C107.723 312.578 167.802 302.165 167.802 302.165V290.933C167.8 290.933 121.66 282.351 116.936 264.797Z" fill="url(#paint6_linear_860_1946)"/>
<path d="M162.025 299.065C162.025 299.065 170.895 278.108 186.526 285.542C202.156 292.976 200.928 297.84 200.928 297.84L162.025 299.065Z" fill="url(#paint7_linear_860_1946)"/>
<path d="M160.032 303.412C160.156 304.997 161.505 306.204 163.093 306.148L244.09 303.319C245.35 303.275 246.444 302.44 246.819 301.236L249.17 293.704C249.748 291.854 248.429 289.954 246.496 289.851L216.958 288.281C216.69 288.266 216.422 288.289 216.159 288.347L162.349 300.279C160.904 300.6 159.917 301.936 160.032 303.412Z" fill="url(#paint8_linear_860_1946)"/>
<path d="M214.325 300.453L216.555 290.056L246.894 291.505L244.898 300.132L214.325 300.453Z" fill="url(#paint9_linear_860_1946)"/>
<path d="M198.772 188.534C197.055 202.582 189.33 259.658 187.12 275.966C186.809 278.259 188.628 280.276 190.939 280.21L321.977 276.456C323.692 276.406 325.155 275.197 325.526 273.521L345.91 181.609C346.449 179.179 344.516 176.907 342.035 177.053L202.27 185.249C200.463 185.355 198.992 186.736 198.772 188.534Z" fill="url(#paint10_linear_860_1946)"/>
<path d="M251.444 246.173L232.078 301.209L277.11 302.165L280.86 246.503C281.036 243.892 278.871 241.723 276.263 241.896L255.232 243.294C253.509 243.409 252.019 244.542 251.444 246.173Z" fill="url(#paint11_linear_860_1946)"/>
<path d="M213.821 301.993C213.324 303.507 214.452 305.065 216.044 305.065H286.567C287.859 305.065 288.906 304.017 288.906 302.723V299.694C288.906 298.362 287.796 297.298 286.466 297.355L215.944 300.382C214.971 300.425 214.124 301.066 213.821 301.993Z" fill="url(#paint12_linear_860_1946)"/>
<path d="M196.782 248.242L195.852 248.124L202.291 197.287C202.689 194.134 205.278 191.706 208.448 191.515L329.227 184.212L329.283 185.149L208.504 192.452C205.785 192.616 203.562 194.699 203.22 197.405L196.782 248.242Z" fill="#5B90FF"/>
<path d="M194.028 262.594L192.643 273.601L193.572 273.718L194.957 262.711L194.028 262.594Z" fill="#5B90FF"/>
<path d="M189.439 141.428C174.886 142.529 166.428 127.464 166.345 127.311L167.319 126.773C167.4 126.919 175.522 141.363 189.354 140.317L189.439 141.428Z" fill="url(#paint13_linear_860_1946)"/>
<path d="M195.371 140.865C195.371 141.729 194.672 142.429 193.809 142.429H189.646C188.783 142.429 188.084 141.729 188.084 140.865C188.084 140.001 188.783 139.302 189.646 139.302H193.809C194.672 139.302 195.371 140.001 195.371 140.865Z" fill="url(#paint14_linear_860_1946)"/>
<path d="M167.348 110.599C167.348 110.599 172.571 83.7771 187.958 81.2455C187.958 81.2455 183.6 79.0491 179.057 81.4318C174.515 83.8146 163.032 96.8696 163.501 111.259C166.624 112.386 167.348 110.599 167.348 110.599Z" fill="url(#paint15_linear_860_1946)"/>
<path d="M164.674 109.329C156.674 110.954 157.658 121.083 157.658 121.083C157.081 128.433 159.224 132.077 161.97 133.814C163.846 135 166.208 135.11 168.188 134.109C170.169 133.108 171.48 131.14 171.643 128.926C171.791 126.926 171.96 125.024 172.109 124.349C172.468 122.713 172.674 107.704 164.674 109.329Z" fill="url(#paint16_linear_860_1946)"/>
<path d="M165.409 111.891C163.748 111.602 162.11 112.486 161.442 114.036C156.66 125.124 162.531 132.338 165.412 132.489C168.45 132.648 168.388 118.017 167.744 114.267C167.474 112.694 166.477 112.077 165.409 111.891Z" fill="url(#paint17_linear_860_1946)"/>
<path d="M289.7 124.625C317.737 124.625 340.465 101.869 340.465 73.7977C340.465 45.7267 317.737 22.9707 289.7 22.9707C261.663 22.9707 238.935 45.7267 238.935 73.7977C238.935 101.869 261.663 124.625 289.7 124.625Z" fill="white"/>
<path d="M289.7 117.636C313.664 117.636 333.091 98.1854 333.091 74.192C333.091 50.1986 313.664 30.748 289.7 30.748C265.736 30.748 246.309 50.1986 246.309 74.192C246.309 98.1854 265.736 117.636 289.7 117.636Z" fill="url(#paint18_linear_860_1946)"/>
<g opacity="0.42">
<path d="M286.917 108.982C307.719 108.982 324.582 92.0976 324.582 71.2701C324.582 50.4426 307.719 33.5586 286.917 33.5586C266.114 33.5586 249.251 50.4426 249.251 71.2701C249.251 92.0976 266.114 108.982 286.917 108.982Z" fill="#91B3FA"/>
</g>
<path d="M287.858 16.7271C290.906 18.028 299.893 22.2792 301.614 23.0948C301.756 23.1626 301.793 23.349 301.686 23.4652L290.943 35.2374C290.492 35.7311 289.831 35.9792 289.166 35.9017L284.552 35.3632C284.382 35.3439 284.29 35.1539 284.38 35.0074L290.402 25.1109C290.478 24.9863 290.423 24.8229 290.287 24.7697L281.558 21.3631C280.859 21.0897 280.816 20.1143 281.49 19.7803L287.661 16.7307C287.724 16.7017 287.795 16.7005 287.858 16.7271Z" fill="#4E50FC"/>
<path d="M274.656 83.6476H263.161V80.6682L266.974 75.2662C268.019 73.7789 268.738 72.6753 269.129 71.9565C269.519 71.2376 269.808 70.5467 269.994 69.8871C270.18 69.2264 270.273 68.5439 270.273 67.8396C270.273 67.0179 270.089 66.4007 269.723 65.9905C269.357 65.579 268.881 65.3745 268.293 65.3745C267.775 65.3745 267.291 65.5113 266.842 65.786C266.392 66.0607 265.845 66.5544 265.2 67.2684L262.972 64.9195C263.998 63.7554 264.951 62.9579 265.83 62.5271C266.71 62.0963 267.662 61.8809 268.689 61.8809C270.418 61.8809 271.77 62.3903 272.743 63.4081C273.715 64.4258 274.201 65.8404 274.201 67.6508C274.201 68.4725 274.113 69.2506 273.938 69.9851C273.761 70.7197 273.496 71.4555 273.139 72.1949C272.782 72.9343 272.335 73.7015 271.797 74.499C271.259 75.2964 269.872 77.1237 267.633 79.9821V80.0995H274.656V83.6476Z" fill="url(#paint19_linear_860_1946)"/>
<path d="M289.434 79.1408H287.265V83.6473H283.512V79.1408H276.519V75.8964L282.999 62.1855H287.266V75.8371H289.436V79.1408H289.434ZM283.512 75.8383V71.3172L283.586 69.3205L283.688 67.4121H283.571C283.229 68.4783 282.858 69.4427 282.457 70.3044L279.876 75.8383H283.512Z" fill="url(#paint20_linear_860_1946)"/>
<path d="M301.852 62.1865L293.861 83.6471H290.108L298.099 62.1865H301.852Z" fill="url(#paint21_linear_860_1946)"/>
<path d="M304.667 83.6474L310.678 65.7531H303.201V62.2158H314.696V64.9168L308.788 83.6474H304.667Z" fill="url(#paint22_linear_860_1946)"/>
<defs>
<linearGradient id="paint0_linear_860_1946" x1="367.901" y1="388.4" x2="131.118" y2="136.649" gradientUnits="userSpaceOnUse">
<stop stop-color="#DAE3FE"/>
<stop offset="1" stop-color="#E9EFFD"/>
</linearGradient>
<linearGradient id="paint1_linear_860_1946" x1="318.055" y1="366.168" x2="30.209" y2="-11.1116" gradientUnits="userSpaceOnUse">
<stop stop-color="#09005D"/>
<stop offset="1" stop-color="#1A0F91"/>
</linearGradient>
<linearGradient id="paint2_linear_860_1946" x1="182.011" y1="-112.813" x2="172.134" y2="8.85496" gradientUnits="userSpaceOnUse">
<stop stop-color="#53D8FF"/>
<stop offset="1" stop-color="#3840F7"/>
</linearGradient>
<linearGradient id="paint3_linear_860_1946" x1="157.319" y1="208.874" x2="179.44" y2="149.047" gradientUnits="userSpaceOnUse">
<stop stop-color="#FEC6BA"/>
<stop offset="0.309028" stop-color="#FFBCB3"/>
</linearGradient>
<linearGradient id="paint4_linear_860_1946" x1="195.454" y1="50.16" x2="168.196" y2="131.837" gradientUnits="userSpaceOnUse">
<stop stop-color="#09005D"/>
<stop offset="1" stop-color="#1A0F91"/>
</linearGradient>
<linearGradient id="paint5_linear_860_1946" x1="194.895" y1="107.518" x2="130.192" y2="134.553" gradientUnits="userSpaceOnUse">
<stop stop-color="#FECEBA"/>
<stop offset="1" stop-color="#FFA28E"/>
</linearGradient>
<linearGradient id="paint6_linear_860_1946" x1="111.417" y1="246.627" x2="147.096" y2="340.405" gradientUnits="userSpaceOnUse">
<stop stop-color="#FEC6BA"/>
<stop offset="1" stop-color="#FFA28E"/>
</linearGradient>
<linearGradient id="paint7_linear_860_1946" x1="155.59" y1="229.821" x2="191.269" y2="323.599" gradientUnits="userSpaceOnUse">
<stop stop-color="#FECABA"/>
<stop offset="1" stop-color="#FFA28E"/>
</linearGradient>
<linearGradient id="paint8_linear_860_1946" x1="151.667" y1="285.244" x2="237.072" y2="305.749" gradientUnits="userSpaceOnUse">
<stop stop-color="#4042E2"/>
<stop offset="1" stop-color="#4F52FF"/>
</linearGradient>
<linearGradient id="paint9_linear_860_1946" x1="153.543" y1="277.431" x2="238.948" y2="297.936" gradientUnits="userSpaceOnUse">
<stop stop-color="#4042E2"/>
<stop offset="1" stop-color="#4F52FF"/>
</linearGradient>
<linearGradient id="paint10_linear_860_1946" x1="296.979" y1="247.743" x2="156.128" y2="159.507" gradientUnits="userSpaceOnUse">
<stop stop-color="#4042E2"/>
<stop offset="1" stop-color="#4F52FF"/>
</linearGradient>
<linearGradient id="paint11_linear_860_1946" x1="255.61" y1="309.219" x2="257.279" y2="240.841" gradientUnits="userSpaceOnUse">
<stop stop-color="#4042E2"/>
<stop offset="1" stop-color="#4F52FF"/>
</linearGradient>
<linearGradient id="paint12_linear_860_1946" x1="249.51" y1="195.216" x2="250.345" y2="244.415" gradientUnits="userSpaceOnUse">
<stop stop-color="#4042E2"/>
<stop offset="1" stop-color="#4F52FF"/>
</linearGradient>
<linearGradient id="paint13_linear_860_1946" x1="165.791" y1="146.017" x2="184.872" y2="127.696" gradientUnits="userSpaceOnUse">
<stop stop-color="#4042E2"/>
<stop offset="1" stop-color="#4F52FF"/>
</linearGradient>
<linearGradient id="paint14_linear_860_1946" x1="188.084" y1="140.865" x2="195.371" y2="140.865" gradientUnits="userSpaceOnUse">
<stop stop-color="#4042E2"/>
<stop offset="1" stop-color="#4F52FF"/>
</linearGradient>
<linearGradient id="paint15_linear_860_1946" x1="229.45" y1="76.6982" x2="70.2408" y2="131.815" gradientUnits="userSpaceOnUse">
<stop stop-color="#4042E2"/>
<stop offset="1" stop-color="#4F52FF"/>
</linearGradient>
<linearGradient id="paint16_linear_860_1946" x1="192.674" y1="112.598" x2="110.967" y2="140.884" gradientUnits="userSpaceOnUse">
<stop stop-color="#4042E2"/>
<stop offset="1" stop-color="#4F52FF"/>
</linearGradient>
<linearGradient id="paint17_linear_860_1946" x1="150.447" y1="71.7231" x2="157.125" y2="95.6234" gradientUnits="userSpaceOnUse">
<stop stop-color="#4042E2"/>
<stop offset="1" stop-color="#4F52FF"/>
</linearGradient>
<linearGradient id="paint18_linear_860_1946" x1="246.309" y1="74.1921" x2="333.092" y2="74.1921" gradientUnits="userSpaceOnUse">
<stop stop-color="#4042E2"/>
<stop offset="1" stop-color="#4F52FF"/>
</linearGradient>
<linearGradient id="paint19_linear_860_1946" x1="262.971" y1="72.763" x2="274.656" y2="72.763" gradientUnits="userSpaceOnUse">
<stop stop-color="#DAE3FE"/>
<stop offset="1" stop-color="#E9EFFD"/>
</linearGradient>
<linearGradient id="paint20_linear_860_1946" x1="276.518" y1="72.9169" x2="289.434" y2="72.9169" gradientUnits="userSpaceOnUse">
<stop stop-color="#DAE3FE"/>
<stop offset="1" stop-color="#E9EFFD"/>
</linearGradient>
<linearGradient id="paint21_linear_860_1946" x1="290.109" y1="72.9167" x2="301.852" y2="72.9167" gradientUnits="userSpaceOnUse">
<stop stop-color="#DAE3FE"/>
<stop offset="1" stop-color="#E9EFFD"/>
</linearGradient>
<linearGradient id="paint22_linear_860_1946" x1="303.202" y1="72.9316" x2="314.696" y2="72.9316" gradientUnits="userSpaceOnUse">
<stop stop-color="#DAE3FE"/>
<stop offset="1" stop-color="#E9EFFD"/>
</linearGradient>
</defs>
</svg>
