<svg width="26" height="26" viewBox="0 0 26 26" fill="none" xmlns="http://www.w3.org/2000/svg">
<g id="sortamountdown_120336 1">
<path id="Vector" d="M3.33794 17.42L3.40865 17.4907L3.33794 17.42C3.08735 17.6706 3.08735 18.0768 3.33794 18.3274L3.40865 18.2567L3.33794 18.3274L6.52847 21.518C6.64538 21.6735 6.83175 21.7744 7.04167 21.7744C7.25159 21.7744 7.43796 21.6735 7.55487 21.518L10.7454 18.3274C10.996 18.0768 10.996 17.6706 10.7454 17.42C10.4948 17.1694 10.0885 17.1694 9.83794 17.42L7.68333 19.5746V4.8737C7.68333 4.51932 7.39605 4.23203 7.04167 4.23203C6.68728 4.23203 6.4 4.51932 6.4 4.8737V19.5746L4.24539 17.42C3.99481 17.1694 3.58853 17.1694 3.33794 17.42ZM12.9 5.95703C12.9 6.31141 13.1873 6.5987 13.5417 6.5987H22.2083C22.5627 6.5987 22.85 6.31141 22.85 5.95703C22.85 5.60265 22.5627 5.31536 22.2083 5.31536H13.5417C13.1873 5.31536 12.9 5.60265 12.9 5.95703ZM12.9 10.2904C12.9 10.6447 13.1873 10.932 13.5417 10.932H20.0417C20.3961 10.932 20.6833 10.6447 20.6833 10.2904C20.6833 9.93598 20.3961 9.6487 20.0417 9.6487H13.5417C13.1873 9.6487 12.9 9.93598 12.9 10.2904ZM12.9 14.6237C12.9 14.9781 13.1873 15.2654 13.5417 15.2654H17.875C18.2294 15.2654 18.5167 14.9781 18.5167 14.6237C18.5167 14.2693 18.2294 13.982 17.875 13.982H13.5417C13.1873 13.982 12.9 14.2693 12.9 14.6237ZM12.9 18.957C12.9 19.3114 13.1873 19.5987 13.5417 19.5987H15.7083C16.0627 19.5987 16.35 19.3114 16.35 18.957C16.35 18.6026 16.0627 18.3154 15.7083 18.3154H13.5417C13.1873 18.3154 12.9 18.6026 12.9 18.957Z" fill="#5277F6" stroke="#5277F6" stroke-width="0.2"/>
</g>
</svg>
