<svg width="131" height="151" viewBox="0 0 131 151" fill="none" xmlns="http://www.w3.org/2000/svg">
<g opacity="0.7">
<path d="M130.293 108.801C130.293 108.753 130.293 108.729 130.293 108.681V98.2204L118.801 98.4837L101.435 88.4298C96.8006 85.6769 91.0664 85.6769 86.4322 88.4298L46.0352 112.655L26.7026 116.341V127.018C26.5154 129.196 27.4749 131.47 29.6048 132.715L55.5376 147.844C60.1718 150.597 65.906 150.597 70.5402 147.844L127.344 113.924C129.263 112.799 130.223 110.836 130.27 108.873V108.801H130.293Z" fill="#EEFF87"/>
<path d="M63.0502 150.597C60.3353 150.597 57.6203 149.879 55.2095 148.442L29.2768 133.314C27.0533 131.997 25.8363 129.579 26.0469 126.946V115.743L45.8242 111.961L86.0808 87.8074C90.9256 84.9588 96.9407 84.9588 101.762 87.8074L118.965 97.7656L130.948 97.4784V109.471H130.901C130.667 111.578 129.497 113.421 127.695 114.474L70.8909 148.466C68.4802 149.879 65.7652 150.597 63.0502 150.597ZM27.381 116.916V127.018C27.2172 129.148 28.2002 131.087 29.9556 132.117L55.8883 147.246C60.3119 149.855 65.812 149.855 70.2356 147.246L127.04 113.325C128.631 112.392 129.591 110.716 129.638 108.849V108.657V98.9147L118.637 99.178L101.107 89.0283C96.6833 86.419 91.1831 86.419 86.7595 89.0283L46.2922 113.301L27.381 116.916Z" fill="#191D71"/>
</g>
<path d="M29.6034 122.087L55.5361 137.215C60.1703 139.968 65.9046 139.968 70.5388 137.215L127.343 103.295C131.251 100.997 131.251 95.2282 127.343 92.9062L101.41 77.7774C96.7758 75.0245 91.0416 75.0245 86.4074 77.7774L29.6034 111.698C25.6947 113.996 25.6947 119.765 29.6034 122.087Z" fill="#809CE4"/>
<path d="M63.0501 139.944C60.3351 139.944 57.6201 139.226 55.2094 137.79L29.2767 122.661C27.2405 121.464 26 119.286 26 116.868C26 114.45 27.217 112.296 29.2767 111.075L86.0806 77.155C90.9255 74.3064 96.9406 74.3064 101.762 77.155L127.695 92.2839C129.754 93.5047 130.971 95.6591 130.971 98.0769C130.971 100.495 129.754 102.649 127.695 103.87L70.8908 137.79C68.4801 139.226 65.7651 139.944 63.0501 139.944ZM29.932 121.488L55.8647 136.617C60.2883 139.226 65.7885 139.226 70.212 136.617L127.016 102.697C128.654 101.739 129.614 100.016 129.614 98.1008C129.614 96.1858 128.654 94.4622 127.016 93.5047L101.083 78.3759C96.6597 75.7666 91.1595 75.7666 86.736 78.3759L29.932 112.296C28.2937 113.254 27.334 114.977 27.334 116.892C27.334 118.807 28.3171 120.531 29.932 121.488Z" fill="#191D71"/>
<path d="M33.1856 123.691H31.8516V134.774H33.1856V123.691Z" fill="#191D71"/>
<path d="M63.4239 138.987H62.0898V150.07H63.4239V138.987Z" fill="#191D71"/>
<path d="M70.0489 137.431H68.7148V148.514H70.0489V137.431Z" fill="#191D71"/>
<path d="M125.682 104.277H124.348V115.36H125.682V104.277Z" fill="#191D71"/>
<g opacity="0.7">
<path d="M71.8281 136.449V147.102L122.874 116.629V105.952L71.8281 136.449Z" fill="#191D71"/>
</g>
<path d="M56.2003 26.9729C56.2003 26.9729 51.1682 28.9837 51.1214 34.8964C51.0746 39.7319 55.8492 44.328 55.8492 44.328L58.3067 32.9095L56.2003 26.9729Z" fill="#EEFF87"/>
<path d="M56.1294 45.3334L55.474 44.687C55.2634 44.4955 50.559 39.8755 50.6058 34.8724C50.6526 28.6964 55.9656 26.4941 56.0124 26.4702L56.5039 26.2787L58.8444 32.8616L56.1294 45.3334ZM55.8953 27.691C54.7016 28.3374 51.659 30.42 51.6122 34.8964C51.5888 38.3913 54.2569 41.8145 55.5208 43.2507L57.7443 32.9574L55.8953 27.691Z" fill="#191D71"/>
<path d="M62.0966 12.7776C62.0966 12.7776 61.9795 12.8495 61.8157 12.9692C60.7624 13.6873 57.1581 16.3923 57.4156 20.5575C57.7199 25.4169 56.6666 28.8401 56.6666 28.8401L57.3219 35.2555C57.3219 35.2555 53.6239 37.0508 54.724 42.5565C55.8006 48.0623 58.9603 47.2484 58.9603 52.8978C58.9837 58.5232 62.471 39.2531 62.471 38.9419C62.471 38.6307 66.3797 27.2362 66.3329 26.2787C66.2627 25.3212 66.9882 18.3552 66.9882 18.3552L62.0263 12.8495L62.0966 12.7776Z" fill="#EEFF87"/>
<path d="M59.1009 54.4058C58.4221 54.4058 58.4222 53.5441 58.4222 52.8499C58.4222 50.0012 57.5796 48.924 56.5966 47.7032C55.7072 46.5781 54.7008 45.3094 54.1859 42.6283C53.2263 37.7689 55.8242 35.5666 56.7604 34.9442L56.1285 28.7682L56.1519 28.6725C56.1519 28.6485 57.1817 25.2733 56.8775 20.5814C56.62 16.1768 60.3648 13.3043 61.5117 12.5382C61.6989 12.3946 61.8159 12.3467 61.8159 12.3467L62.0499 12.7776L62.3308 12.5143L67.4565 18.1876L67.4331 18.427C67.1523 21.2038 66.731 25.5845 66.7778 26.2547C66.8246 26.8771 65.8884 29.8454 63.9224 35.8539C63.4309 37.3859 62.9627 38.8222 62.9159 39.0137C62.9159 39.1813 62.1436 43.4183 61.4882 46.626C59.9435 54.4058 59.6158 54.4058 59.1009 54.4058ZM57.1817 28.864L57.8604 35.5427L57.5328 35.7102C57.3924 35.7821 54.2327 37.4099 55.2157 42.4368C55.6838 44.8546 56.5732 45.9797 57.4158 47.0569C58.3052 48.2059 59.1711 49.2831 59.4052 51.5812C60.3648 47.7032 61.8861 39.4446 61.9563 38.8701C61.9563 38.7504 61.9797 38.6307 63.0096 35.4948C63.9926 32.5026 65.7948 26.9729 65.7948 26.2787C65.7479 25.393 66.2862 19.8872 66.4267 18.5228L61.9095 13.5197C60.7159 14.3575 57.6966 16.8471 57.9306 20.5096C58.2115 24.986 57.369 28.2416 57.1817 28.864Z" fill="#191D71"/>
<path d="M78.1994 6.14679C78.1994 6.14679 81.2421 8.63634 82.3187 13.2085C83.3953 17.7807 80.2591 21.2277 80.2591 21.2277C80.2591 21.2277 75.2972 16.2965 75.2738 15.8177C75.2504 15.339 76.4207 9.73749 76.4207 9.73749L78.1994 6.14679Z" fill="#EEFF87"/>
<path d="M80.2819 21.9698L79.9074 21.6107C74.8051 16.5359 74.7817 16.0811 74.7583 15.8656C74.7349 15.3869 75.5775 11.3653 75.9285 9.64173L75.9754 9.52204L78.035 5.33289L78.5265 5.73983C78.667 5.83558 81.733 8.39695 82.833 13.0888C83.9565 17.8764 80.7734 21.4432 80.6564 21.5868L80.2819 21.9698ZM75.7881 15.722C76.1392 16.2486 78.1989 18.427 80.2117 20.4378C80.9607 19.4084 82.6224 16.6556 81.8266 13.3042C81.0543 10.0247 79.2287 7.84637 78.3627 6.98461L76.935 9.90505C76.3967 12.3707 75.8583 15.1235 75.7881 15.722Z" fill="#191D71"/>
<path d="M82.7632 22.0177C82.7632 22.0177 85.8527 24.4354 85.1739 29.223C84.4952 34.0106 79.2057 37.4577 79.2057 37.4577L78.1992 26.2787L82.7632 22.0177Z" fill="#EEFF87"/>
<path d="M78.7855 38.3434L77.6621 26.0393L82.741 21.3235L83.092 21.5868C83.2324 21.6826 86.4156 24.2679 85.69 29.2709C84.9879 34.2261 79.7217 37.721 79.4877 37.8647L78.7855 38.3434ZM78.7387 26.4702L79.6515 36.5002C81.0793 35.399 84.1921 32.6222 84.6836 29.1512C85.1985 25.6084 83.5134 23.4779 82.7878 22.7358L78.7387 26.4702Z" fill="#191D71"/>
<path d="M62.237 6.76923C62.237 6.76923 62.1199 6.84104 61.9561 6.96073C60.9029 7.67887 57.2985 10.3839 57.556 14.5491C57.8603 19.4085 56.807 22.8316 56.807 22.8316L57.2049 26.7575C57.2049 26.7575 52.3366 27.8347 53.4133 33.3404C54.4899 38.8462 59.0773 41.24 59.0773 46.8654C59.1007 52.4909 62.5881 33.2207 62.5881 32.9095C62.5881 32.6223 66.4967 21.2039 66.4499 20.2463C66.3797 19.2888 67.1052 12.3229 67.1052 12.3229L62.1434 6.8171L62.237 6.76923Z" fill="#EEFF87"/>
<path d="M59.242 48.4214C58.5633 48.4214 58.5632 47.5596 58.5632 46.8654C58.5632 43.945 57.2526 41.9342 55.8483 39.7797C54.6546 37.9365 53.4141 36.0454 52.8992 33.4362C51.9396 28.5289 55.3801 26.8293 56.6206 26.3744L56.2462 22.7598L56.2695 22.664C56.2695 22.6401 57.2993 19.2648 56.9951 14.573C56.7376 10.1684 60.4824 7.29584 61.6293 6.52982C61.8165 6.38619 61.9336 6.33832 61.9336 6.33832L62.1676 6.7692L62.4485 6.50588L67.5742 12.1792L67.5508 12.4186C67.2699 15.1954 66.8486 19.576 66.8954 20.2463C66.9422 20.8687 66.006 23.837 64.04 29.8455C63.5485 31.3775 63.0804 32.8138 63.0336 33.0053C63.0336 33.1728 62.2612 37.4099 61.6059 40.6176C60.0845 48.3974 59.7569 48.3974 59.242 48.4214ZM57.3228 22.8556L57.7675 27.1405L57.3228 27.2362C57.1355 27.2841 52.9694 28.2895 53.929 33.1968C54.3971 35.5906 55.5908 37.4099 56.7142 39.1573C57.9313 41.0484 59.1952 42.9874 59.5229 45.5727C60.4825 41.7187 62.0272 33.3883 62.074 32.8138C62.074 32.6941 62.0974 32.5744 63.1272 29.4385C64.1102 26.4463 65.9124 20.9166 65.9124 20.2224C65.8656 19.3367 66.4039 13.8309 66.5444 12.4665L62.0271 7.4634C60.8335 8.30123 57.8143 10.8147 58.0483 14.4533C58.3526 18.9776 57.51 22.2332 57.3228 22.8556Z" fill="#191D71"/>
<path d="M48.1719 113.006C48.1719 112.982 48.1719 75.0165 48.1719 74.5856C48.1719 74.5378 48.1953 74.4899 48.2421 74.4899L60.2254 75.591H60.2489L61.3489 68.8166C61.3723 68.7926 61.4191 68.7926 61.4425 68.8166L101.746 58.1163C101.769 58.1402 101.793 58.1402 101.816 58.1163L103.923 57.5178C103.993 57.4939 104.063 57.5418 104.063 57.6136C104.063 58.1641 104.063 95.8665 104.063 95.9383V95.9623C104.016 96.3214 103.852 96.6804 103.478 96.8719L63.1043 120.666C62.1681 121.241 60.9978 121.241 60.0382 120.666L48.757 114.035C48.3825 113.796 48.1953 113.413 48.1719 113.006Z" fill="#191D71"/>
<path d="M61.5823 121.6C60.9737 121.6 60.3418 121.432 59.8035 121.121L48.5222 114.49C48.0073 114.179 47.7031 113.652 47.6797 113.054V113.03C47.6797 113.006 47.6797 74.9686 47.6797 74.5856C47.6797 74.2983 47.8669 74.059 48.1244 73.9872L48.218 73.9632L59.8503 75.0404L60.9035 68.5053L61.1141 68.3857C61.2078 68.3138 61.3482 68.2899 61.4652 68.3138L101.862 57.5896L101.886 57.6135L103.828 57.063C104.016 57.0151 104.226 57.039 104.367 57.1587C104.53 57.2784 104.601 57.4699 104.601 57.6614C104.601 57.8529 104.601 62.4012 104.601 68.3138C104.601 95.9623 104.601 95.9862 104.601 96.0341C104.53 96.6086 104.25 97.1113 103.782 97.3746L63.4079 121.169C62.8227 121.432 62.1908 121.6 61.5823 121.6ZM48.6861 112.982C48.7095 113.246 48.8265 113.461 49.0137 113.557L60.295 120.188C61.0907 120.642 62.0503 120.642 62.8461 120.188L103.22 96.3931C103.477 96.2495 103.524 96.0101 103.547 95.8665C103.547 95.6271 103.547 79.1338 103.547 68.242C103.547 63.4544 103.547 59.5525 103.547 58.1402L101.956 58.595C101.886 58.6189 101.815 58.6189 101.769 58.6189L61.7929 69.2474L60.7162 75.9022L60.2715 76.1176L48.6627 75.0644C48.6861 79.3971 48.6861 112.144 48.6861 112.982Z" fill="#191D71"/>
<path d="M48.2421 74.4899L60.2254 75.591H60.2489L61.6532 79.7802V121.097C61.0915 121.121 60.5297 120.978 60.0382 120.69L48.757 114.059C48.3825 113.844 48.1953 113.461 48.1719 113.054V113.03C48.1719 113.006 48.1719 75.0404 48.1719 74.6096C48.1719 74.5378 48.1953 74.4899 48.2421 74.4899Z" fill="#EEFF87"/>
<path d="M61.5823 121.6C60.9503 121.6 60.3418 121.432 59.8035 121.121L48.5222 114.49C48.0073 114.203 47.7031 113.652 47.6797 113.054C47.6797 113.006 47.6797 74.9686 47.6797 74.5856C47.6797 74.2983 47.8669 74.0589 48.1244 73.9871L48.218 73.9632L60.1545 75.0643L60.5758 74.825L62.2142 79.7562V121.576L61.7227 121.6C61.6525 121.6 61.6057 121.6 61.5823 121.6ZM48.6861 75.0643C48.6861 79.445 48.6861 112.862 48.6861 113.03C48.7095 113.269 48.8265 113.485 49.0137 113.605L60.295 120.235C60.5524 120.379 60.8567 120.499 61.1376 120.547V79.8759L59.8737 76.1176L48.6861 75.0643Z" fill="#191D71"/>
<path d="M100.105 60.4861C100.105 60.4861 102.212 58.595 102.001 58.0205L103.944 57.4699C104.014 57.446 104.084 57.4938 104.084 57.5657C104.084 58.1162 104.084 95.8186 104.084 95.8904V95.9144C104.037 96.2734 103.874 96.6325 103.523 96.824L100.152 98.9066V63.2629V60.4861H100.105Z" fill="#EEFF87"/>
<path d="M99.5918 99.8162V60.2227L99.7556 60.0552C100.598 59.3131 101.371 58.4035 101.488 58.0923L101.324 57.6374L103.805 56.9193C103.992 56.8714 104.203 56.8954 104.343 57.015C104.507 57.1347 104.577 57.3262 104.577 57.5177C104.577 57.7093 104.577 62.2575 104.577 68.1702C104.577 95.8186 104.577 95.8425 104.577 95.8904C104.507 96.4649 104.226 96.9676 103.758 97.2309L99.5918 99.8162ZM100.622 60.7015V97.9491L103.22 96.3452C103.477 96.2016 103.547 95.9622 103.547 95.8186C103.547 95.5792 103.547 79.0859 103.547 68.1941C103.547 63.4065 103.547 59.5046 103.547 58.0923L102.447 58.4035C102.33 58.8583 101.885 59.5525 100.622 60.7015Z" fill="#191D71"/>
<path d="M63.0574 82.2458L103.478 58.4275C104.274 57.9487 104.274 56.7997 103.478 56.3209L92.1499 49.6662C91.2371 49.1156 90.1136 49.1156 89.1774 49.6662L48.757 73.4845C47.9612 73.9633 47.9612 75.1123 48.757 75.591L60.085 82.2458C61.0212 82.7964 62.1446 82.7964 63.0574 82.2458Z" fill="#809CE4"/>
<path d="M61.5823 83.1794C60.9737 83.1794 60.3886 83.0118 59.8503 82.7006L48.5222 76.0458C47.9839 75.7346 47.6797 75.1601 47.6797 74.5377C47.6797 73.9153 47.9839 73.3408 48.5222 73.0296L88.9661 49.2113C90.0427 48.565 91.3768 48.565 92.4301 49.2113L103.758 55.8661C104.296 56.1773 104.601 56.7518 104.601 57.3742C104.601 57.9966 104.296 58.5711 103.758 58.8823L63.3142 82.7006C62.7759 83.0357 62.1674 83.1794 61.5823 83.1794ZM90.6747 49.8098C90.2534 49.8098 89.8321 49.9294 89.4576 50.1449L49.0137 73.9632C48.7095 74.1308 48.6861 74.442 48.6861 74.5617C48.6861 74.6814 48.7095 74.9686 49.0137 75.1601L60.3418 81.8149C61.0908 82.2697 62.0269 82.2697 62.7993 81.8149L103.22 57.9966C103.524 57.829 103.547 57.5178 103.547 57.3981C103.547 57.2784 103.524 56.9912 103.22 56.7997L91.8917 50.1449C91.5172 49.9294 91.096 49.8098 90.6747 49.8098Z" fill="#191D71"/>
<path d="M50.793 68.9601C50.793 68.9362 50.793 63.5023 50.793 63.0475C50.793 62.9996 50.8164 62.9756 50.8632 62.9517L92.1028 46.8654H92.1262L93.2263 40.0909C93.2497 40.067 93.2965 40.067 93.3199 40.0909L104.367 46.5781C104.39 46.602 104.414 46.602 104.437 46.5781L106.544 45.9796C106.614 45.9557 106.684 46.0036 106.684 46.0754C106.684 46.626 106.684 51.8205 106.684 51.8923V51.9163C106.637 52.2753 106.474 52.6344 106.122 52.8259L65.7488 76.6203C64.8126 77.1948 63.6424 77.1948 62.6828 76.6203L51.4015 69.9895C51.0036 69.7501 50.8164 69.3671 50.793 68.9601Z" fill="#191D71"/>
<path d="M64.2034 77.5539C63.5948 77.5539 62.9629 77.3863 62.4246 77.0751L51.1433 70.4443C50.6284 70.1571 50.3242 69.6065 50.3008 69.008L50.8157 68.9602L50.3008 68.9841C50.3008 68.9362 50.3008 63.0953 50.3008 63.0475C50.3008 62.7602 50.488 62.5208 50.7455 62.449L91.7043 46.4824L92.8043 39.7797L93.0149 39.66C93.2022 39.5403 93.4362 39.5403 93.6234 39.66L104.507 46.0515L106.449 45.5009C106.637 45.453 106.847 45.477 106.988 45.5966C107.152 45.7163 107.222 45.9078 107.222 46.0993V47.5835C107.222 51.8923 107.222 51.9163 107.222 51.9642C107.152 52.5387 106.871 53.0414 106.403 53.3047L66.029 77.0991C65.4438 77.3863 64.8119 77.5539 64.2034 77.5539ZM51.3072 68.9362C51.3306 69.1995 51.4476 69.415 51.6349 69.5107L62.916 76.1416C63.7118 76.5964 64.6714 76.5964 65.4672 76.1416L105.841 52.3472C106.098 52.2035 106.145 51.9642 106.169 51.8205C106.169 51.7008 106.169 49.2113 106.169 47.5356V46.602L104.577 47.0569C104.413 47.1047 104.249 47.0808 104.109 47.009L93.6234 40.8569L92.5937 47.1766L92.2425 47.3681L51.3072 63.3347C51.3072 64.5316 51.3072 68.649 51.3072 68.9362Z" fill="#191D71"/>
<path d="M50.8632 62.9517L92.1028 46.8654H92.1262L64.2743 68.242V77.0512C63.7126 77.0751 63.1508 76.9315 62.6593 76.6442L51.3781 70.0134C51.0036 69.798 50.8164 69.415 50.793 69.008V68.9841C50.793 68.9601 50.793 63.5262 50.793 63.0714C50.793 62.9996 50.8164 62.9756 50.8632 62.9517Z" fill="#EEFF87"/>
<path d="M64.2034 77.5539C63.5714 77.5539 62.9629 77.3864 62.4246 77.0752L51.1433 70.4443C50.6284 70.1571 50.3242 69.6065 50.3008 69.008C50.3008 68.9602 50.3008 63.1193 50.3008 63.0475C50.3008 62.7842 50.4646 62.5448 50.7221 62.449L91.9617 46.3627L92.4766 47.2723L64.8353 68.4814V77.53L64.3438 77.5539C64.2736 77.5539 64.2268 77.5539 64.2034 77.5539ZM51.3072 63.3347C51.3072 64.5556 51.3072 68.8405 51.3072 68.9602C51.3072 69.1995 51.4476 69.415 51.6349 69.5347L62.916 76.1655C63.1735 76.3331 63.4778 76.4288 63.7587 76.4767V67.9787L88.8956 48.6847L51.3072 63.3347Z" fill="#191D71"/>
<path d="M102.727 48.9479C102.727 48.9479 104.833 47.0568 104.622 46.4823L106.565 45.9317C106.635 45.9078 106.705 45.9556 106.705 46.0274C106.705 46.578 106.705 51.7726 106.705 51.8444V51.8683C106.659 52.2274 106.495 52.5865 106.144 52.778L102.773 54.8606V51.7247V48.9479H102.727Z" fill="#EEFF87"/>
<path d="M102.213 55.7703V48.6846L102.377 48.517C103.219 47.775 103.992 46.8653 104.085 46.5541L103.921 46.0993L106.402 45.3811C106.59 45.3333 106.8 45.3572 106.941 45.4769C107.105 45.5966 107.175 45.7881 107.175 45.9796V47.4638C107.175 51.7726 107.175 51.7965 107.175 51.8444C107.105 52.4189 106.824 52.9216 106.356 53.1849L102.213 55.7703ZM103.243 49.1873V53.927L105.841 52.3232C106.098 52.1796 106.145 51.9402 106.168 51.7965C106.168 51.6768 106.168 49.1873 106.168 47.5116V46.5781L105.068 46.8892C104.951 47.3201 104.483 48.0383 103.243 49.1873Z" fill="#191D71"/>
<path d="M65.6786 70.7316L106.099 46.9133C106.895 46.4345 106.895 45.2855 106.099 44.8067L94.771 38.1519C93.8582 37.6014 92.7347 37.6014 91.7985 38.1519L51.3781 61.9703C50.5823 62.449 50.5823 63.5981 51.3781 64.0768L62.7061 70.7316C63.6423 71.2822 64.7658 71.2582 65.6786 70.7316Z" fill="#809CE4"/>
<path d="M64.2034 71.6651C63.5948 71.6651 63.0097 71.4976 62.4713 71.1864L51.1433 64.5316C50.605 64.2204 50.3008 63.6459 50.3008 63.0235C50.3008 62.4011 50.605 61.8266 51.1433 61.5154L91.5872 37.6971C92.6638 37.0508 93.9979 37.0508 95.0512 37.6971L106.379 44.3519C106.917 44.6631 107.222 45.2376 107.222 45.86C107.222 46.4823 106.917 47.0569 106.379 47.368L65.9587 71.1864C65.397 71.4976 64.7885 71.6651 64.2034 71.6651ZM93.2958 38.2716C92.8745 38.2716 92.4532 38.3913 92.0787 38.6067L51.6349 62.4251C51.3306 62.5926 51.3072 62.9038 51.3072 63.0235C51.3072 63.1432 51.3306 63.4305 51.6349 63.622L62.9629 70.2767C63.7119 70.7316 64.648 70.7316 65.4204 70.2767L105.841 46.4584C106.145 46.2908 106.169 45.9796 106.169 45.86C106.169 45.7403 106.145 45.453 105.841 45.2615L94.5128 38.6067C94.1383 38.3913 93.7171 38.2716 93.2958 38.2716Z" fill="#191D71"/>
<path d="M59.5931 110.469L65.8657 106.83C66.1231 106.687 66.3338 106.28 66.3338 105.92V93.6882C66.3338 93.3291 66.1231 93.1855 65.8657 93.3291L59.5931 96.9677C59.3357 97.1113 59.125 97.5182 59.125 97.8773V110.11C59.125 110.469 59.3357 110.636 59.5931 110.469Z" fill="#809CE4"/>
<path d="M59.4051 111.067C59.2647 111.067 59.1477 111.043 59.0306 110.971C58.7732 110.804 58.6094 110.517 58.6094 110.134V97.9012C58.6094 97.3507 58.9136 96.7762 59.3349 96.5368L65.6309 92.8982C65.9117 92.7306 66.1926 92.7306 66.4501 92.8742C66.7075 93.0418 66.8713 93.3291 66.8713 93.7121V105.944C66.8713 106.495 66.5671 107.069 66.1458 107.309L59.8733 110.947C59.7094 111.019 59.569 111.067 59.4051 111.067ZM65.8415 93.9515L59.8498 97.4225C59.7796 97.4704 59.6392 97.6858 59.6392 97.8773V109.846L65.6309 106.375C65.7011 106.327 65.8415 106.112 65.8415 105.92V93.9515Z" fill="#191D71"/>
<path d="M61.6758 99.6009C61.6758 100.008 61.9567 100.175 62.3078 99.9839C62.6588 99.7684 62.9397 99.2657 62.9397 98.8588C62.9397 98.4518 62.6588 98.2843 62.3078 98.4758C61.9801 98.6673 61.6758 99.17 61.6758 99.6009Z" fill="#191D71"/>
<path d="M69.9381 106.184L73.9872 103.646C74.2213 103.503 74.4553 103.503 74.6192 103.622C74.6192 103.622 74.6426 103.622 74.6426 103.646L78.7385 106.136C78.8321 106.184 78.8789 106.327 78.8087 106.423L74.9469 110.852C74.9235 110.876 74.9234 109.248 74.9234 109.296V113.389C74.9234 114.083 74.5022 114.897 73.9872 115.208L77.6384 113.198C77.615 113.222 77.5916 113.245 77.5682 113.269L73.7064 120.164C73.6596 120.259 73.5192 120.307 73.4255 120.235L69.3062 117.746C69.119 117.626 69.0254 117.363 69.0254 117.004V108.003C69.0254 107.309 69.4232 106.495 69.9381 106.184Z" fill="#809CE4"/>
<path d="M73.5184 120.81C73.378 120.81 73.2609 120.786 73.1439 120.714L69.0247 118.225C68.6736 117.961 68.4863 117.554 68.4863 117.028V108.027C68.4863 107.141 69.0013 106.16 69.68 105.753L73.729 103.215C74.1503 102.976 74.5716 102.952 74.9227 103.192L79.0186 105.681C79.3463 105.897 79.4633 106.327 79.2761 106.686L79.2059 106.782L75.4376 111.091V113.389C75.4376 113.533 75.4142 113.7 75.3908 113.844L77.3803 112.743L77.8718 113.652C77.9186 113.628 77.9654 113.581 77.9888 113.533L74.1269 120.427C74.0333 120.594 73.8695 120.714 73.6822 120.786C73.6588 120.81 73.5886 120.81 73.5184 120.81ZM74.3376 104.077C74.3142 104.077 74.2908 104.077 74.2439 104.101L70.1949 106.639C69.8672 106.83 69.5162 107.452 69.5162 108.003V117.004C69.5162 117.219 69.563 117.315 69.5864 117.315L73.4014 119.613L76.2334 114.538L74.2206 115.663L73.729 114.754C74.0567 114.562 74.4078 113.94 74.4078 113.389V108.769H75.4376V109.344C75.4376 109.415 75.4376 109.463 75.4376 109.511L78.1526 106.399L74.3844 104.101C74.3844 104.101 74.361 104.077 74.3376 104.077Z" fill="#191D71"/>
<path d="M77.6599 113.198C77.6365 113.222 77.5897 113.269 77.5663 113.293L73.7512 120.116C73.681 120.259 73.5172 120.307 73.3767 120.211L69.3043 117.746C69.117 117.626 69.0234 117.363 69.0234 117.004V108.123C69.0234 108.075 69.0703 108.051 69.1171 108.075L73.3534 110.66L77.6599 113.198Z" fill="#EEFF87"/>
<path d="M73.495 120.786C73.3546 120.786 73.2142 120.738 73.0971 120.666L69.048 118.201C68.697 117.937 68.5098 117.53 68.5098 117.004V107.812L68.7906 107.596C68.9779 107.5 69.1885 107.5 69.3757 107.596L73.6588 110.205L78.4803 113.054L78.0122 113.533L77.6377 113.174L77.942 113.605L74.1504 120.379C74.0568 120.571 73.8695 120.69 73.6588 120.762C73.6354 120.786 73.5653 120.786 73.495 120.786ZM69.5162 108.937V117.028C69.5162 117.243 69.563 117.339 69.5864 117.339L73.4014 119.637L76.9122 113.365L73.0269 111.067L69.5162 108.937Z" fill="#191D71"/>
<path d="M74.2917 120.379L78.3407 117.842C78.8556 117.53 79.2769 116.716 79.2769 116.022V107.022C79.2769 106.327 78.8556 105.992 78.3407 106.303L74.2917 108.841C73.7767 109.152 73.3555 109.966 73.3555 110.66V119.661C73.3555 120.355 73.7767 120.69 74.2917 120.379Z" fill="#191D71"/>
<path d="M73.9165 121.025C73.7526 121.025 73.5654 120.977 73.425 120.882C73.0505 120.666 72.8398 120.211 72.8398 119.661V110.66C72.8398 109.774 73.3547 108.793 74.0335 108.386L78.0591 105.873C78.457 105.633 78.8549 105.633 79.1826 105.825C79.5571 106.04 79.7677 106.495 79.7677 107.046V116.046C79.7677 116.956 79.2528 117.913 78.574 118.32L74.525 120.858C74.3378 120.954 74.1271 121.025 73.9165 121.025ZM78.6911 106.71C78.6911 106.71 78.6443 106.734 78.5975 106.758L74.5718 109.272C74.2441 109.463 73.893 110.086 73.893 110.636V119.637C73.893 119.828 73.9398 119.924 73.9632 119.948C73.9632 119.948 74.0101 119.924 74.0569 119.9L78.106 117.387C78.4336 117.195 78.7847 116.573 78.7847 116.022V107.022C78.7613 106.83 78.7145 106.734 78.6911 106.71Z" fill="#191D71"/>
<path d="M71.3922 104.931L70.8477 105.825L75.0191 108.483L75.5636 107.589L71.3922 104.931Z" fill="#191D71"/>
<path d="M69.5883 112.167L69.0566 113.069L74.0276 116.134L74.5593 115.232L69.5883 112.167Z" fill="#191D71"/>
<path d="M77.615 9.54602C79.581 10.2402 81.0789 11.8919 81.6406 13.9267C81.9917 15.2193 82.6471 16.8232 83.8641 18.451C86.6259 22.1614 84.3322 26.4941 81.2661 26.7575C78.2001 27.0208 76 16.7753 76 16.7753C76 16.7753 76.8192 9.42633 77.2171 9.42633C77.2873 9.42633 77.4277 9.47421 77.615 9.54602Z" fill="#EEFF87"/>
<path d="M81.1718 27.2841C77.9186 27.2841 75.8823 18.6424 75.5078 16.895L75.4844 16.7992V16.7035C76.3504 8.89966 76.7249 8.89966 77.2164 8.89966C77.31 8.89966 77.4504 8.92359 77.7547 9.01935C79.8611 9.76143 81.4995 11.5328 82.108 13.7591C82.5293 15.315 83.2549 16.7753 84.2379 18.1158C85.6422 20.0069 85.9699 22.305 85.1039 24.2918C84.3783 25.9914 82.9038 27.1165 81.2654 27.2601C81.2654 27.2841 81.2187 27.2841 81.1718 27.2841ZM76.5142 16.7513C77.3802 20.749 79.3696 26.2308 81.1484 26.2308C81.1718 26.2308 81.1952 26.2308 81.2186 26.2308C82.4591 26.135 83.6059 25.2254 84.191 23.8849C84.9166 22.2331 84.6358 20.366 83.4421 18.7621C82.3655 17.3258 81.5931 15.7459 81.125 14.0463C80.6101 12.1792 79.2526 10.695 77.4972 10.0487C77.2398 11.0541 76.8185 14.0224 76.5142 16.7513Z" fill="#191D71"/>
<path d="M75.5101 18.1637C75.5101 18.1637 79.6762 17.3976 80.6358 21.2756C81.5954 25.1296 82.8359 34.1543 82.8359 40.9287C82.8359 45.86 84.5445 53.3526 84.5445 53.3526L71.5781 51.5811L68.7227 41.9341L75.5101 18.1637Z" fill="white"/>
<path d="M85.2224 53.975L71.2029 52.0599L68.207 41.9341L75.1115 17.7089L75.4157 17.661C77.0073 17.3737 80.284 17.7328 81.1266 21.1559C82.0394 24.7706 83.3266 33.891 83.3266 40.9527C83.3266 45.7642 85.0118 53.185 85.0352 53.2568L85.2224 53.975ZM71.9752 51.1024L83.8884 52.7302C83.4671 50.6955 82.3202 45.0221 82.3202 40.9287C82.3202 33.9628 81.033 24.9621 80.1436 21.3953C79.4415 18.5706 76.8201 18.5467 75.9073 18.6424L69.2603 41.9341L71.9752 51.1024Z" fill="#191D71"/>
<path d="M101.325 111.043C101.325 111.043 100.95 108.219 98.3759 105.825C95.8014 103.431 92.4076 98.4039 92.4076 98.4039L91.4246 97.3506L90.5586 97.6379C90.5586 97.6379 90.9799 103.958 90.5586 106.782L92.548 107.979L92.8289 107.189C92.8289 107.189 95.2864 109.918 97.6737 110.804C100.061 111.69 101.325 111.043 101.325 111.043Z" fill="#191D71"/>
<path d="M100.037 111.785C99.3815 111.785 98.539 111.666 97.4857 111.283C95.7069 110.612 93.9048 109.008 93.0154 108.123L92.8047 108.721L89.9961 107.046L90.0429 106.686C90.4408 103.958 90.0429 97.7097 90.0429 97.6618L90.0195 97.2549L91.5876 96.7522L92.8515 98.1167C92.8749 98.1645 96.2452 103.12 98.7495 105.442C101.441 107.931 101.862 110.876 101.862 110.995L101.909 111.378L101.582 111.546C101.511 111.546 100.996 111.785 100.037 111.785ZM92.6409 106.208L93.2026 106.83C93.226 106.854 95.6133 109.487 97.8368 110.301C99.2411 110.828 100.224 110.78 100.739 110.684C100.528 109.822 99.873 107.907 98.0474 106.208C95.5197 103.886 92.36 99.2178 92.009 98.7151L91.2833 97.9252L91.0961 97.997C91.1898 99.3854 91.4004 103.934 91.1196 106.495L92.2898 107.189L92.6409 106.208Z" fill="#191D71"/>
<path d="M95.6114 97.9491C95.6114 97.9491 96.0327 102.928 98.3732 105.825C98.3732 105.825 97.32 107.955 94.488 105.825C91.656 103.694 91.4453 96.5128 91.4453 96.5128L95.6114 97.9491Z" fill="#EEFF87"/>
<path d="M96.7595 107.309C95.9871 107.309 95.1211 106.95 94.1849 106.256C91.189 103.981 90.9316 96.824 90.9316 96.5368L90.9082 95.7708L96.0807 97.5661L96.1041 97.9012C96.1041 97.9491 96.5488 102.761 98.7488 105.49L98.9595 105.753L98.819 106.064C98.7956 106.112 98.351 106.974 97.3212 107.237C97.1573 107.285 96.9467 107.309 96.7595 107.309ZM92.0082 97.2549C92.1487 99.1221 92.7103 103.838 94.7934 105.394C95.6828 106.064 96.4786 106.351 97.0871 106.208C97.3914 106.136 97.602 105.968 97.719 105.825C95.8466 103.239 95.2615 99.4811 95.1211 98.3321L92.0082 97.2549Z" fill="#191D71"/>
<path d="M95.9421 113.437C95.9421 113.437 95.5676 110.612 92.993 108.218C90.4185 105.825 87.0248 100.798 87.0248 100.798L86.0418 99.7444C86.0418 99.7444 85.5971 106.351 85.1758 109.176L87.1652 110.373L87.4461 109.583C87.4461 109.583 89.9036 112.312 92.2909 113.198C94.6548 114.059 95.9421 113.437 95.9421 113.437Z" fill="#191D71"/>
<path d="M94.6306 114.179C93.9753 114.179 93.1327 114.059 92.0795 113.676C90.3007 113.006 88.4985 111.402 87.6091 110.517L87.3985 111.115L84.5898 109.439L84.6366 109.08C85.0579 106.303 85.5027 99.7683 85.5027 99.6965L85.5729 98.4996L87.3985 100.486C87.4219 100.534 90.7922 105.49 93.2965 107.812C95.9881 110.301 96.4093 113.245 96.4093 113.365L96.4562 113.748L96.1285 113.916C96.1285 113.94 95.5902 114.179 94.6306 114.179ZM87.2346 108.601L87.7963 109.224C87.8197 109.248 90.2071 111.881 92.4305 112.695C93.8348 113.222 94.8178 113.174 95.3327 113.078C95.1221 112.216 94.4668 110.301 92.6412 108.601C90.1368 106.279 86.9537 101.612 86.6026 101.109L86.4389 100.941C86.2984 102.88 85.9941 106.686 85.6899 108.889L86.8367 109.583L87.2346 108.601Z" fill="#191D71"/>
<path d="M90.2071 100.343C90.2071 100.343 90.6284 105.322 92.9689 108.219C92.9689 108.219 91.9157 110.349 89.0837 108.219C86.2517 106.088 86.041 98.9066 86.041 98.9066L90.2071 100.343Z" fill="#EEFF87"/>
<path d="M91.3766 109.679C90.6043 109.679 89.7383 109.32 88.8021 108.625C85.8062 106.351 85.5488 99.1939 85.5488 98.9066L85.5254 98.1406L90.6979 99.936L90.7213 100.271C90.7213 100.319 91.166 105.131 93.3661 107.859L93.5767 108.123L93.4363 108.434C93.4129 108.482 92.9682 109.344 91.9384 109.607C91.7512 109.679 91.5639 109.679 91.3766 109.679ZM86.6254 99.6487C86.7659 101.516 87.3276 106.232 89.4106 107.788C90.3 108.458 91.0958 108.745 91.7043 108.602C92.0086 108.53 92.1958 108.362 92.3363 108.219C90.4639 105.633 89.8788 101.875 89.7383 100.726L86.6254 99.6487Z" fill="#191D71"/>
<path d="M91.8228 72.1678C96.5272 69.5586 98.6337 67.8829 97.6506 64.4358L94.8421 61.9941L85.0822 60.6776L78.9969 66.4227L78.1777 70.4921L83.9353 74.1307C83.9588 74.1068 88.0546 74.2504 91.8228 72.1678Z" fill="#191D71"/>
<path d="M84.1453 74.6335C84.0282 74.6335 83.9346 74.6335 83.9346 74.6335H83.7942L77.6152 70.7316L78.5515 66.1355L84.9177 60.1031L95.0754 61.4676L98.118 64.1007L98.1648 64.2444C99.3117 68.242 96.5031 70.1331 92.0796 72.5748C88.6625 74.5138 85.0815 74.6335 84.1453 74.6335ZM84.0985 73.5802C84.8474 73.5802 88.3581 73.4844 91.588 71.6891C96.3627 69.0559 97.9543 67.5718 97.2053 64.7231L94.6307 62.4969L85.2687 61.2282L79.4877 66.686L78.7621 70.2289L84.0985 73.5802Z" fill="#191D71"/>
<path d="M93.1311 62.8559C93.1311 62.8559 97.6717 62.3293 97.6717 71.1385C97.6717 79.9477 96.1972 91.7013 96.2674 99.0024C96.2674 99.0024 93.3184 100.104 91.4226 97.3267C91.4226 97.3267 91.7502 92.1321 90.931 85.4056C90.1119 78.679 90.4395 72.1439 90.931 70.54C90.931 70.54 83.9563 70.7076 79.0179 66.0158C74.1028 61.3239 86.5777 57.8768 86.5777 57.8768L93.1311 62.8559Z" fill="white"/>
<path d="M94.934 99.7684C93.6936 99.7684 92.1254 99.2896 91.0019 97.6379L90.9084 97.4943V97.3028C90.9084 97.2549 91.2126 92.0603 90.4168 85.4774C89.6913 79.5647 89.8551 73.5084 90.2764 71.0667C88.3806 70.9949 82.857 70.3964 78.6675 66.3988C77.5675 65.3694 77.1696 64.2683 77.4271 63.1432C78.2696 59.6961 85.5954 57.5896 86.438 57.3502L86.6721 57.2784L93.2722 62.3054C93.7169 62.3054 94.7936 62.4251 95.8234 63.3586C97.3681 64.771 98.1639 67.3802 98.1639 71.1146C98.1639 75.591 97.7895 80.7855 97.415 85.8125C97.0639 90.7437 96.7128 95.3877 96.7596 98.9784V99.3614L96.4085 99.4811C96.0574 99.6487 95.5192 99.7684 94.934 99.7684ZM91.9382 97.1831C93.2255 98.9305 95.0042 98.763 95.7532 98.6193C95.7298 95.0526 96.0574 90.5283 96.4085 85.7646C96.783 80.7616 97.1575 75.567 97.1575 71.1385C97.1575 66.9015 96.0809 65.0343 95.1915 64.1965C94.2085 63.2868 93.2254 63.3826 93.202 63.3826L93.0148 63.4065L92.851 63.2868L86.5082 58.4753C84.2613 59.1455 79.042 61.1085 78.4803 63.4305C78.2931 64.1486 78.6207 64.8907 79.4165 65.6567C84.1443 70.157 90.9084 70.0613 90.9552 70.0374L91.6807 70.0134L91.4701 70.7076C91.0488 72.096 90.6509 78.5353 91.4935 85.3337C92.1723 91.3422 91.985 96.1777 91.9382 97.1831Z" fill="#191D71"/>
<path d="M86.3196 64.6753C86.3196 64.6753 92.1007 64.5795 92.1007 73.3887C92.1007 82.1979 90.4155 93.4248 90.5091 100.726C90.5091 100.726 87.209 102.473 85.3132 99.6966C85.3132 99.6966 85.6409 94.502 84.8217 87.7754C84.0962 81.767 84.2834 75.9022 84.6813 73.5802C84.7515 73.2211 84.494 72.9099 84.143 72.886C82.2706 72.7902 76.9342 72.1679 72.9319 68.3617C68.0169 63.6699 80.4918 60.2228 80.4918 60.2228L86.3196 64.6753Z" fill="white"/>
<path d="M88.2629 101.803C87.0926 101.803 85.8053 101.372 84.8691 100.008L84.7755 99.8642V99.6727C84.7755 99.6248 85.0798 94.4303 84.284 87.8473C83.535 81.7192 83.7457 75.7825 84.1436 73.5084L84.0734 73.4366C81.9669 73.3409 76.6072 72.6706 72.5347 68.7687C71.4347 67.7394 71.0368 66.6382 71.2943 65.5131C72.1368 62.066 79.4626 59.9595 80.3052 59.7201L80.5392 59.6483L86.4607 64.1487C87.0224 64.1726 88.6842 64.412 90.1587 65.8961C91.7502 67.5 92.5694 70.0374 92.5694 73.3887C92.5694 77.8891 92.1247 82.9879 91.7268 87.8952C91.3289 92.6588 90.9311 97.1352 90.9779 100.702V101.037L90.697 101.181C90.1586 101.492 89.2459 101.803 88.2629 101.803ZM85.8287 99.5291C87.1628 101.324 89.2459 100.678 89.9948 100.367C89.9714 96.8001 90.3459 92.4195 90.7438 87.7994C91.1651 82.8921 91.5864 77.8412 91.5864 73.3887C91.5864 70.3247 90.8842 68.0506 89.4799 66.6382C88.0288 65.178 86.3436 65.178 86.3202 65.2019H86.1565L80.3754 60.7973C78.1285 61.4676 72.9092 63.4305 72.3474 65.7525C72.1602 66.4706 72.4879 67.2127 73.2837 67.9787C77.0987 71.6173 82.1776 72.2636 84.167 72.3594C84.4713 72.3833 84.7755 72.527 84.9628 72.7663C85.15 73.0057 85.2436 73.3409 85.1734 73.6521C84.7989 75.8544 84.5883 81.6713 85.3373 87.6797C86.0394 93.6882 85.8756 98.5237 85.8287 99.5291Z" fill="#191D71"/>
<path d="M78.3624 47.7272C78.3624 47.7272 85.6647 51.3418 91.0947 57.1348C96.5013 62.9278 97.6715 64.4359 97.6715 64.4359C97.6715 64.4359 95.6119 61.2522 89.2926 63.6699C82.9732 66.1116 82.5051 68.9363 82.3413 71.5694C82.2476 73.0057 83.5817 73.6999 83.8391 73.9872C83.886 74.035 83.8392 74.1069 83.7924 74.0829C82.6923 73.9393 76.5134 72.91 68.3685 67.0452C59.3575 60.5819 61.5576 54.2622 64.1555 49.738C66.4024 45.7643 78.3624 47.7272 78.3624 47.7272Z" fill="#EEFF87"/>
<path d="M83.7927 74.6095C83.7693 74.6095 83.7459 74.6095 83.7225 74.6095C82.5522 74.4659 76.2797 73.3887 68.0645 67.476C58.7259 60.7734 61.0898 53.9989 63.6878 49.4746C66.1219 45.2376 77.9648 47.1287 78.4563 47.2005L78.5967 47.2484C78.667 47.2962 86.0395 50.9588 91.4695 56.7518C95.7526 61.3239 97.3675 63.239 97.8825 63.8613C98.0229 64.005 98.0931 64.1247 98.0931 64.1486L97.2505 64.771C97.2505 64.771 97.2037 64.6992 97.0633 64.5316C96.4781 63.9092 94.3951 62.2814 89.4801 64.1725C83.1607 66.6142 82.9969 69.3671 82.8565 71.6173C82.8097 72.4312 83.3479 72.9339 83.9097 73.3647C84.0501 73.4605 84.1671 73.5563 84.2139 73.6281L84.4714 73.8914L84.331 74.2983C84.1906 74.4898 84.0033 74.6095 83.7927 74.6095ZM72.2306 47.775C68.9305 47.775 65.5602 48.2538 64.5537 50.0012C61.792 54.7888 60.1302 60.534 68.6262 66.6142C74.8285 71.0667 79.8372 72.6945 82.3181 73.269C81.9905 72.8381 81.7564 72.2636 81.8032 71.5215C81.9905 68.5293 82.6927 65.6328 89.0822 63.1671C91.8206 62.1139 93.81 62.066 95.2143 62.3772C94.2079 61.2521 92.7801 59.6722 90.6971 57.4699C85.6884 52.1078 78.9244 48.5889 78.1755 48.2059C76.8414 48.0144 74.5711 47.775 72.2306 47.775Z" fill="#191D71"/>
<path d="M74.2696 17.9961C74.2696 17.9961 79.2783 16.7274 79.7698 20.1027C80.2613 23.454 81.0102 27.3319 82.1571 31.3535C83.3039 35.3751 78.7165 37.0747 78.7165 37.0747C78.7165 37.0747 78.6229 43.6577 80.8464 49.1155C80.8464 49.1155 73.2164 57.9965 62.965 53.5441L63.3629 51.27C63.3629 51.27 65.1651 40.6894 64.1353 36.0693C63.1055 31.4493 60.1096 29.6061 61.7713 25.1057C63.4331 20.6054 69.9397 18.7382 69.9397 18.7382L74.2696 17.9961Z" fill="#191D71"/>
<path d="M68.722 55.2915C66.873 55.2915 64.8602 54.9325 62.7537 54.0228L62.3793 53.8553L62.8473 51.1742C62.8707 51.0785 64.6027 40.6415 63.6197 36.189C63.2686 34.5852 62.6835 33.3643 62.0984 32.1674C61.092 30.0369 60.1324 28.0261 61.2792 24.9381C63.0112 20.2463 69.5177 18.3312 69.7986 18.2594L74.1753 17.5174C74.4796 17.4455 77.3116 16.7992 79.0436 17.9722C79.7458 18.4509 80.167 19.1451 80.2841 20.0548C80.8692 24.0046 81.665 27.7628 82.648 31.2338C83.6076 34.5852 80.9862 36.6678 79.2308 37.4577C79.2542 38.8701 79.4649 44.3519 81.3139 48.924L81.4309 49.2352L81.2203 49.4746C81.15 49.5225 76.0946 55.2915 68.722 55.2915ZM63.5261 53.2089C72.2093 56.7278 78.9734 50.3124 80.2373 48.9958C78.1308 43.5619 78.1776 37.338 78.1776 37.0747V36.7156L78.5053 36.5959C78.6691 36.5241 82.6245 35.04 81.6415 31.5211C80.6351 28.0022 79.8394 24.1961 79.2542 20.1984C79.1606 19.6 78.9032 19.1451 78.4585 18.8339C77.0542 17.8764 74.4094 18.5227 74.386 18.5227H74.3392L70.0092 19.2648C70.0092 19.2648 63.7836 21.1081 62.2388 25.2972C61.2558 27.9783 62.0282 29.6061 63.0346 31.6887C63.5963 32.8856 64.2516 34.2261 64.6261 35.9496C65.6559 40.6175 63.924 50.9109 63.8538 51.3418L63.5261 53.2089Z" fill="#191D71"/>
<path d="M75.8587 18.4988C75.8587 18.4988 77.0523 17.4455 77.0523 19.2409C77.0523 21.0362 77.1928 23.3343 77.1928 26.9729C77.1928 30.2763 72.8161 32.5026 69.6096 26.3026C66.4031 20.0787 64.1094 22.0177 64.1094 22.0177L66.0754 18.1637L71.3415 15.2193L75.8587 18.4988Z" fill="white"/>
<path d="M74.2203 30.779C72.3947 30.779 70.5456 29.2709 69.1413 26.5659C67.503 23.4061 66.1923 22.5204 65.3732 22.3289C64.7646 22.1853 64.4136 22.4486 64.4136 22.4486L62.6113 23.837L65.6775 17.8046L71.3649 14.6208L75.8586 17.8764C76.1394 17.7328 76.5373 17.5892 76.9118 17.7567C77.5672 18.0679 77.5672 18.9536 77.5672 19.2648C77.5672 20.0069 77.5905 20.8208 77.6139 21.7783C77.6608 23.1428 77.7076 24.8424 77.7076 26.9968C77.7076 28.7682 76.6076 30.2763 75.0395 30.6833C74.782 30.7311 74.5011 30.779 74.2203 30.779ZM65.1157 21.2277C65.2561 21.2277 65.42 21.2517 65.5838 21.2756C67.1051 21.5868 68.603 23.1907 70.101 26.0632C71.4585 28.7203 73.2372 30.0369 74.8287 29.6539C75.9288 29.3667 76.7012 28.2895 76.7012 26.9968C76.7012 24.8663 76.6544 23.1667 76.6076 21.8262C76.5841 20.8447 76.5608 20.0308 76.5608 19.2648C76.5608 18.9536 76.514 18.81 76.4906 18.7382C76.4203 18.7621 76.2799 18.8339 76.2097 18.9058L75.9054 19.1691L75.5777 18.9297L71.318 15.8417L66.4732 18.5467L65.1157 21.2277Z" fill="#191D71"/>
<path d="M71.1072 40.1627C69.7731 40.1627 68.2753 39.7797 66.7773 38.6068L67.4093 37.7689C71.2243 40.7612 74.9925 37.8886 75.1563 37.7689L75.7882 38.6068C75.7648 38.6307 73.752 40.1627 71.1072 40.1627Z" fill="#EEFF87"/>
<path d="M84.1906 66.9494C83.6991 66.7818 71.9498 63.0475 69.5859 57.6614L70.5221 57.2305C72.6988 62.2096 84.3779 65.92 84.4949 65.944L84.1906 66.9494Z" fill="#191D71"/>
<path d="M68.3469 56.68C67.6916 54.3819 68.932 53.185 68.9788 53.1371L69.681 53.9032C69.6576 53.9271 68.8619 54.741 69.33 56.3927L68.3469 56.68Z" fill="#191D71"/>
<path d="M73.637 27.7868C73.4498 27.7868 73.2391 27.7629 73.0285 27.6671C70.9688 26.9011 68.6751 22.2571 68.207 20.8926L69.1901 20.5575C69.705 22.1135 71.8582 26.1351 73.3795 26.6856C73.637 26.7814 73.8008 26.7335 73.8944 26.6617C74.9945 25.9675 74.8774 22.5683 74.5498 20.5814L75.5562 20.4139C75.6499 21.0123 76.469 26.2787 74.4328 27.5713C74.2455 27.6671 73.9881 27.7868 73.637 27.7868Z" fill="#191D71"/>
<path d="M76.8423 8.68424C76.8423 8.68424 79.6041 18.2355 75.2039 21.132C75.1103 21.1799 75.0167 21.2278 74.9231 21.2278C74.1975 21.2756 71.1081 21.2756 68.4165 17.3259C68.3463 17.2301 68.2527 17.1344 68.1357 17.1104C67.5505 16.9429 65.6313 16.2726 65.4909 14.4533C65.3973 13.1606 66.0994 12.7776 66.6846 12.6579C67.0356 12.5861 67.2228 12.2271 67.0824 11.8919L65.6079 8.56454C65.5143 8.37304 65.5611 8.13366 65.7015 7.96609L68.791 4.49508C68.9314 4.35145 69.1187 4.27964 69.3059 4.32751L75.5784 5.73986C75.7657 5.78774 75.9061 5.90743 75.9763 6.09893L76.8423 8.68424Z" fill="white"/>
<path d="M74.6194 21.7544C73.3789 21.7544 70.5236 21.2996 68.0192 17.6131C67.3639 17.4216 65.1638 16.6556 65 14.4772C64.9063 13.1846 65.4915 12.3228 66.6149 12.1313L65.1638 8.77998C65 8.39697 65.0702 7.91821 65.351 7.60702L68.4405 4.13601C68.698 3.84875 69.0724 3.72906 69.4469 3.80088L75.7194 5.21322C76.0705 5.28503 76.3748 5.57229 76.4918 5.90742L77.3578 8.51667C77.4748 8.92361 80.1898 18.4749 75.5088 21.5389C75.3684 21.6347 75.1811 21.7065 74.9939 21.7065C74.8769 21.7544 74.7598 21.7544 74.6194 21.7544ZM69.2128 4.85415L66.1 8.32516L67.5745 11.6765C67.715 11.9877 67.6915 12.3228 67.5511 12.6101C67.3873 12.8973 67.1298 13.1128 66.8021 13.1606C66.4042 13.2325 65.9596 13.4479 66.0298 14.3815C66.1468 15.8656 67.7852 16.4402 68.3001 16.5838C68.5341 16.6556 68.7448 16.7992 68.8852 17.0147C71.4364 20.7729 74.3854 20.7251 74.9237 20.6772C78.9493 18.0679 76.4918 9.18693 76.3982 8.82786L75.5322 6.24255L69.2128 4.85415Z" fill="#191D71"/>
<path d="M60.7862 18.0919C64.2034 15.8417 63.2672 13.4958 63.1267 13.2085C62.9629 12.8973 62.7757 12.5861 62.5885 12.2989C61.1842 10.2402 60.9501 5.45261 66.4737 2.31673C67.6205 1.6704 68.7674 1.35921 69.844 1.26346C75.2506 0.880448 79.7209 5.78774 79.1592 11.2935C79.0656 12.251 78.8315 13.3043 78.4336 14.4294C77.2868 16.7992 77.7315 11.3414 72.6058 9.88115L72.2313 10.8147C72.2079 10.8865 72.1143 10.9344 72.0207 10.8865L69.7036 9.30663C69.6568 9.2827 69.6099 9.2827 69.5631 9.30663C69.1886 9.59389 66.6375 10.5035 68.1822 12.9213C68.229 12.9931 68.2056 13.1128 68.112 13.1367C67.5269 13.2564 66.3333 13.7352 66.8482 14.956C67.4333 16.3683 68.3929 16.8232 68.3929 16.8232L68.5567 17.0626L69.3993 18.5467C69.4227 18.5706 69.4227 18.5706 69.4461 18.5946C69.5631 18.8818 70.2653 21.0363 66.4035 22.5444C66.3567 22.5683 66.263 22.6162 66.146 22.664C65.3736 23.0949 64.6481 23.5976 63.9226 24.1003L62.331 25.2494C62.331 25.2494 58.8436 42.9156 58.9139 39.2292C58.9841 35.5427 58.633 32.4068 57.0648 28.074C55.4733 23.7413 57.135 20.5096 60.7862 18.0919Z" fill="#EEFF87"/>
<path d="M59.0079 40.2824C58.9611 40.2824 58.9376 40.2824 58.8908 40.2824C58.3525 40.2106 58.3525 39.5882 58.3759 39.2531C58.4461 35.7821 58.1652 32.718 56.5503 28.2895C55.0056 24.0285 56.3397 20.4617 60.5058 17.6849C63.5718 15.6502 62.7761 13.6633 62.659 13.4479C62.5186 13.1606 62.3314 12.8734 62.1676 12.6101C61.4888 11.6047 60.9271 9.80933 61.3952 7.72672C61.7696 6.09894 62.9165 3.75301 66.24 1.8619C67.3869 1.21558 68.5805 0.832569 69.821 0.760755C72.4891 0.56925 75.1339 1.62252 77.0531 3.63332C79.0191 5.71592 79.9787 8.54061 79.6745 11.3653C79.5574 12.4425 79.3 13.5437 78.9021 14.6448C78.6681 15.1475 78.3872 15.5784 77.9425 15.5784C77.4276 15.5545 77.1701 15.0996 76.819 14.4054C76.2339 13.2803 75.2977 11.4132 72.887 10.5514L72.6764 11.0541C72.6062 11.2217 72.4657 11.3653 72.3019 11.4371C72.1381 11.5089 71.9508 11.485 71.787 11.4132L69.6103 9.95295C69.5869 9.97689 69.5635 9.97689 69.5167 10.0008C69.1188 10.2163 68.3699 10.6472 68.206 11.2935C68.1124 11.7004 68.2294 12.1792 68.5805 12.7058C68.6975 12.8973 68.7209 13.1367 68.6273 13.3282C68.5337 13.5197 68.3699 13.6633 68.1592 13.7112C67.8082 13.783 67.3634 13.9745 67.223 14.2618C67.1996 14.3097 67.106 14.4772 67.2464 14.8124C67.7379 15.9853 68.5103 16.3923 68.5337 16.4162C68.6742 16.512 68.7209 16.5598 68.8379 16.7514L68.8848 16.8232L69.821 18.451C69.9146 18.6903 70.1721 19.4803 69.7508 20.4617C69.2827 21.539 68.206 22.4247 66.4974 23.0949C66.4506 23.1189 66.4038 23.1428 66.3102 23.1907C65.6315 23.5737 64.9293 24.0285 64.1336 24.603L62.7058 25.6324C60.0377 39.4207 59.5228 40.2824 59.0079 40.2824ZM61.0675 18.5467C57.2993 21.0363 56.129 24.1003 57.5099 27.9065C58.7504 31.3296 59.2185 34.0346 59.3589 36.6199C60.0845 33.5319 61.1143 28.6007 61.7931 25.1536L61.8399 24.9382L63.6187 23.6694C64.4378 23.0949 65.1634 22.6162 65.8655 22.2092C66.006 22.1374 66.123 22.0656 66.1698 22.0417C67.5975 21.4911 68.5103 20.7729 68.8614 19.983C69.0954 19.4324 68.9784 19.0015 68.9316 18.834L68.0656 17.3259C68.0422 17.3019 68.0422 17.278 68.0188 17.2541L67.9954 17.2062C67.7379 17.0625 66.8954 16.4641 66.3336 15.1475C66.0528 14.4772 66.1932 13.9985 66.3336 13.6873C66.5911 13.1846 67.0826 12.8973 67.4805 12.7537C67.1762 12.1074 67.0825 11.5089 67.223 10.9583C67.4804 9.8572 68.5337 9.28269 69.0252 8.99543C69.1188 8.94756 69.189 8.89968 69.2124 8.87574C69.3997 8.73212 69.6805 8.70818 69.8912 8.82787L71.8806 10.1684L72.2551 9.23481L72.6998 9.3545C75.8595 10.2641 77.0531 12.6101 77.7085 13.8549C77.7787 13.9745 77.8489 14.1182 77.8957 14.2379C77.8957 14.2139 77.9191 14.19 77.9191 14.166C78.2702 13.1846 78.5042 12.1792 78.5979 11.1977C78.8553 8.68424 78.0127 6.17075 76.2574 4.30358C74.5488 2.50823 72.2317 1.57465 69.8444 1.74221C68.7444 1.81403 67.6911 2.14916 66.6847 2.72367C63.6889 4.42327 62.6824 6.48194 62.3548 7.91822C61.9569 9.6657 62.4016 11.1499 62.9633 11.9637C63.174 12.2749 63.3612 12.5861 63.5484 12.9213C63.7357 13.2803 64.8825 16.0332 61.0675 18.5467Z" fill="#191D71"/>
<path d="M69.0256 15.7459C68.9086 15.722 68.3702 15.6262 67.7617 14.8602L68.5575 14.2139C68.9086 14.6448 69.166 14.7166 69.166 14.7166L69.0256 15.7459Z" fill="#191D71"/>
<path d="M78.4107 12.8255C78.3873 12.4904 77.5448 4.39936 70.4765 4.85418L70.4062 3.80091C78.481 3.29821 79.4172 12.634 79.4172 12.7298L78.4107 12.8255Z" fill="#191D71"/>
<path d="M62.8232 14.5969C62.0742 8.42089 65.07 6.14678 65.187 6.05103L65.7956 6.88886C65.6786 6.96067 63.1742 8.94753 63.8296 14.4533L62.8232 14.5969Z" fill="#191D71"/>
<path d="M61.606 27.0686H60.5762C60.5762 24.22 62.7294 21.5629 64.7423 20.5096C66.0998 19.8154 65.9125 18.6424 65.9125 18.6185L66.919 18.4509C67.036 19.1212 66.8253 20.6293 65.187 21.4671C63.7124 22.2331 61.606 24.4833 61.606 27.0686Z" fill="#191D71"/>
<path d="M63.5011 25.1297C61.933 24.1961 60.1074 27.8347 59.2648 34.8006C58.4222 41.7666 59.218 42.5566 59.101 49.6901C59.0308 53.7835 59.1946 60.1031 59.0776 61.8506C58.984 63.0954 58.4925 64.3162 57.8137 65.2977L55.1924 68.3378C54.4434 69.3911 54.5136 70.4683 55.6371 70.8992C56.8541 71.354 58.2116 70.9949 59.1244 69.9416L61.6287 67.093L62.1202 67.5239C62.1202 68.1702 61.7691 68.9602 61.4415 69.4629C61.3713 71.0428 62.5649 70.2289 63.7118 68.1463C63.9692 67.5 63.9692 66.7818 63.7352 66.1355L63.3373 65.0583C62.7288 63.4784 62.4947 61.7548 62.5884 60.0313C62.7756 56.9912 63.1501 51.7727 63.5948 46.9611C64.2267 39.5404 66.9651 27.1644 63.5011 25.1297Z" fill="white"/>
<path d="M56.6902 71.6173C56.2689 71.6173 55.8476 71.5455 55.4497 71.4019C54.6773 71.1146 54.3731 70.588 54.2561 70.205C54.0689 69.5586 54.2327 68.7687 54.771 68.0505L57.4158 64.9625C58.0711 64.0529 58.4924 62.9278 58.5626 61.8266C58.6328 60.8931 58.6094 58.4993 58.586 55.9618C58.5626 53.7835 58.5626 51.5333 58.586 49.6901C58.6328 46.9611 58.5392 45.1658 58.4455 43.5859C58.3051 41.0484 58.2115 39.0616 58.7498 34.7288C59.4286 29.1991 60.7626 25.4169 62.3308 24.627C62.7989 24.3876 63.3138 24.3876 63.7585 24.6748C66.731 26.4223 65.7245 34.0585 64.7415 41.4315C64.484 43.4422 64.2266 45.3094 64.0628 46.9611C63.6415 51.6051 63.2904 56.6321 63.0563 60.0313C62.9393 61.6591 63.1968 63.3347 63.7585 64.8428L64.1564 65.92C64.4372 66.6861 64.4373 67.5718 64.133 68.3378C63.5479 69.415 62.4946 71.0667 61.535 70.7795C61.2074 70.6837 60.8563 70.3725 60.9031 69.415V69.2714L60.9733 69.1517C61.184 68.8165 61.418 68.3617 61.5117 67.9308L59.4754 70.2528C58.7264 71.1385 57.72 71.6173 56.6902 71.6173ZM63.0095 25.5127C62.9393 25.5127 62.8691 25.5366 62.7755 25.5845C61.7691 26.0872 60.4584 29.1512 59.7563 34.8724C59.2414 39.1095 59.3349 41.0724 59.4754 43.538C59.569 45.1418 59.6626 46.9372 59.6158 49.714C59.5924 51.5572 59.5924 53.8074 59.6158 55.9618C59.6392 58.619 59.6392 60.917 59.5924 61.8985C59.4988 63.1672 59.0307 64.5077 58.2349 65.6088L55.5901 68.6969C55.2859 69.1277 55.1689 69.5586 55.2625 69.8938C55.3327 70.1092 55.5199 70.3007 55.8242 70.3965C56.854 70.7795 57.9775 70.4683 58.7498 69.5826L61.5819 66.3509L62.6585 67.2606V67.5C62.6585 68.2181 62.3308 69.032 61.9797 69.6065C61.9797 69.6304 61.9797 69.6304 61.9797 69.6544C62.2372 69.4389 62.7287 68.8884 63.2904 67.883C63.4776 67.4281 63.4776 66.8297 63.2904 66.3031L62.8926 65.2258C62.2606 63.5741 62.0031 61.7548 62.1201 59.9595C62.3308 56.5603 62.7053 51.5333 63.1265 46.8654C63.267 45.1897 63.5245 43.2986 63.8053 41.2878C64.6479 34.9203 65.7246 26.9729 63.3373 25.5605C63.1734 25.5366 63.1032 25.5127 63.0095 25.5127Z" fill="#191D71"/>
<path d="M86.8134 109.846C86.79 107.596 87.2347 106.902 87.3751 106.734L88.1241 107.452L87.7496 107.093L88.1474 107.429C88.1474 107.429 87.7964 107.955 87.8198 109.846H86.8134Z" fill="#EEFF87"/>
<path d="M84.6359 107.141C84.3082 103.144 84.6359 100.582 84.6359 100.463L85.6423 100.606C85.6423 100.63 85.3147 103.168 85.6423 107.046L84.6359 107.141Z" fill="#EEFF87"/>
<path d="M93.7636 112.886C93.3423 112.886 92.8273 112.791 92.2656 112.527L92.6869 111.57C93.8571 112.12 94.6296 111.618 94.6296 111.618L95.2147 112.479C95.1679 112.527 94.6296 112.886 93.7636 112.886Z" fill="#EEFF87"/>
<path d="M98.9374 110.517C98.5161 110.517 98.0012 110.421 97.4395 110.158L97.8608 109.2C99.031 109.751 99.8034 109.248 99.8034 109.248L100.389 110.11C100.365 110.134 99.8268 110.517 98.9374 110.517Z" fill="#EEFF87"/>
<path d="M77.9657 36.2675L76.3984 36.9632L76.8084 37.9294L78.3756 37.2337L77.9657 36.2675Z" fill="#EEFF87"/>
<path d="M69.5168 37.6013C69.3998 37.5774 66.8955 37.0268 66.1934 34.4894L67.1763 34.2021C67.7146 36.1172 69.6338 36.5481 69.7275 36.572L69.5168 37.6013Z" fill="#EEFF87"/>
<path d="M68.0655 53.592C68.0421 53.5441 67.7846 52.1078 68.1123 47.9905L69.1421 48.0862C68.8378 52.0121 69.0953 53.3765 69.0953 53.4005L68.0655 53.592Z" fill="#EEFF87"/>
<path d="M68.3121 45.0277L68.1328 47.006L69.1582 47.1033L69.3375 45.1249L68.3121 45.0277Z" fill="#EEFF87"/>
<path d="M59.4763 30.8748C56.8783 23.813 59.3125 22.4007 59.5933 22.281L60.038 23.2385L59.8274 22.7598L60.0614 23.2146C60.038 23.2146 58.2124 24.3875 60.4593 30.5157L59.4763 30.8748Z" fill="#191D71"/>
<path d="M81.2181 22.2332L80.75 21.2996C83.4182 19.9112 81.4756 15.1475 81.4522 15.0996L82.3884 14.6927C82.5054 14.9081 84.7289 20.4139 81.2181 22.2332Z" fill="#191D71"/>
<path d="M60.178 19.1212L59.2651 18.6185C60.5524 16.2247 58.9375 14.0224 58.9141 13.9984L59.7333 13.3521C59.8269 13.4718 61.7695 16.1289 60.178 19.1212Z" fill="#191D71"/>
<path d="M68.111 10.5754L64.7407 8.54064C64.1789 8.20551 64.0385 7.41555 64.4598 6.91285C64.8811 6.38622 65.6535 6.38622 66.0748 6.88892L68.6727 9.90511L68.111 10.5754Z" fill="#5277F6"/>
<path d="M68.2285 11.2696L64.4603 8.99545C64.0624 8.75607 63.7815 8.34912 63.7113 7.87036C63.6411 7.3916 63.7582 6.93678 64.039 6.55377C64.3433 6.1947 64.7646 5.97926 65.2327 5.95532C65.7008 5.95532 66.1455 6.14683 66.4497 6.5059L69.3286 9.85722L68.2285 11.2696ZM65.2795 7.03253C65.0922 7.03253 64.9518 7.10434 64.8582 7.24797C64.7646 7.36766 64.7177 7.53523 64.7411 7.7028C64.7645 7.87036 64.8582 8.01399 64.9986 8.0858L67.9945 9.90509L65.6774 7.22403C65.5838 7.10434 65.4433 7.03253 65.2795 7.03253Z" fill="#191D71"/>
<path d="M80.5621 32.1674C80.5621 33.4361 79.86 34.4655 79.0174 34.4655C78.1514 34.4655 77.4727 33.4361 77.4727 32.1674C77.4727 30.8987 78.1748 29.8694 79.0174 29.8694C79.86 29.8694 80.5621 30.8987 80.5621 32.1674Z" fill="#EEFF87"/>
<path d="M78.9951 34.9921C77.8249 34.9921 76.9355 33.7473 76.9355 32.1674C76.9355 30.5875 77.8483 29.3427 78.9951 29.3427C80.142 29.3427 81.0548 30.5875 81.0548 32.1674C81.0782 33.7473 80.1654 34.9921 78.9951 34.9921ZM78.9951 30.396C78.4334 30.396 77.9419 31.2338 77.9419 32.1674C77.9419 33.101 78.4334 33.9388 78.9951 33.9388C79.5568 33.9388 80.025 33.101 80.025 32.1674C80.025 31.2338 79.5568 30.396 78.9951 30.396Z" fill="#191D71"/>
<path d="M81.0316 29.8694C81.0316 30.9227 80.4464 31.7844 79.7443 31.7844C79.0421 31.7844 78.457 30.9227 78.457 29.8694C78.457 28.8161 79.0421 27.9543 79.7443 27.9543C80.4464 27.9543 81.0316 28.7922 81.0316 29.8694Z" fill="#809CE4"/>
<path d="M79.7436 32.2871C78.7372 32.2871 77.9414 31.2099 77.9414 29.8454C77.9414 28.481 78.7372 27.4037 79.7436 27.4037C80.75 27.4037 81.5458 28.481 81.5458 29.8454C81.5458 31.2338 80.75 32.2871 79.7436 32.2871ZM79.7436 28.481C79.3691 28.481 78.9712 29.0555 78.9712 29.8694C78.9712 30.6833 79.3925 31.2578 79.7436 31.2578C80.118 31.2578 80.516 30.6833 80.516 29.8694C80.5394 29.0315 80.118 28.481 79.7436 28.481Z" fill="#191D71"/>
<path d="M90.6279 73.2211L89.5982 73.1972C89.6918 70.3486 88.5215 69.3911 88.5215 69.3911L89.13 68.5532C89.2003 68.5772 90.7449 69.7741 90.6279 73.2211Z" fill="#191D71"/>
<path d="M96.2685 70.4683L95.2387 70.4443C95.3323 67.5957 94.1621 66.6382 94.1621 66.6382L94.7707 65.8004C94.8409 65.8243 96.3856 67.0212 96.2685 70.4683Z" fill="#191D71"/>
<path d="M97.4858 54.3341L78.9724 65.2737C78.9256 65.2977 78.8787 65.2977 78.8553 65.2737L66.1464 57.5178C66.0762 57.4699 66.0762 57.3502 66.1464 57.3024L84.5194 46.2191C84.5662 46.1951 84.613 46.1951 84.6364 46.2191L97.4858 54.1186C97.556 54.1665 97.556 54.2862 97.4858 54.3341Z" fill="#809CE4"/>
<path d="M78.9014 65.8003C78.7844 65.8003 78.6673 65.7764 78.5737 65.7046L65.8648 57.9726C65.6776 57.8529 65.5605 57.6375 65.5605 57.422C65.5605 57.1826 65.6776 56.9911 65.8648 56.8714L84.2378 45.7881C84.4484 45.6684 84.6825 45.6684 84.8931 45.7881L97.7424 53.6877C97.9297 53.8074 98.0467 54.0228 98.0467 54.2622C98.0467 54.5016 97.9297 54.6931 97.719 54.8128L79.2057 65.7524C79.1121 65.7764 79.0185 65.8003 78.9014 65.8003ZM66.9414 57.422L78.9014 64.6992L96.6424 54.2143L84.5654 46.7935L66.9414 57.422Z" fill="#191D71"/>
<path d="M78.9711 65.154L85.267 50.4321L85.2904 50.4082L104.319 38.8701C104.365 38.8461 104.412 38.894 104.389 38.9419L97.6716 54.2143L97.6482 54.2383L79.0413 65.2258C78.9945 65.2498 78.9477 65.2019 78.9711 65.154Z" fill="#EEFF87"/>
<path d="M78.9719 65.8482L78.6208 65.5849C78.4336 65.4173 78.3868 65.154 78.4804 64.9146L84.8465 50.0252L85.0104 49.9055L104.366 38.1758L104.717 38.4392C104.905 38.6067 104.951 38.87 104.858 39.1094L98.0704 54.5494L97.9065 54.6691L78.9719 65.8482ZM85.6657 50.7672L79.9783 64.0528L97.2512 53.8552L103.313 40.0669L85.6657 50.7672Z" fill="#191D71"/>
<path d="M77.5685 61.9224L70.9683 57.8769C70.7576 57.7572 70.6406 57.5178 70.6406 57.2784C70.6406 57.039 70.781 56.7997 70.9917 56.68L75.2982 54.0947L75.8131 55.0043L71.9981 57.3024L78.1302 61.0367L77.5685 61.9224Z" fill="#191D71"/>
<path d="M92.7103 53.0414C91.9145 54.0707 90.9081 54.6213 90.44 54.2383C89.9719 53.8792 90.2528 52.7302 91.0486 51.7008C91.8444 50.6715 92.8508 50.1209 93.3189 50.5039C93.787 50.863 93.5061 52.012 92.7103 53.0414Z" fill="#809CE4"/>
<path d="M90.8143 54.8845C90.5568 54.8845 90.3461 54.8127 90.1355 54.6452C89.9014 54.4537 89.5738 54.0228 89.7844 53.0892C89.9249 52.5386 90.2291 51.9402 90.6504 51.3656C91.5164 50.2406 92.8271 49.4267 93.6462 50.073C94.4654 50.7193 93.9973 52.2035 93.1313 53.3525C92.476 54.2143 91.5632 54.8845 90.8143 54.8845ZM92.9441 50.8869C92.7101 50.8869 92.0781 51.1981 91.4462 52.012C90.7206 52.9695 90.6738 53.7116 90.744 53.8073C90.8845 53.8791 91.61 53.5919 92.2888 52.6822C92.9675 51.7965 93.0845 51.0066 92.9909 50.8869C92.9909 50.9108 92.9675 50.8869 92.9441 50.8869Z" fill="#191D71"/>
<path d="M74.3608 16.9428C74.2438 16.9428 74.1034 16.9189 73.9863 16.895L74.197 16.105C74.3608 16.1529 74.5948 16.105 74.7587 16.0571L73.9863 14.2378L74.7119 13.9027L75.7885 16.4162L75.4842 16.6316C75.414 16.6795 74.8991 16.9428 74.3608 16.9428Z" fill="#191D71"/>
<path d="M74.4322 19.0494C73.847 19.0494 73.4257 18.7382 73.4023 18.7382L73.8705 18.0919C73.8939 18.0919 74.2683 18.3791 74.7598 18.2115L74.9939 18.9776C74.8066 19.0254 74.6194 19.0494 74.4322 19.0494Z" fill="#191D71"/>
<path d="M70.8747 14.4772L70.6172 13.7112C70.7342 13.6633 71.8577 13.2803 72.6301 13.4718L72.4428 14.2618C71.9747 14.1421 71.1321 14.3815 70.8747 14.4772Z" fill="#191D71"/>
<path d="M75.8823 13.6394L75.4844 12.9452C75.5078 12.9213 76.0929 12.5861 76.7717 12.4186L76.9589 13.2085C76.3972 13.3522 75.8823 13.6394 75.8823 13.6394Z" fill="#191D71"/>
<path d="M73.0738 14.2379C73.144 14.7405 72.9568 15.1714 72.6525 15.2193C72.3482 15.2672 72.0439 14.8842 71.9737 14.4054C71.9035 13.9027 72.0908 13.4718 72.3951 13.424C72.6993 13.3761 73.0035 13.7352 73.0738 14.2379Z" fill="#191D71"/>
<path d="M76.3278 13.6394C76.398 14.1421 76.2108 14.573 75.9299 14.6208C75.649 14.6687 75.3448 14.2857 75.2746 13.783C75.2044 13.2803 75.3916 12.8494 75.6725 12.8015C75.9533 12.7776 76.2576 13.1367 76.3278 13.6394Z" fill="#191D71"/>
<circle cx="20" cy="47" r="18.5" fill="#E8ECF8" stroke="#5277F6" stroke-width="3"/>
<path d="M29.4795 44.3809C29.4179 44.1943 29.306 44.0304 29.1573 43.909C29.0086 43.7877 28.8294 43.7141 28.6416 43.6973L23.0979 42.8505L20.6135 37.5756C20.5337 37.4031 20.4091 37.2576 20.2541 37.1558C20.099 37.054 19.9197 37 19.7366 37C19.5536 37 19.3743 37.054 19.2192 37.1558C19.0641 37.2576 18.9396 37.4031 18.8598 37.5756L16.3754 42.8403L10.8317 43.6973C10.6514 43.7242 10.4818 43.8034 10.3423 43.926C10.2029 44.0487 10.099 44.2098 10.0425 44.3911C9.99082 44.5683 9.98618 44.7569 10.0291 44.9367C10.072 45.1164 10.1608 45.2805 10.2861 45.4114L14.3099 49.4926L13.3356 55.2878C13.3008 55.4791 13.319 55.6768 13.3881 55.8576C13.4571 56.0384 13.5741 56.1947 13.7253 56.3081C13.8726 56.4184 14.0464 56.4835 14.2271 56.4962C14.4078 56.5088 14.5883 56.4684 14.7483 56.3796L19.7366 53.6554L24.7055 56.3898C24.8422 56.4705 24.9967 56.5127 25.1536 56.5122C25.36 56.513 25.5613 56.4451 25.7285 56.3183C25.8796 56.2049 25.9966 56.0486 26.0657 55.8678C26.1348 55.687 26.153 55.4893 26.1182 55.298L25.1439 49.5028L29.1677 45.4216C29.3084 45.2968 29.4123 45.1328 29.4675 44.9485C29.5227 44.7643 29.5269 44.5675 29.4795 44.3809ZM23.4876 48.4621C23.3734 48.5778 23.2879 48.7211 23.2386 48.8794C23.1894 49.0376 23.1779 49.2061 23.2051 49.3701L23.9066 53.6452L20.2433 51.6046C20.1023 51.526 19.945 51.4849 19.7853 51.4849C19.6256 51.4849 19.4684 51.526 19.3274 51.6046L15.6641 53.6452L16.3656 49.3701C16.3928 49.2061 16.3813 49.0376 16.3321 48.8794C16.2828 48.7211 16.1973 48.5778 16.0831 48.4621L13.1602 45.4012L17.262 44.7788C17.4198 44.7558 17.5698 44.6927 17.6989 44.5948C17.828 44.497 17.9322 44.3675 18.0024 44.2177L19.7366 40.3303L21.5683 44.2279C21.6385 44.3777 21.7427 44.5072 21.8718 44.605C22.0009 44.7029 22.1509 44.766 22.3087 44.789L26.4105 45.4114L23.4876 48.4621Z" fill="#5277F6"/>
</svg>
