<svg width="140" height="139" viewBox="0 0 140 139" fill="none" xmlns="http://www.w3.org/2000/svg">
<g clip-path="url(#clip0_918_23647)">
<rect x="0.5" width="139" height="139" rx="69.5" fill="white"/>
<circle cx="70" cy="69.5" r="69.5" fill="url(#paint0_radial_918_23647)" fill-opacity="0.7"/>
<path d="M61.6124 139.693C61.6124 139.693 76.3833 167.393 87.0722 184.488C87.0722 184.488 95.2365 192.516 103.992 184.686C111.082 178.344 137.079 163.875 146.854 158.573C148.896 157.433 149.54 155.005 148.305 153.122L147.177 151.437C146.156 149.852 144.115 149.158 142.235 149.703C136.864 151.289 125.907 154.559 118.924 157.334C108.074 161.645 100.286 166.451 100.286 166.451C100.286 166.451 101.145 151.933 93.7863 133.549C86.4276 115.165 68.971 109.467 68.971 109.467L61.5586 121.954V139.693H61.6124Z" fill="white"/>
<path d="M95.8255 189.196C95.718 189.196 95.6643 189.196 95.5569 189.196C90.1856 189.097 86.3183 185.38 86.1571 185.232L85.996 185.033C75.3609 168.136 60.6436 140.437 60.4824 140.189L60.375 139.941V121.657L68.4319 108.129L69.3988 108.426C70.1508 108.674 87.5 114.521 94.9123 133.202C100.713 147.77 101.465 159.811 101.519 164.469C104.473 162.785 110.704 159.465 118.438 156.343C125.367 153.568 136.11 150.347 141.857 148.662C144.274 147.969 146.853 148.861 148.142 150.892L149.27 152.577C150.022 153.717 150.236 155.104 149.914 156.392C149.538 157.681 148.679 158.82 147.39 159.465C139.172 163.924 111.886 179.087 104.742 185.43C102.056 187.907 99.0482 189.196 95.8255 189.196ZM88.0371 183.795C88.5742 184.29 91.6896 186.916 95.6643 186.966C98.2962 187.065 100.821 185.975 103.184 183.844C110.274 177.501 135.68 163.379 146.262 157.582C146.96 157.185 147.497 156.541 147.712 155.847C147.927 155.104 147.766 154.311 147.336 153.667L146.208 151.982C145.456 150.843 144.006 150.347 142.609 150.744C136.862 152.428 126.227 155.6 119.405 158.325C108.77 162.586 101.036 167.294 100.982 167.343L99.0482 168.533L99.1556 166.352C99.1556 166.204 99.9076 151.834 92.7638 133.896C86.6942 118.634 73.2124 112.291 69.5599 110.805L62.7921 122.202V139.446C64.2423 142.121 77.9391 167.789 88.0371 183.795Z" fill="#543D77"/>
<path d="M79.1192 139.543C79.1192 139.543 68.5915 154.854 62.3071 170.116C56.0764 185.329 56.6135 191.225 55.9152 197.964C55.217 204.704 48.9863 236.268 48.9863 236.268C48.9863 236.268 53.337 240.183 59.6214 236.268C59.6214 236.268 69.0212 216.794 70.9011 210.105C73.2645 201.78 73.6942 191.275 73.6942 191.275C73.6942 191.275 103.505 161.99 105.976 142.962C108.5 123.934 79.1192 139.543 79.1192 139.543Z" fill="white"/>
<path d="M54.09 239.044C51.3507 239.044 49.2559 237.953 48.1817 237.012L47.752 236.616L47.8593 236.07C47.913 235.773 54.09 204.456 54.7883 197.866C54.8957 196.776 55.0032 195.686 55.0569 194.596C55.4866 188.996 55.97 182.654 61.2338 169.77C67.4645 154.607 78.0459 139.147 78.1533 138.998L78.3145 138.751L78.583 138.602C79.335 138.206 96.5231 129.138 103.989 133.696C106.729 135.381 107.803 138.503 107.212 143.062C104.849 161.396 78.207 188.352 74.8768 191.672C74.7694 193.704 74.1786 202.821 72.0838 210.353C70.2039 217.043 61.1264 235.872 60.7504 236.665L60.5893 236.962L60.3207 237.161C58.0648 238.548 55.9163 239.044 54.09 239.044ZM50.2765 235.823C51.4044 236.566 54.5197 238.003 58.7093 235.525C59.891 233.097 68.0553 215.903 69.7741 209.808C72.0838 201.682 72.5135 191.325 72.5135 191.226V190.83L72.8358 190.532C73.1044 190.235 102.431 161.297 104.849 142.863C105.332 139.197 104.58 136.769 102.646 135.579C97.5437 132.458 84.76 137.859 79.9796 140.386C78.6368 142.318 69.1833 156.54 63.4361 170.513C58.2796 183.1 57.7962 189.244 57.3665 194.695C57.2591 195.834 57.2053 196.925 57.0979 198.015C56.4534 204.308 51.1896 231.214 50.2765 235.823Z" fill="#543D77"/>
<path d="M90.889 29.7363C95.0786 32.1644 98.5162 35.5339 100.772 39.5476C103.082 43.6604 105.767 49.4084 107.003 55.9988C107.862 60.4089 108.883 63.8776 110.279 68.1886C112.535 75.0763 108.346 82.3604 100.88 84.5407L83.3691 49.2598L90.889 29.7363Z" fill="white"/>
<path d="M100.287 85.8787L82.1855 49.3591L90.2425 28.25L91.5316 28.8446C95.936 31.4213 99.4811 34.9394 101.844 39.1018C103.993 42.9173 106.84 48.9131 108.236 55.8503C109.042 60.1118 110.063 63.4814 111.513 67.8915C113.93 75.3242 109.364 83.2525 101.361 85.5814L100.287 85.8787ZM84.6564 49.2104L101.522 83.1534C107.699 80.8244 111.083 74.4818 109.149 68.4861C107.699 63.9768 106.679 60.5082 105.819 56.1972C104.53 49.5573 101.737 43.7597 99.696 40.0433C97.7623 36.6242 94.9692 33.7007 91.4779 31.4213L84.6564 49.2104Z" fill="#543D77"/>
<path d="M60.7564 29.9832C59.897 29.4381 58.7153 29.8345 58.4467 30.7265C57.4262 33.9969 55.1166 40.6368 52.0012 43.8082C47.7579 48.1192 45.3408 56.5925 52.0012 63.4306L68.3836 47.3263V34.8392L60.7564 29.9832Z" fill="white"/>
<path d="M51.9477 65.017L51.0883 64.1746C44.3742 57.2869 46.093 48.2189 51.0883 43.1151C54.0962 40.0429 56.4058 33.2543 57.2652 30.4794C57.48 29.7361 58.1247 29.0919 58.9304 28.8441C59.736 28.5468 60.6491 28.6955 61.4011 29.1414L69.5117 34.2949V47.7729L51.9477 65.017ZM59.8435 30.8262C59.7897 30.8262 59.736 30.8262 59.736 30.8262C59.6823 30.8262 59.5749 30.9253 59.5212 31.0244C58.3932 34.6417 56.0299 41.2321 52.8071 44.5025C49.5306 47.8225 46.6301 55.3048 52.0014 61.7465L67.1484 46.8315V35.3849L60.0583 30.8758C60.0046 30.8758 59.8972 30.8262 59.8435 30.8262Z" fill="#543D77"/>
<path d="M32.6615 104.262C32.6615 104.262 27.5588 111.794 28.257 116.154C28.9016 120.217 34.1117 121.456 37.7105 120.911C38.0865 120.862 38.3013 120.564 38.2476 120.217C38.1402 119.177 37.9253 116.848 38.4624 114.866C39.0533 112.785 40.6109 114.965 41.3092 116.005C41.4166 116.204 41.6852 116.104 41.7389 115.906C41.9001 114.568 42.1149 111.199 40.3424 108.077C39.9127 107.284 40.3961 105.054 39.8053 104.559C37.227 102.577 32.6615 104.262 32.6615 104.262Z" fill="white"/>
<path d="M36.0456 122.101C33.7359 122.101 31.4263 121.506 29.8149 120.416C28.3109 119.375 27.3441 117.988 27.0756 116.303C26.3236 111.645 31.4263 104.014 31.6412 103.717L31.856 103.42L32.232 103.271C32.4469 103.172 37.4958 101.339 40.5574 103.816C41.3094 104.411 41.3094 105.402 41.3094 106.442C41.3094 106.839 41.3095 107.433 41.3632 107.632C43.2968 111.001 43.082 114.668 42.8671 116.055C42.8134 116.601 42.33 117.046 41.7391 117.146C41.1483 117.245 40.5575 116.997 40.2352 116.551C39.9129 116.055 39.6981 115.758 39.4832 115.51C39.1072 117.245 39.2684 119.276 39.3758 120.069C39.4833 120.961 38.8386 121.803 37.8718 121.952C37.281 122.051 36.6364 122.101 36.0456 122.101ZM33.4674 105.154C32.0172 107.433 28.9555 112.934 29.4389 115.956C29.6001 117.046 30.1909 117.938 31.2115 118.632C32.8229 119.722 35.2399 120.02 37.0125 119.871C36.905 118.583 36.7976 116.452 37.3347 114.569C37.657 113.33 38.409 112.983 38.9998 112.884C39.5369 112.834 40.1278 112.983 40.6649 113.429C40.6112 112.042 40.2352 110.258 39.3221 108.623C38.9998 108.028 38.9998 107.235 38.9998 106.442C38.9998 106.096 38.9998 105.6 38.9461 105.352C37.2273 104.163 34.4342 104.857 33.4674 105.154Z" fill="#543D77"/>
<path d="M72.25 52.6794C61.8297 48.5171 58.1236 52.1344 55.0619 55.157C51.9466 58.1301 48.2941 66.8513 48.2941 66.8513L47.0587 69.527C45.5547 72.7479 44.1045 76.0183 42.7617 79.3879C41.6874 82.1132 39.9149 86.2261 37.4442 90.8839C36.1013 93.4111 33.1471 100.497 32.7174 101.538C32.2877 102.529 32.8248 103.619 33.8453 104.015L38.3035 105.7C39.1629 106.047 40.1835 105.799 40.7743 105.056C42.9228 102.38 48.133 95.7896 51.0872 90.4875C52.3763 88.1586 51.8391 84.1448 53.3968 79.9825L60.8629 85.1854L71.2831 72.9461C71.2831 72.9957 82.724 56.8418 72.25 52.6794Z" fill="#5277F6"/>
<path d="M39.0553 106.938C38.6256 106.938 38.1959 106.889 37.8199 106.69L33.3618 105.006C31.7504 104.361 30.891 102.627 31.5356 101.141L31.8041 100.546C32.7173 98.3657 35.1343 92.6672 36.3697 90.3879C38.8405 85.7795 40.613 81.6667 41.6336 78.9909C42.869 75.8692 44.2654 72.5987 45.9305 69.0806L47.166 66.4048C47.3271 66.0579 50.9259 57.4854 54.1487 54.3637C57.3177 51.2914 61.561 47.2283 72.6796 51.6384C75.0966 52.5798 76.6543 54.1655 77.3525 56.3458C79.5548 63.0353 72.5184 73.0942 72.1961 73.4907L60.9701 86.6219L53.9338 81.7163C53.5578 83.2028 53.3429 84.6894 53.1818 86.0273C52.9669 87.9598 52.7521 89.595 52.0001 90.9329C48.9922 96.2845 43.7283 103.024 41.5798 105.65C41.0427 106.492 40.0759 106.938 39.0553 106.938ZM64.0855 51.8861C60.1107 51.8861 58.016 53.8681 55.9749 55.8502C53.0207 58.7242 49.4219 67.1976 49.3682 67.2967L48.0791 69.9725C46.414 73.4412 45.0174 76.662 43.8357 79.7342C42.7615 82.41 40.989 86.6219 38.4645 91.3293C37.2828 93.5096 34.8121 99.4063 34.0064 101.339L33.7378 101.933C33.5767 102.379 33.7915 102.825 34.2212 103.024L38.6794 104.708C39.0554 104.857 39.485 104.758 39.7536 104.461C41.8484 101.884 47.0585 95.244 49.959 90.041C50.4961 89.05 50.6573 87.613 50.8722 85.9282C51.087 84.0452 51.3556 81.9145 52.215 79.6846L52.7521 78.2972L60.5942 83.7479L70.3162 72.351C70.3162 72.351 76.9765 62.7875 75.1503 57.089C74.6669 55.5529 73.539 54.4133 71.7664 53.7195C68.5974 52.3816 66.0729 51.8861 64.0855 51.8861Z" fill="#543D77"/>
<path d="M58.2816 60.5082C58.2816 60.5082 56.8314 68.8824 53.8772 76.3152C50.923 83.748 51.5138 87.8112 54.3069 94.1043C57.1537 100.348 58.5501 110.258 58.2816 116.204C58.013 122.2 58.1742 127.106 58.1742 127.106L57.8519 136.372L64.7808 142.467L71.5486 145.291C71.5486 145.291 82.5598 149.751 96.6862 142.467C103.561 138.899 107.429 136.719 109.524 135.431C110.974 134.539 111.457 132.755 110.598 131.367C107.59 126.462 101.037 114.767 99.4792 104.411C97.4919 90.8835 100.607 82.5587 100.607 82.5587C100.607 82.5587 103.991 66.1571 95.5046 60.4586C93.6783 59.2199 92.1743 57.981 90.9926 56.7918C86.1048 51.9357 78.7999 49.7554 71.6561 50.6969L63.062 51.8861C63.1157 51.8861 59.893 52.6294 58.2816 60.5082Z" fill="#5277F6"/>
<path d="M80.1955 147.77C74.7706 147.77 71.333 146.432 71.0644 146.333L63.9743 143.26L56.6693 136.819L56.9917 127.057C56.9917 127.057 56.7768 122.052 57.099 116.106C57.3676 110.259 56.0248 100.596 53.2317 94.4518C50.3849 88.2083 49.633 83.7982 52.7483 75.8699C55.6488 68.6353 57.099 60.3601 57.099 60.261V60.2115C58.8179 51.9363 62.3629 50.8461 62.7389 50.7966L71.4403 49.6074C79.1213 48.5668 86.7485 50.9453 91.8512 55.9996C93.0866 57.2384 94.5905 58.4276 96.2019 59.5673C105.172 65.6126 101.896 82.0639 101.788 82.7576C101.734 83.0053 98.7801 91.1814 100.66 104.263C102.164 114.52 108.824 126.264 111.618 130.823C112.799 132.706 112.155 135.134 110.167 136.323C107.374 138.008 103.023 140.386 97.2225 143.359C90.6695 146.828 84.7611 147.77 80.1955 147.77ZM65.4782 141.576L72.0849 144.35C72.1924 144.4 82.7738 148.463 96.1482 141.526C103.292 137.859 107.052 135.679 108.932 134.539C109.899 133.945 110.167 132.854 109.63 131.913C106.783 127.255 99.9618 115.214 98.4042 104.56C96.4168 90.9336 99.4784 82.5594 99.5859 82.2125C99.5859 82.2125 102.648 66.6037 94.9129 61.3512C93.1404 60.1619 91.5826 58.8735 90.2398 57.5356C85.6742 52.9769 78.8528 50.8462 71.9238 51.7877L63.3297 52.9769C63.3835 52.9769 60.9127 53.9679 59.5162 60.6574C59.4088 61.2025 57.9585 69.329 55.058 76.6627C52.1575 83.9468 52.8558 87.8119 55.4877 93.659C58.3882 100.051 59.8385 110.16 59.5162 116.255C59.2476 122.102 59.4087 127.057 59.4087 127.106L59.0865 135.976L65.4782 141.576Z" fill="#543D77"/>
<path d="M87.0746 41.4311L87.6118 40.4401C87.6118 40.4401 74.7207 31.9668 69.3494 31.9668C63.9244 31.9668 61.6148 32.6109 61.6148 32.6109C61.6148 32.6109 60.1645 35.6831 60.2183 39.895C60.272 44.107 65.8581 48.8639 65.8581 48.8639C65.8581 48.8639 67.0935 50.7964 64.9987 56.8418C64.9987 56.8418 60.4868 68.4865 69.5105 72.302C78.5343 76.1175 87.6118 56.8418 87.6118 56.8418C87.6118 56.8418 87.3432 56.4949 87.0209 55.9003C84.389 51.3911 84.4964 45.9404 87.0746 41.4311Z" fill="white"/>
<path d="M60.9226 34.0977C60.9226 34.0977 57.6461 47.6749 65.0585 58.7249C65.0585 58.7249 73.4913 60.1124 78.5403 52.8282L60.9226 34.0977Z" fill="white"/>
<path d="M66.7749 59.9139C65.6469 59.9139 64.9486 59.8148 64.8412 59.7653L64.3041 59.6661L64.0355 59.2697C56.462 47.9719 59.5774 34.4442 59.7385 33.8496L62.0481 34.3452C61.9944 34.4938 59.0402 47.2782 65.7543 57.7336C67.5268 57.8823 73.5964 57.9318 77.5174 52.2334L79.5048 53.373C75.5837 59.1211 69.7828 59.9139 66.7749 59.9139Z" fill="#543D77"/>
<path d="M63.3888 31.5703C63.8185 30.9757 64.8391 31.2234 64.9465 31.9171C65.2688 34.1965 68.4915 39.1517 73.9165 41.8771C82.242 46.0394 84.3905 46.0394 85.7333 53.0262C85.7333 53.0262 87.9893 55.2065 90.1915 58.1796C93.1994 62.1933 97.6038 65.0178 102.331 67.1981C103.297 67.644 104.318 68.4368 105.285 69.6261C105.285 69.6261 93.7366 52.828 95.2405 41.8771C96.7982 30.9261 86.9687 20.2724 76.6559 19.2318C69.888 18.5381 63.4963 22.0563 60.0049 27.0115C57.2656 30.9261 57.4804 35.9804 60.2198 39.895C60.2198 39.895 60.3809 35.4353 63.3888 31.5703Z" fill="white"/>
<path d="M104.319 70.2207C103.567 69.2296 102.707 68.5358 101.794 68.1394C95.9931 65.4636 91.9646 62.4905 89.2253 58.7741C87.0768 55.9001 84.8745 53.7694 84.8745 53.7199L84.606 53.4721L84.5522 53.1252C83.478 47.6745 82.1352 47.0303 76.4953 44.305C75.5822 43.859 74.508 43.3635 73.3263 42.7689C68.1699 40.1922 64.7322 35.5343 63.9266 32.7099C61.5095 36.1785 61.3484 39.8949 61.3484 39.8949L61.2409 43.3635L59.1998 40.44C56.1382 36.0794 56.0845 30.5296 58.985 26.3673C63.0134 20.6688 69.9961 17.3984 76.7639 18.0921C82.1352 18.6372 87.4528 21.5607 91.3201 26.1195C95.2948 30.7774 97.1747 36.5749 96.369 41.9265C94.8651 52.3324 106.091 68.7836 106.198 68.9323L104.319 70.2207ZM86.8619 52.4811C87.5065 53.1253 89.3327 55.0577 91.2126 57.5353C93.4686 60.6075 96.7451 63.1347 101.364 65.4636C97.9804 59.567 93.0388 49.4089 94.1131 41.7284C94.8114 36.9218 93.1463 31.7684 89.5476 27.5069C86.1099 23.4437 81.2758 20.7679 76.6028 20.2724C70.6944 19.6778 64.5711 22.5518 61.0261 27.5565C59.2536 30.0837 58.8238 33.3045 59.737 36.2776C60.2204 34.692 61.0798 32.7595 62.4763 30.8765C62.9597 30.2323 63.8192 29.9845 64.6248 30.1332C65.4305 30.3314 66.0213 30.926 66.1825 31.7189C66.451 33.6514 69.5127 38.3588 74.508 40.8364C75.6359 41.431 76.7102 41.9265 77.6233 42.3725C83.3706 45.1969 85.5728 46.2871 86.8619 52.4811Z" fill="#543D77"/>
<path d="M58.4434 38.706C57.3154 36.4267 57.1543 32.958 57.1543 32.8094L58.9805 32.7598C58.9805 32.8093 59.1416 36.0798 60.1084 38.0123L58.4434 38.706Z" fill="#543D77"/>
<path d="M65.4795 31.422L63.1699 31.0751C63.2236 30.7778 64.6202 23.791 74.8256 21.1152L75.4701 23.1964C66.6075 25.5253 65.4795 31.3725 65.4795 31.422Z" fill="#543D77"/>
<path d="M60.3303 52.2333C52.4345 48.5664 52.3809 42.1247 52.3809 41.877H54.7442C54.7442 42.0752 54.9053 47.2781 61.4046 50.3007L60.3303 52.2333Z" fill="#543D77"/>
<path d="M42.1702 103.271C39.9142 101.735 33.6299 99.505 33.5762 99.4555L34.4355 97.4238C34.7041 97.5229 41.0959 99.8024 43.6204 101.487L42.1702 103.271Z" fill="#543D77"/>
<path d="M81.3774 102.231C73.6428 101.538 69.1846 96.9789 69.0234 96.7807L70.796 95.3438C70.8497 95.3933 74.8244 99.4565 81.5922 100.051L81.3774 102.231Z" fill="#543D77"/>
<path d="M72.5149 78.1987C68.5402 78.1987 65.5859 76.7122 65.3711 76.6131L66.499 74.7301C66.7676 74.8787 73.1594 78.0005 79.3901 73.9868C80.2495 73.4418 81.1089 72.6985 82.0758 71.6579L85.9968 67.3469C86.1579 67.1487 89.5418 63.8287 92.9257 62.9863L93.5703 65.0675C90.8309 65.7612 87.823 68.7343 87.7693 68.7839L83.8483 73.0453C82.774 74.2346 81.7535 75.077 80.7329 75.7707C77.9399 77.6041 75.0394 78.1987 72.5149 78.1987Z" fill="#543D77"/>
<path d="M50.6008 89.2983C48.9357 86.226 45.4981 85.6314 45.3906 85.5819L45.8203 83.4512C46.0352 83.5007 50.547 84.244 52.7492 88.3072L50.6008 89.2983Z" fill="#543D77"/>
<path d="M59.627 115.115C59.627 115.115 75.9556 133.696 77.8356 143.805L97.3333 132.953C97.3333 132.953 91.586 114.074 81.864 105.799L59.627 115.115Z" fill="white"/>
<path d="M77.029 145.589L76.7067 144.004C74.8805 134.292 58.874 115.957 58.7129 115.809L57.7461 114.719L82.078 104.561L82.6688 105.056C92.552 113.48 98.2455 131.963 98.5141 132.756L98.7289 133.548L77.029 145.589ZM61.506 115.561C64.8899 119.525 76.0084 133.102 78.694 142.17L95.9895 132.557C94.8079 128.99 89.5977 114.421 81.6483 107.187L61.506 115.561Z" fill="#543D77"/>
<path d="M62.793 103.816C62.793 103.816 79.1217 122.398 81.0017 132.506L100.499 121.654C100.499 121.654 94.7521 102.775 85.0301 94.5L62.793 103.816Z" fill="white"/>
<path d="M80.1422 134.291L79.82 132.705C77.9937 122.993 61.9873 104.659 61.8262 104.51L60.8594 103.42L85.1912 93.2617L85.7821 93.7573C95.6652 102.181 101.359 120.664 101.627 121.457L101.842 122.25L80.1422 134.291ZM64.6729 104.213C68.0568 108.177 79.1754 121.754 81.861 130.822L99.1565 121.209C97.9748 117.641 92.7647 103.073 84.8152 95.8384L64.6729 104.213Z" fill="#543D77"/>
<path d="M75.6875 105.651C75.6875 105.651 88.9008 120.715 90.4585 128.891L106.25 120.12C106.25 120.12 101.631 104.858 93.735 98.1191L75.6875 105.651Z" fill="#543D77"/>
<path d="M89.5982 130.625L89.2759 129.04C87.772 121.21 74.8809 106.444 74.7735 106.295L73.8066 105.205L93.8952 96.7812L94.4861 97.2768C102.543 104.115 107.162 119.129 107.377 119.773L107.592 120.566L89.5982 130.625ZM77.5665 106.097C80.467 109.516 89.0074 120.021 91.2633 127.206L104.853 119.625C103.832 116.552 99.6962 105.156 93.4655 99.4076L77.5665 106.097Z" fill="#543D77"/>
<path d="M96.4201 107.235C96.4201 107.235 116.938 95.7891 127.251 95.4422L118.926 77.6035C118.926 77.6035 99.4818 80.0811 89.9746 87.2661L96.4201 107.235Z" fill="white"/>
<path d="M95.7209 108.87L88.6309 86.8694L89.2217 86.4235C98.8363 79.0898 117.958 76.6122 118.764 76.5131L119.677 76.4141L129.023 96.4825L127.304 96.5321C117.421 96.879 97.2786 108.078 97.0637 108.177L95.7209 108.87ZM91.3165 87.6623L97.1175 105.6C101.576 103.222 116.239 95.6401 125.478 94.5005L118.173 78.7925C114.413 79.3376 99.4808 81.8647 91.3165 87.6623Z" fill="#543D77"/>
<path d="M87.0665 125.42L83.5214 124.33C83.5214 124.33 80.1376 120.316 77.1834 120.316C74.2829 120.316 78.4187 125.272 78.5799 125.42C78.7947 125.519 74.0143 128.74 70.3081 127.105C66.602 125.47 65.6888 133.646 74.068 135.777C82.4472 137.907 89.3762 131.862 89.3762 131.862L87.0665 125.42Z" fill="white"/>
<path d="M77.7781 137.363C76.489 137.363 75.1461 137.214 73.7496 136.868C69.8823 135.877 67.1967 133.498 66.5521 130.525C66.1761 128.791 66.6596 127.205 67.7338 126.363C68.5932 125.768 69.7211 125.669 70.7954 126.164C72.9439 127.106 75.6295 125.966 76.9186 125.272C75.8981 123.984 74.609 121.952 75.0387 120.615C75.3073 119.822 76.113 119.326 77.1872 119.326C80.1951 119.326 83.3105 122.498 84.2236 123.489L87.9835 124.678L90.7229 132.309L90.1857 132.804C89.9709 132.903 84.8144 137.363 77.7781 137.363ZM69.3989 127.998C69.2915 127.998 69.2377 128.047 69.184 128.047C68.8617 128.295 68.6469 129.038 68.8617 130.029C69.0229 130.822 69.936 133.597 74.3941 134.737C80.7322 136.372 86.2647 132.804 88.0372 131.516L86.1572 126.263L82.8271 125.223L82.6122 124.975C81.4842 123.637 79.0671 121.556 77.402 121.407C77.6169 122.25 78.8523 123.934 79.3895 124.579L80.1951 125.074L79.658 125.966C79.1746 126.709 74.0719 129.93 69.8286 128.047C69.6675 127.998 69.5063 127.998 69.3989 127.998Z" fill="#543D77"/>
<path d="M90.8325 65.8594C90.8325 65.8594 85.5687 69.6749 92.7125 79.9321C98.6209 88.4055 108.665 99.3565 111.942 102.875C112.479 103.469 112.425 104.411 111.781 104.906C109.525 106.591 104.1 109.614 100.34 114.024C96.0964 118.979 89.4897 122.794 87.5024 123.885C87.1264 124.083 86.9115 124.479 86.9652 124.876C87.18 126.362 87.9858 130.029 90.3491 133.399C90.4028 133.498 90.564 133.547 90.7252 133.448C93.3034 131.862 118.709 116.452 128.7 109.019C129.559 108.375 129.774 107.334 129.291 106.442C126.605 101.586 117.85 86.2252 111.243 77.2067C104.529 68.1388 97.6003 58.9222 90.8325 65.8594Z" fill="#5277F6"/>
<path d="M90.5643 134.538C90.4569 134.538 90.3494 134.538 90.242 134.489C89.866 134.439 89.5437 134.192 89.3289 133.894C86.8044 130.376 85.9988 126.462 85.7839 124.925C85.6765 124.083 86.1062 123.29 86.8582 122.844C88.7381 121.804 95.2374 118.087 99.3732 113.281C102.381 109.763 106.41 107.087 109.041 105.352C109.793 104.857 110.492 104.411 110.975 104.015C111.083 103.965 111.083 103.866 111.083 103.816C111.083 103.767 111.083 103.668 110.975 103.569C107.967 100.348 97.6544 89.0994 91.6386 80.4774C84.4411 70.1706 89.1678 65.7109 89.9197 65.0668C91.8534 63.1343 93.9482 62.1928 96.2041 62.3414C101.898 62.6883 107.054 69.7246 112.049 76.5132C118.764 85.6308 127.626 101.289 130.204 105.898C130.956 107.235 130.58 108.871 129.291 109.812C119.301 117.245 94.0556 132.556 91.2089 134.291C91.1014 134.439 90.8329 134.538 90.5643 134.538ZM91.5848 66.702C91.37 66.9002 87.3416 70.2202 93.7334 79.3377C99.6418 87.8111 109.901 98.9603 112.855 102.181C113.339 102.677 113.553 103.37 113.5 104.064C113.446 104.758 113.07 105.352 112.533 105.749C111.996 106.145 111.297 106.591 110.492 107.136C107.967 108.821 104.1 111.398 101.307 114.668C96.9025 119.772 90.1346 123.687 88.1472 124.777C88.3621 125.966 89.0067 129.038 90.8866 132.011C96.043 128.89 118.71 115.015 127.948 108.127C128.378 107.83 128.486 107.334 128.217 106.889C125.692 102.33 116.83 86.7705 110.223 77.752C105.765 71.7067 100.716 64.819 96.2041 64.5217C94.7002 64.4226 93.25 65.1163 91.7997 66.6029L91.5848 66.702Z" fill="#543D77"/>
<path d="M93.84 131.318C91.2618 126.71 90.1875 121.953 90.1875 121.755L92.4972 121.309C92.4972 121.358 93.5177 125.966 95.9348 130.327L93.84 131.318Z" fill="#543D77"/>
<path d="M115.915 105.452C113.82 103.668 112.316 103.915 112.263 103.915L111.672 101.785C111.94 101.735 114.465 101.19 117.527 103.816L115.915 105.452Z" fill="#543D77"/>
<path d="M67.6846 59.5181C67.04 59.5181 66.6641 59.4686 66.5566 59.419L66.8251 58.1802C67.04 58.2298 72.2501 59.0722 77.5677 52.9277L78.642 53.7206C74.2376 58.874 69.7256 59.5181 67.6846 59.5181Z" fill="#543D77"/>
<path d="M86.4775 53.8689L85.0273 52.1841C85.5108 51.8372 96.8978 43.1657 91.0431 29.5389L93.2454 28.7461C99.7446 43.8594 86.585 53.7698 86.4775 53.8689Z" fill="#543D77"/>
<path d="M64.7833 50.4988C64.461 50.4988 64.1387 50.3502 63.8702 50.152C63.6016 49.9043 63.4941 49.6069 63.4941 49.2601L63.709 45.4941L65.0519 45.5437L64.837 49.3097C65.1592 49.2105 65.8038 49.1114 66.3947 48.7646L67.1467 49.8051C66.2872 50.3006 65.4278 50.4493 64.837 50.4493C64.837 50.4989 64.837 50.4988 64.7833 50.4988Z" fill="#543D77"/>
<path d="M70.209 42.967C70.209 44.0076 69.5645 44.8499 68.7588 44.8499C67.9531 44.8499 67.3086 44.0076 67.3086 42.967C67.3086 41.9264 67.9531 41.084 68.7588 41.084C69.5645 41.084 70.209 41.9264 70.209 42.967Z" fill="#543D77"/>
<path d="M61.3418 44.8499C61.9945 44.8499 62.5235 44.0069 62.5235 42.967C62.5235 41.927 61.9945 41.084 61.3418 41.084C60.6892 41.084 60.1602 41.927 60.1602 42.967C60.1602 44.0069 60.6892 44.8499 61.3418 44.8499Z" fill="#543D77"/>
<path d="M66.5558 55.2062C65.8038 55.2062 65.374 55.0575 65.3203 55.0575L65.75 53.8683C65.8037 53.8683 67.4688 54.3142 69.3488 53.125L70.1007 54.1656C68.7579 55.008 67.4689 55.2062 66.5558 55.2062Z" fill="#5277F6"/>
<path d="M81.2744 49.7562C81.0596 49.7562 80.8984 49.7561 80.791 49.7066L81.167 48.5174C81.2745 48.5174 82.1876 48.666 82.8321 47.3281L84.0675 47.8237C83.2618 49.3598 82.0801 49.7562 81.2744 49.7562Z" fill="#5277F6"/>
<path d="M38.9444 114.173C38.6222 111.695 36.7959 110.902 36.7422 110.853L37.2793 109.713C37.3867 109.762 39.8575 110.803 40.2872 114.024L38.9444 114.173Z" fill="#C0A0FE"/>
<path d="M80.5734 129.038L79.2843 128.741C79.6602 127.353 78.1562 125.916 78.1562 125.867L79.1231 124.975C79.1768 125.074 81.1642 127.006 80.5734 129.038Z" fill="#C0A0FE"/>
<path d="M63.8186 82.5587C63.8186 84.3426 62.5295 85.7796 60.9181 85.7796C59.3067 85.7796 58.0176 84.3426 58.0176 82.5587C58.0176 80.7749 59.3067 79.3379 60.9181 79.3379C62.5295 79.3379 63.8186 80.7749 63.8186 82.5587Z" fill="#C0A0FE"/>
<path d="M60.9728 86.87C58.7168 86.87 56.8906 84.9375 56.8906 82.559C56.8906 80.1805 58.7168 78.248 60.9728 78.248C63.2287 78.248 65.055 80.1805 65.055 82.559C65.0013 84.9375 63.175 86.87 60.9728 86.87ZM60.9728 80.4283C60.0596 80.4283 59.254 81.4193 59.254 82.559C59.254 83.7483 60.0596 84.6898 60.9728 84.6898C61.8859 84.6898 62.6916 83.6987 62.6916 82.559C62.6916 81.3698 61.8859 80.4283 60.9728 80.4283Z" fill="#543D77"/>
<path d="M66.7131 85.7795C66.7131 87.5634 65.4239 89.0003 63.8126 89.0003C62.2012 89.0003 60.9121 87.5634 60.9121 85.7795C60.9121 83.9956 62.2012 82.5586 63.8126 82.5586C65.4239 82.5586 66.7131 83.9956 66.7131 85.7795Z" fill="white"/>
<path d="M63.8126 90.1395C61.5567 90.1395 59.7305 88.2071 59.7305 85.8286C59.7305 83.4501 61.5567 81.5176 63.8126 81.5176C66.0685 81.5176 67.8948 83.4501 67.8948 85.8286C67.8948 88.1575 66.0685 90.1395 63.8126 90.1395ZM63.8126 83.6483C62.8995 83.6483 62.0938 84.6393 62.0938 85.779C62.0938 86.9187 62.8995 87.9097 63.8126 87.9097C64.7257 87.9097 65.5315 86.9187 65.5315 85.779C65.5315 84.6393 64.7794 83.6483 63.8126 83.6483Z" fill="#543D77"/>
<path d="M144.492 106.392L138.369 87.463L138.96 87.0171C147.124 80.8231 163.292 78.6923 163.99 78.5932L164.903 78.4941L172.96 95.7877L171.241 95.8373C162.97 96.1346 145.943 105.549 145.782 105.649L144.492 106.392ZM141.108 88.2559L145.889 103.072C149.864 100.941 161.788 94.8462 169.523 93.8056L163.507 80.8726C160.069 81.3681 147.823 83.4989 141.108 88.2559Z" fill="#543D77"/>
<path d="M132.622 87.5634L131.172 85.829C132.139 85.1353 140.733 79.09 145.245 78.5449L145.567 80.6756C142.237 81.072 135.093 85.7795 132.622 87.5634Z" fill="#543D77"/>
</g>
<defs>
<radialGradient id="paint0_radial_918_23647" cx="0" cy="0" r="1" gradientUnits="userSpaceOnUse" gradientTransform="translate(70 69.7747) rotate(-94.2698) scale(60.8785 60.9426)">
<stop stop-color="#FFED47"/>
<stop offset="1" stop-color="#EDF0FF" stop-opacity="0.59"/>
</radialGradient>
<clipPath id="clip0_918_23647">
<rect x="0.5" width="139" height="139" rx="69.5" fill="white"/>
</clipPath>
</defs>
</svg>
